SplineFontDB: 3.2
FontName: Iso-Gps
FullName: Iso-Gps
FamilyName: Iso-Gps
Weight: Book
Copyright: 5.0 Copyright (c) LALLIARD 2023. All rights reserved\n\nDistributed under GNU GPL licence version 3 with GPL font exception:\n\nAs a special exception, if you create a document which uses this font, and embed this font or unaltered portions of this font into the document, this font does not by itself cause the resulting document to be covered by the GNU General Public License. This exception does not however invalidate any other reasons why the document might be covered by the GNU General Public License. If you modify this font, you may extend this exception to your version of the font, but you are not obligated to do so. If you do not wish to do so, delete this exception statement from your version. 
Version: 5.0 04-11-2023
ItalicAngle: 0
UnderlinePosition: -2870
UnderlineWidth: 300
Ascent: 1638
Descent: 410
InvalidEm: 0
sfntRevision: 0x00050001
LayerCount: 2
Layer: 0 1 "Arri+AOgA-re" 1
Layer: 1 1 "Avant" 0
XUID: [1021 378 143806488 9797]
StyleMap: 0x0040
FSType: 0
OS2Version: 1
OS2_WeightWidthSlopeOnly: 0
OS2_UseTypoMetrics: 0
CreationTime: 1633702819
ModificationTime: 1681208113
PfmFamily: 81
TTFWeight: 400
TTFWidth: 5
LineGap: 0
VLineGap: 0
Panose: 5 5 1 6 0 0 0 2 0 2
OS2TypoAscent: 1980
OS2TypoAOffset: 0
OS2TypoDescent: -780
OS2TypoDOffset: 0
OS2TypoLinegap: 100
OS2WinAscent: 1980
OS2WinAOffset: 0
OS2WinDescent: 780
OS2WinDOffset: 0
HheadAscent: 1980
HheadAOffset: 0
HheadDescent: -780
HheadDOffset: 0
OS2SubXSize: 1331
OS2SubYSize: 1433
OS2SubXOff: 0
OS2SubYOff: 286
OS2SupXSize: 1331
OS2SupYSize: 1433
OS2SupXOff: 0
OS2SupYOff: 983
OS2StrikeYSize: 102
OS2StrikeYPos: 530
OS2FamilyClass: 2048
OS2Vendor: '    '
OS2CodePages: 00000015.00000000
OS2UnicodeRanges: 800002ff.080026eb.00000000.00000000
MarkAttachClasses: 1
DEI: 91125
TtTable: prep
PUSHW_1
 511
SCANCTRL
PUSHB_1
 1
SCANTYPE
SVTCA[y-axis]
MPPEM
PUSHB_1
 8
LT
IF
PUSHB_2
 1
 1
INSTCTRL
EIF
PUSHB_2
 70
 6
CALL
IF

StartChar: space
Encoding: 32 32 3
Width: 430
Flags: W
LayerCount: 2
Fore
SplineSet
1059 295 m 1024,0,-1
EndSplineSet
Validated: 1
EndChar

StartChar: exclam
Encoding: 33 33 4
Width: 512
Flags: W
HStem: -5 162<180.997 331.285>
VStem: 175 162<1.40723 151.285> 193 128<397.891 1292.08>
LayerCount: 2
Fore
SplineSet
321 460 m 2,0,1
 321 396 321 396 257 396 c 128,-1,2
 193 396 193 396 193 460 c 2,3,-1
 193 1229 l 2,4,5
 193 1294 193 1294 257 1294 c 128,-1,6
 321 1294 321 1294 321 1229 c 2,7,-1
 321 460 l 2,0,1
175 76 m 128,-1,9
 175 157 175 157 256 157 c 128,-1,10
 337 157 337 157 337 76 c 128,-1,11
 337 -5 337 -5 260 -5 c 0,12,8
 175 -5 175 -5 175 76 c 128,-1,9
EndSplineSet
Validated: 1
EndChar

StartChar: quotedbl
Encoding: 34 34 5
Width: 512
Flags: W
HStem: 1100 392<128.191 185.633 328.767 384.539>
VStem: 58 129<1105.5 1206.12> 127 128<1386.31 1486.72>
LayerCount: 2
Fore
SplineSet
58 1157 m 0,0,1
 58 1171 58 1171 61 1182 c 2,2,-1
 127 1443 l 2,3,4
 139 1492 139 1492 181 1492 c 0,5,6
 193 1492 193 1492 207 1488 c 0,7,8
 255 1474 255 1474 255 1431 c 0,9,10
 255 1420 255 1420 252 1408 c 2,11,-1
 187 1149 l 2,12,13
 173 1100 173 1100 134 1100 c 0,14,15
 126 1100 126 1100 108 1104 c 0,16,17
 58 1115 58 1115 58 1157 c 0,0,1
331 1100 m 0,18,19
 259 1100 259 1100 256 1160 c 0,20,21
 256 1170 256 1170 259 1182 c 2,22,-1
 326 1443 l 2,23,24
 338 1492 338 1492 380 1492 c 0,25,26
 392 1492 392 1492 406 1488 c 0,27,28
 454 1474 454 1474 454 1433 c 0,29,30
 454 1421 454 1421 450 1408 c 2,31,-1
 386 1149 l 2,32,33
 371 1100 371 1100 331 1100 c 0,18,19
EndSplineSet
Validated: 1
EndChar

StartChar: numbersign
Encoding: 35 35 6
Width: 1187
Flags: W
HStem: 0 21G<360 425> 401 129<133.496 328 458 730 860 1054.99> 799 131<132.637 328 457 730 860 1055.68>
VStem: 328 130<2.67188 401 530 799 931 1324.5> 730 130<5.49316 401 530 799 930 1327.47>
LayerCount: 2
Fore
SplineSet
730 530 m 1,0,-1
 730 799 l 1,1,-1
 457 799 l 1,2,-1
 457 530 l 1,3,-1
 730 530 l 1,0,-1
328 1259 m 2,4,5
 328 1327 328 1327 392 1327 c 128,-1,6
 456 1327 456 1327 456 1256 c 2,7,-1
 456 930 l 1,8,-1
 730 930 l 1,9,-1
 730 1261 l 2,10,11
 730 1330 730 1330 798 1330 c 0,12,13
 860 1330 860 1330 860 1258 c 2,14,-1
 860 929 l 1,15,-1
 993 929 l 2,16,17
 1058 929 1058 929 1058 865 c 0,18,19
 1058 799 1058 799 992 799 c 2,20,-1
 860 799 l 1,21,-1
 860 528 l 1,22,-1
 989 528 l 2,23,24
 1057 528 1057 528 1057 466 c 0,25,26
 1057 401 1057 401 992 401 c 2,27,-1
 858 401 l 1,28,-1
 858 75 l 2,29,30
 858 2 858 2 790 2 c 0,31,32
 730 2 730 2 730 76 c 2,33,-1
 730 401 l 1,34,-1
 458 401 l 1,35,-1
 458 75 l 2,36,37
 458 0 458 0 392 0 c 0,38,39
 328 0 328 0 328 76 c 2,40,-1
 328 401 l 1,41,-1
 201 401 l 2,42,43
 131 401 131 401 131 468 c 0,44,45
 131 527 131 527 202 527 c 2,46,-1
 328 527 l 1,47,-1
 328 799 l 1,48,-1
 204 799 l 2,49,50
 130 799 130 799 130 867 c 0,51,52
 130 931 130 931 205 931 c 2,53,-1
 328 931 l 1,54,-1
 328 1259 l 2,4,5
EndSplineSet
Validated: 1
EndChar

StartChar: dollar
Encoding: 36 36 7
Width: 1024
Flags: W
HStem: 65 120<149.844 301.817> 1160 131<342.365 448 578 736.424>
VStem: 122 130<856.759 1080.52> 448 130<-135.05 -0.626953 129 527 755 1156 1287.14 1426.93> 772 130<203.69 430.489>
LayerCount: 2
Fore
SplineSet
764 570 m 1,0,1
 902 476 902 476 902 325.5 c 128,-1,2
 902 175 902 175 805 94.5 c 128,-1,3
 708 14 708 14 578 -3 c 1,4,-1
 578 -71 l 2,5,6
 578 -137 578 -137 513 -137 c 128,-1,7
 448 -137 448 -137 448 -71 c 2,8,-1
 448 -5 l 1,9,10
 372 1 372 1 307 19.5 c 128,-1,11
 242 38 242 38 160 65 c 0,12,13
 122 78 122 78 122 116 c 128,-1,14
 122 154 122 154 149 174.5 c 128,-1,15
 176 195 176 195 204 185 c 0,16,17
 348 138 348 138 448 128 c 1,18,-1
 448 603 l 1,19,-1
 252 720 l 1,20,21
 168 781 168 781 145 843 c 128,-1,22
 122 905 122 905 122 967 c 0,23,24
 122 1099 122 1099 214 1184.5 c 128,-1,25
 306 1270 306 1270 448 1288 c 1,26,-1
 448 1370 l 2,27,28
 448 1429 448 1429 513 1429 c 128,-1,29
 578 1429 578 1429 578 1363 c 2,30,-1
 578 1291 l 1,31,32
 726 1281 726 1281 836 1218 c 0,33,34
 868 1200 868 1200 868 1158.5 c 128,-1,35
 868 1117 868 1117 834 1105 c 0,36,37
 820 1100 820 1100 800 1099 c 0,38,39
 782 1098 782 1098 762 1106 c 0,40,41
 722 1121 722 1121 692 1137 c 0,42,43
 658 1154 658 1154 578 1160 c 1,44,-1
 578 679 l 1,45,-1
 764 570 l 1,0,1
448 755 m 1,46,-1
 448 1156 l 1,47,48
 368 1141 368 1141 310 1093 c 128,-1,49
 252 1045 252 1045 252 965.5 c 128,-1,50
 252 886 252 886 326 829 c 1,51,-1
 448 755 l 1,46,-1
714 191.5 m 128,-1,53
 772 239 772 239 772 320 c 128,-1,54
 772 401 772 401 698 459 c 1,55,-1
 578 527 l 1,56,-1
 578 129 l 1,57,52
 656 144 656 144 714 191.5 c 128,-1,53
EndSplineSet
Validated: 1
EndChar

StartChar: percent
Encoding: 37 37 8
Width: 1024
Flags: W
HStem: -4 130<640.781 855.219> 385 131<641.623 854.863> 777 130<169.739 381.219> 1166 131<168.959 380.467>
VStem: 16 130<928.41 1143> 404 132<929.248 1142.92> 488 130<148.248 362.003> 878 130<148.248 361.919>
LayerCount: 2
Fore
SplineSet
748 515 m 1,0,1
 878 515 878 515 943 433.5 c 128,-1,2
 1008 352 1008 352 1008 254.5 c 128,-1,3
 1008 157 1008 157 944 76.5 c 128,-1,4
 880 -4 880 -4 754 -4 c 0,5,6
 750 -4 750 -4 748 -4 c 0,7,8
 618 -4 618 -4 553 76.5 c 128,-1,9
 488 157 488 157 488 254.5 c 128,-1,10
 488 352 488 352 554 434 c 128,-1,11
 620 516 620 516 748 516 c 1,12,13
 748 516 748 516 748 515 c 1,0,1
750 126 m 0,14,15
 878 126 878 126 878 255.5 c 128,-1,16
 878 385 878 385 748 385 c 128,-1,17
 618 385 618 385 618 255.5 c 128,-1,18
 618 126 618 126 746 126 c 0,19,20
 748 126 748 126 750 126 c 0,14,15
196 -2 m 0,21,22
 132 -2 132 -2 132 66 c 0,23,24
 132 83 132 83 144 101 c 2,25,-1
 758 1258 l 2,26,27
 776 1294 776 1294 818 1294 c 0,28,29
 820 1294 820 1294 820 1294 c 2,30,31
 866 1293 866 1293 876 1261.5 c 128,-1,32
 886 1230 886 1230 874 1202 c 2,33,-1
 258 37 l 1,34,35
 244 -2 244 -2 196 -2 c 0,21,22
276 1297 m 2,36,37
 406 1296 406 1296 471 1214.5 c 128,-1,38
 536 1133 536 1133 536 1035.5 c 128,-1,39
 536 938 536 938 471 857.5 c 128,-1,40
 406 777 406 777 280 777 c 0,41,42
 278 777 278 777 274 777 c 0,43,44
 144 777 144 777 80 857.5 c 128,-1,45
 16 938 16 938 16 1035.5 c 128,-1,46
 16 1133 16 1133 81 1215 c 128,-1,47
 146 1297 146 1297 274 1297 c 0,48,49
 276 1297 276 1297 276 1297 c 2,36,37
276 907 m 0,50,51
 404 907 404 907 404 1036.5 c 128,-1,52
 404 1166 404 1166 275 1166 c 128,-1,53
 146 1166 146 1166 146 1036.5 c 128,-1,54
 146 907 146 907 272 907 c 0,55,56
 274 907 274 907 276 907 c 0,50,51
EndSplineSet
Validated: 1
EndChar

StartChar: ampersand
Encoding: 38 38 9
Width: 1258
Flags: W
HStem: -5 150<288.386 518.834> 1361 149<373.387 587.369>
VStem: 100 153<180.808 419.586> 180 145<1092.84 1312.92> 636 147<1095.37 1311.93>
LayerCount: 2
Fore
SplineSet
689 319 m 1,0,1
 547 542 547 542 469 665 c 1,2,-1
 290 410 l 2,3,4
 253 356 253 356 253 300 c 0,5,6
 253 145 253 145 415 145 c 0,7,8
 461 145 461 145 516 187 c 2,9,-1
 689 319 l 1,0,1
475 929 m 1,10,-1
 607 1117 l 2,11,12
 636 1158 636 1158 636 1214 c 0,13,14
 636 1267 636 1267 589 1315 c 0,15,16
 544 1361 544 1361 481 1361 c 0,17,18
 415 1361 415 1361 371 1315 c 0,19,20
 325 1267 325 1267 325 1212 c 0,21,22
 325 1164 325 1164 357 1113 c 2,23,-1
 475 929 l 1,10,-1
475 1510 m 0,24,25
 606 1510 606 1510 705 1411 c 0,26,27
 783 1333 783 1333 783 1219 c 0,28,29
 783 1115 783 1115 745 1059 c 2,30,-1
 561 796 l 1,31,-1
 806 409 l 1,32,-1
 1037 580 l 2,33,34
 1063 599 1063 599 1086 599 c 0,35,36
 1158 599 1158 599 1158 522 c 0,37,38
 1158 489 1158 489 1114 455 c 2,39,-1
 887 281 l 1,40,-1
 994 114 l 2,41,42
 1007 92 1007 92 1007 68 c 0,43,44
 1007 -5 1007 -5 934 -5 c 0,45,46
 898 -5 898 -5 876 30 c 2,47,-1
 770 192 l 1,48,-1
 574 49 l 2,49,50
 503 -5 503 -5 401 -5 c 0,51,52
 281 -5 281 -5 213 62 c 0,53,54
 100 173 100 173 100 313 c 0,55,56
 100 398 100 398 168 488 c 1,57,-1
 385 799 l 1,58,-1
 209 1077 l 2,59,60
 180 1124 180 1124 180 1217 c 0,61,62
 180 1352 180 1352 295 1445 c 0,63,64
 375 1510 375 1510 475 1510 c 0,24,25
EndSplineSet
Validated: 1
EndChar

StartChar: quotesingle
Encoding: 39 39 10
Width: 430
Flags: W
HStem: 1100 392<227.191 284.633>
VStem: 157 198
LayerCount: 2
Fore
SplineSet
160 1182 m 2,0,-1
 226 1443 l 2,1,2
 238 1492 238 1492 280 1492 c 0,3,4
 292 1492 292 1492 306 1488 c 0,5,6
 355 1473 355 1473 355 1432 c 0,7,8
 355 1421 355 1421 351 1408 c 2,9,-1
 286 1149 l 2,10,11
 272 1100 272 1100 233 1100 c 0,12,13
 221 1100 221 1100 207 1104 c 0,14,15
 157 1114 157 1114 157 1158 c 0,16,17
 157 1169 157 1169 160 1182 c 2,0,-1
EndSplineSet
Validated: 1
EndChar

StartChar: parenleft
Encoding: 40 40 11
Width: 512
Flags: W
VStem: 125 130<260.209 1046.48> 267 120<-61.6084 73.0771 1236.32 1371.52>
LayerCount: 2
Fore
SplineSet
382 1277 m 0,0,1
 309 1108 309 1108 282 973 c 128,-1,2
 255 838 255 838 255 653 c 128,-1,3
 255 468 255 468 281.5 336 c 128,-1,4
 308 204 308 204 380 37 c 0,5,6
 387 21 387 21 387 1 c 128,-1,7
 387 -19 387 -19 364 -44 c 128,-1,8
 341 -69 341 -69 316 -69 c 128,-1,9
 291 -69 291 -69 267 -33 c 1,10,11
 186 151 186 151 155.5 299 c 128,-1,12
 125 447 125 447 125 653 c 128,-1,13
 125 859 125 859 155 1008 c 128,-1,14
 185 1157 185 1157 267 1344 c 1,15,16
 291 1379 291 1379 316 1379 c 128,-1,17
 341 1379 341 1379 363.5 1354 c 128,-1,18
 386 1329 386 1329 386 1309.5 c 128,-1,19
 386 1290 386 1290 382 1277 c 0,0,1
EndSplineSet
Validated: 1
EndChar

StartChar: parenright
Encoding: 41 41 12
Width: 512
Flags: W
VStem: 126 120<-59.4604 76.9766 1236.81 1365.51> 258 128<261.392 1042.01>
LayerCount: 2
Fore
SplineSet
356 1008 m 128,-1,1
 386 859 386 859 386 652.5 c 128,-1,2
 386 446 386 446 355 298.5 c 128,-1,3
 324 151 324 151 246 -34 c 1,4,5
 230 -60 230 -60 198 -62.5 c 128,-1,6
 166 -65 166 -65 146 -43 c 256,7,8
 126 -21 126 -21 126 -1 c 128,-1,9
 126 19 126 19 134 36 c 0,10,11
 204 202 204 202 231 334.5 c 128,-1,12
 258 467 258 467 258 653 c 128,-1,13
 258 839 258 839 230 973.5 c 128,-1,14
 202 1108 202 1108 130 1278 c 0,15,16
 128 1285 128 1285 128 1303 c 128,-1,17
 128 1321 128 1321 153 1349 c 128,-1,18
 178 1377 178 1377 201 1377 c 128,-1,19
 224 1377 224 1377 246 1345 c 1,20,0
 326 1157 326 1157 356 1008 c 128,-1,1
EndSplineSet
Validated: 1
EndChar

StartChar: asterisk
Encoding: 42 42 13
Width: 910
Flags: W
HStem: 252 648<222 292 620 688>
VStem: 193 524<280 316 835 872>
LayerCount: 2
Fore
SplineSet
656 900 m 2,0,1
 688 900 688 900 702 885 c 0,2,3
 715 873 715 873 715 851 c 0,4,5
 715 834 715 834 706 822 c 2,6,-1
 526 575 l 1,7,-1
 708 329 l 2,8,9
 717 316 717 316 717 304 c 0,10,11
 717 280 717 280 704 267 c 0,12,13
 689 252 689 252 657 252 c 0,14,15
 620 252 620 252 605 273 c 2,16,-1
 455 478 l 1,17,-1
 307 273 l 2,18,19
 292 252 292 252 251 252 c 0,20,21
 220 252 220 252 205 266 c 0,22,23
 193 279 193 279 193 302 c 0,24,25
 193 316 193 316 202 329 c 2,26,-1
 383 575 l 1,27,-1
 204 822 l 2,28,29
 195 835 195 835 195 850 c 0,30,31
 195 872 195 872 207 885 c 0,32,33
 222 900 222 900 255 900 c 1,34,35
 255 900 255 900 256 900 c 0,36,37
 292 900 292 900 309 876 c 2,38,-1
 455 675 l 1,39,-1
 601 876 l 2,40,41
 618 900 618 900 655 900 c 2,42,43
 655 900 655 900 655.5 900 c 128,-1,44
 656 900 656 900 656 900 c 2,0,1
EndSplineSet
Validated: 5
EndChar

StartChar: plus
Encoding: 43 43 14
Width: 910
Flags: W
HStem: 520 115<131 390 520 778.517> 874 20G<422.5 487.5>
VStem: 390 127<262.391 520 635 892.08>
LayerCount: 2
Fore
SplineSet
390 830 m 2,0,1
 390 894 390 894 455 894 c 256,2,3
 520 894 520 894 520 829 c 2,4,-1
 520 634 l 1,5,-1
 705 634 l 2,6,7
 780 634 780 634 780 581 c 0,8,9
 780 520 780 520 707 520 c 2,10,11
 707 520 707 520 517 520 c 1,12,-1
 517 328 l 2,13,14
 517 260 517 260 457 260 c 0,15,16
 390 260 390 260 390 325 c 2,17,-1
 390 520 l 1,18,19
 390 520 390 520 191 520 c 0,20,21
 130 520 130 520 130 577 c 0,22,23
 130 635 130 635 194 635 c 2,24,-1
 390 635 l 1,25,-1
 390 830 l 2,0,1
EndSplineSet
Validated: 1
EndChar

StartChar: comma
Encoding: 44 44 15
Width: 430
Flags: W
HStem: -357 446<185.945 243.12>
VStem: 178 146<-35.344 83.8584>
LayerCount: 2
Fore
SplineSet
178 22 m 2,0,1
 196 89 196 89 248 89 c 0,2,3
 324 89 324 89 324 24 c 0,4,5
 324 0 324 0 318 -24 c 2,6,-1
 252 -287 l 2,7,8
 234 -357 234 -357 178 -357 c 0,9,10
 106 -357 106 -357 106 -289 c 0,11,12
 106 -267 106 -267 116 -226 c 2,13,-1
 178 22 l 2,0,1
EndSplineSet
Validated: 1
EndChar

StartChar: hyphen
Encoding: 45 45 16
Width: 1024
Flags: W
HStem: 520 114<188.587 835.413>
VStem: 187 650<521.832 632.464>
LayerCount: 2
Fore
SplineSet
252 634 m 2,0,1
 252 634 252 634 772 634 c 0,2,3
 837 634 837 634 837 582 c 0,4,5
 837 520 837 520 774 520 c 2,6,-1
 251 520 l 2,7,8
 187 520 187 520 187 582 c 0,9,10
 187 634 187 634 252 634 c 2,0,1
EndSplineSet
Validated: 1
EndChar

StartChar: period
Encoding: 46 46 17
Width: 430
Flags: W
HStem: 2 169<136.724 293.276>
VStem: 130 170<8.68408 164.316>
LayerCount: 2
Fore
SplineSet
215 171 m 128,-1,1
 300 171 300 171 300 86.5 c 128,-1,2
 300 2 300 2 215 2 c 128,-1,3
 130 2 130 2 130 86.5 c 128,-1,0
 130 171 130 171 215 171 c 128,-1,1
EndSplineSet
Validated: 1
EndChar

StartChar: slash
Encoding: 47 47 18
Width: 1024
Flags: W
LayerCount: 2
Fore
SplineSet
895 1204 m 2,0,-1
 248 37 l 1,1,2
 233 -2 233 -2 186 -2 c 0,3,4
 122 -2 122 -2 122 63 c 0,5,6
 122 84 122 84 134 102 c 2,7,-1
 779 1261 l 2,8,9
 797 1297 797 1297 840 1297 c 0,10,11
 841 1297 841 1297 842 1297 c 0,12,13
 887 1296 887 1296 897.5 1264.5 c 128,-1,14
 908 1233 908 1233 895 1204 c 2,0,-1
EndSplineSet
Validated: 1
EndChar

StartChar: zero
Encoding: 48 48 19
Width: 910
Flags: W
HStem: -5 130<368.796 540.24> 1150 130<368.468 540.97>
VStem: 130 130<307.974 966.856> 650 130<308.017 969.624>
LayerCount: 2
Fore
SplineSet
723 1032 m 0,0,1
 780 862 780 862 780 638 c 0,2,3
 780 409 780 409 723 243 c 0,4,5
 638 -5 638 -5 454.5 -5 c 128,-1,6
 271 -5 271 -5 187 242 c 0,7,8
 130 411 130 411 130 637 c 128,-1,9
 130 863 130 863 187 1033 c 0,10,11
 270 1280 270 1280 454 1280 c 0,12,13
 640 1280 640 1280 723 1032 c 0,0,1
615 341 m 0,14,15
 650 481 650 481 650 638 c 0,16,17
 650 790 650 790 615 935 c 0,18,19
 563 1150 563 1150 455 1150 c 256,20,21
 347 1150 347 1150 295 934 c 0,22,23
 260 786 260 786 260 634 c 0,24,25
 260 486 260 486 295 341 c 0,26,27
 347 125 347 125 455 125 c 0,28,29
 561 125 561 125 615 341 c 0,14,15
EndSplineSet
Validated: 1
EndChar

StartChar: one
Encoding: 49 49 20
Width: 910
Flags: W
HStem: 0 21G<496.5 561.5> 895 21G<236.5 282> 1265 20G<515.5 561.5>
VStem: 464 130<1.92017 1064>
LayerCount: 2
Fore
SplineSet
464 1064 m 1,0,-1
 314 914 l 2,1,2
 295 895 295 895 269 895 c 0,3,4
 204 895 204 895 204 961 c 0,5,6
 204 987 204 987 223 1006 c 2,7,-1
 477 1260 l 2,8,9
 502 1285 502 1285 529 1285 c 0,10,11
 594 1285 594 1285 594 1220 c 2,12,-1
 594 65 l 2,13,14
 594 0 594 0 529 0 c 256,15,16
 464 0 464 0 464 65 c 2,17,-1
 464 1064 l 1,0,-1
EndSplineSet
Validated: 1
EndChar

StartChar: two
Encoding: 50 50 21
Width: 910
Flags: W
HStem: 0 130<311 778.08> 960 21G<162.5 213.5> 1155 130<348.515 577.694>
VStem: 650 130<837.71 1082.8>
LayerCount: 2
Fore
SplineSet
455 1285 m 0,0,1
 591 1285 591 1285 685.5 1190.5 c 128,-1,2
 780 1096 780 1096 780 960 c 0,3,4
 780 866 780 866 721 773 c 2,5,-1
 311 130 l 1,6,-1
 715 130 l 2,7,8
 780 130 780 130 780 65 c 128,-1,9
 780 0 780 0 715 0 c 2,10,-1
 195 0 l 2,11,12
 130 0 130 0 130 65 c 0,13,14
 130 86 130 86 141 103 c 2,15,-1
 617 853 l 2,16,17
 650 905 650 905 650 973 c 128,-1,18
 650 1041 650 1041 593 1098 c 256,19,20
 536 1155 536 1155 455 1155 c 0,21,22
 348 1155 348 1155 251 992 c 0,23,24
 232 960 232 960 195 960 c 0,25,26
 130 960 130 960 130 1025 c 0,27,28
 130 1040 130 1040 136 1052 c 0,29,30
 257 1285 257 1285 455 1285 c 0,0,1
EndSplineSet
Validated: 1
EndChar

StartChar: three
Encoding: 51 51 22
Width: 910
Flags: W
HStem: 0 130<131.891 578.5> 635 130<261.891 578.359> 1155 130<131.891 578.359>
VStem: 650 130<200.625 563.375 834.467 1082.5>
LayerCount: 2
Fore
SplineSet
454 635 m 2,0,-1
 324 635 l 2,1,2
 260 635 260 635 260 700 c 256,3,4
 260 765 260 765 324 765 c 2,5,-1
 454 765 l 2,6,7
 538 765 538 765 594 822 c 128,-1,8
 650 879 650 879 650 960 c 256,9,10
 650 1041 650 1041 593 1098 c 128,-1,11
 536 1155 536 1155 454 1155 c 2,12,-1
 194 1155 l 2,13,14
 130 1155 130 1155 130 1220 c 256,15,16
 130 1285 130 1285 194 1285 c 2,17,-1
 454 1285 l 2,18,19
 590 1285 590 1285 685 1190 c 128,-1,20
 780 1095 780 1095 780 946.5 c 128,-1,21
 780 798 780 798 650 700 c 1,22,23
 780 601 780 601 780 440 c 2,24,-1
 780 325 l 2,25,26
 780 191 780 191 684 95.5 c 128,-1,27
 588 0 588 0 454 0 c 2,28,-1
 194 0 l 2,29,30
 130 0 130 0 130 65 c 128,-1,31
 130 130 130 130 194 130 c 2,32,-1
 454 130 l 2,33,34
 538 130 538 130 594 187 c 128,-1,35
 650 244 650 244 650 325 c 2,36,-1
 650 440 l 2,37,38
 650 521 650 521 593 578 c 128,-1,39
 536 635 536 635 454 635 c 2,0,-1
EndSplineSet
Validated: 1
EndChar

StartChar: four
Encoding: 52 52 23
Width: 910
Flags: W
HStem: 0 21G<552.5 617.5> 260 130<216 520 650 843.08> 1265 20G<365.5 422.5>
VStem: 520 130<1.94971 261 390 634.08>
LayerCount: 2
Fore
SplineSet
65 325 m 0,0,1
 65 336 65 336 67 343 c 2,2,-1
 327 1238 l 2,3,4
 341 1285 341 1285 390 1285 c 0,5,6
 455 1285 455 1285 455 1220 c 0,7,8
 455 1211 455 1211 452 1201 c 2,9,-1
 216 390 l 1,10,-1
 520 390 l 1,11,-1
 520 571 l 2,12,13
 520 636 520 636 585 636 c 256,14,15
 650 636 650 636 650 571 c 2,16,-1
 650 390 l 1,17,-1
 780 390 l 2,18,19
 845 390 845 390 845 325 c 256,20,21
 845 260 845 260 780 260 c 2,22,-1
 650 261 l 1,23,-1
 650 66 l 2,24,25
 650 0 650 0 585 0 c 256,26,27
 520 0 520 0 520 66 c 2,28,-1
 520 261 l 1,29,-1
 130 260 l 2,30,31
 65 260 65 260 65 325 c 0,0,1
EndSplineSet
Validated: 1
EndChar

StartChar: five
Encoding: 53 53 24
Width: 910
Flags: W
HStem: 0 130<131.92 579.359> 635 130<260 578.375> 1155 130<260 713.08>
VStem: 130 130<765 1155> 650 130<200.625 563.375>
LayerCount: 2
Fore
SplineSet
130 700 m 2,0,-1
 130 1220 l 2,1,2
 130 1285 130 1285 195 1285 c 2,3,-1
 650 1285 l 2,4,5
 715 1285 715 1285 715 1220 c 256,6,7
 715 1155 715 1155 650 1155 c 2,8,-1
 260 1155 l 1,9,-1
 260 765 l 1,10,-1
 455 765 l 2,11,12
 590 765 590 765 685 670 c 256,13,14
 780 575 780 575 780 440 c 2,15,-1
 780 325 l 2,16,17
 780 191 780 191 684.5 95.5 c 128,-1,18
 589 0 589 0 455 0 c 2,19,-1
 195 0 l 2,20,21
 130 0 130 0 130 65 c 128,-1,22
 130 130 130 130 195 130 c 2,23,-1
 455 130 l 2,24,25
 537 130 537 130 594 187 c 0,26,27
 650 244 650 244 650 325 c 2,28,-1
 650 440 l 2,29,30
 650 521 650 521 593 578 c 256,31,32
 536 635 536 635 455 635 c 2,33,-1
 195 635 l 2,34,35
 130 635 130 635 130 700 c 2,0,-1
EndSplineSet
Validated: 1
EndChar

StartChar: six
Encoding: 54 54 25
Width: 910
Flags: W
HStem: 0 130<330.508 577.382> 635 130<265 579.363> 1164 121<511.421 647.938>
VStem: 130 130<202.455 635 765 894.604> 650 130<202.37 564.797>
LayerCount: 2
Fore
SplineSet
585 1285 m 0,0,1
 650 1285 650 1285 650 1220 c 0,2,3
 650 1172 650 1172 617 1164 c 0,4,5
 476 1129 476 1129 365 991 c 0,6,7
 278 883 278 883 265 765 c 1,8,-1
 455 765 l 2,9,10
 595 765 595 765 687 671 c 0,11,12
 780 576 780 576 780 440 c 2,13,-1
 780 325 l 2,14,15
 780 188 780 188 685 94 c 128,-1,16
 590 0 590 0 455 0 c 256,17,18
 320 0 320 0 225 94.5 c 128,-1,19
 130 189 130 189 130 323 c 2,20,-1
 130 700 l 2,21,22
 130 920 130 920 277 1087 c 0,23,24
 391 1216 391 1216 526 1270 c 0,25,26
 563 1285 563 1285 585 1285 c 0,0,1
260 635 m 1,27,-1
 260 325 l 2,28,29
 260 244 260 244 316.5 187 c 128,-1,30
 373 130 373 130 454.5 130 c 128,-1,31
 536 130 536 130 593 187.5 c 128,-1,32
 650 245 650 245 650 325 c 2,33,-1
 650 440 l 2,34,35
 650 524 650 524 593 579 c 0,36,37
 535 635 535 635 455 635 c 2,38,-1
 260 635 l 1,27,-1
EndSplineSet
Validated: 1
EndChar

StartChar: seven
Encoding: 55 55 26
Width: 910
Flags: W
HStem: 0 21G<423 481> 570 130<391.92 503 666 778.08> 1155 130<131.92 633>
VStem: 390 390<571.92 698.08> 390 128<2.28516 114.054>
LayerCount: 2
Fore
SplineSet
503 570 m 5,0,-1
 455 570 l 6,1,2
 390 570 390 570 390 635 c 132,-1,3
 390 700 390 700 455 700 c 6,4,-1
 532 700 l 5,5,-1
 633 1155 l 5,6,-1
 195 1155 l 6,7,8
 130 1155 130 1155 130 1220 c 260,9,10
 130 1285 130 1285 195 1285 c 6,11,-1
 715 1285 l 6,12,13
 780 1285 780 1285 780 1222 c 4,14,15
 780 1215 780 1215 778 1206 c 6,16,-1
 666 700 l 5,17,-1
 715 700 l 6,18,19
 780 700 780 700 780 635 c 132,-1,20
 780 570 780 570 715 570 c 6,21,-1
 636 570 l 5,22,-1
 518 51 l 6,23,24
 506 0 506 0 456 0 c 4,25,26
 390 0 390 0 390 65 c 4,27,28
 390 76 390 76 391 80 c 6,29,-1
 503 570 l 5,0,-1
EndSplineSet
Validated: 1
EndChar

StartChar: eight
Encoding: 56 56 27
Width: 910
Flags: W
HStem: 0 130<331.939 579.923> 635 130<330.641 578.359> 1155 130<328.336 578.43>
VStem: 130 130<200.625 564.809 833.957 1084.31> 650 130<200.972 563.375 834.374 1082.46>
LayerCount: 2
Fore
SplineSet
780 470 m 0,0,1
 781 379 781 379 780 319 c 0,2,3
 778 152 778 152 703 92 c 0,4,5
 590 0 590 0 454.5 0 c 128,-1,6
 319 0 319 0 224.5 95.5 c 128,-1,7
 130 191 130 191 130 325 c 2,8,-1
 130 440 l 2,9,10
 130 601 130 601 260 700 c 1,11,12
 130 801 130 801 130 953 c 0,13,14
 130 1095 130 1095 224 1190 c 128,-1,15
 318 1285 318 1285 454 1285 c 0,16,17
 587 1285 587 1285 686 1190 c 0,18,19
 780 1100 780 1100 780 954 c 0,20,21
 780 802 780 802 650 700 c 1,22,23
 778 629 778 629 780 470 c 0,0,1
455 765 m 256,24,25
 537 765 537 765 594 822 c 0,26,27
 650 876 650 876 650 954 c 0,28,29
 650 1038 650 1038 593 1098 c 0,30,31
 536 1155 536 1155 454 1155 c 0,32,33
 370 1155 370 1155 316 1099 c 0,34,35
 260 1038 260 1038 260 953 c 0,36,37
 260 876 260 876 316 822 c 0,38,39
 373 765 373 765 455 765 c 256,24,25
455 130 m 256,40,41
 537 130 537 130 594 187 c 0,42,43
 650 244 650 244 650 325 c 2,44,-1
 650 440 l 2,45,46
 650 521 650 521 593 578 c 256,47,48
 536 635 536 635 454 635 c 0,49,50
 370 635 370 635 316 579 c 0,51,52
 260 521 260 521 260 440 c 2,53,-1
 260 325 l 2,54,55
 260 244 260 244 316.5 187 c 128,-1,56
 373 130 373 130 455 130 c 256,40,41
EndSplineSet
Validated: 33
EndChar

StartChar: nine
Encoding: 57 57 28
Width: 910
Flags: W
HStem: 0 121<280.629 392.92> 520 116<329.375 645> 1155 130<331.865 579.062>
VStem: 130 130<706.432 1083.38> 650 130<385.059 520 636 1083.16>
LayerCount: 2
Fore
SplineSet
472 63 m 0,0,1
 373 0 373 0 336.5 0 c 128,-1,2
 300 0 300 0 280 20 c 256,3,4
 260 40 260 40 260 75 c 128,-1,5
 260 110 260 110 293 121 c 0,6,7
 364 145 364 145 411 176 c 0,8,9
 619 310 619 310 645 520 c 1,10,-1
 455 520 l 2,11,12
 319 520 319 520 224.5 615.5 c 128,-1,13
 130 711 130 711 130 845 c 2,14,-1
 130 960 l 2,15,16
 130 1095 130 1095 224 1190 c 128,-1,17
 318 1285 318 1285 454 1285 c 128,-1,18
 590 1285 590 1285 685 1191 c 128,-1,19
 780 1097 780 1097 780 962 c 2,20,-1
 780 585 l 2,21,22
 780 259 780 259 472 63 c 0,0,1
650 636 m 1,23,-1
 650 960 l 2,24,25
 650 1041 650 1041 593 1098 c 256,26,27
 536 1155 536 1155 455 1155 c 256,28,29
 374 1155 374 1155 317 1098 c 256,30,31
 260 1041 260 1041 260 960 c 2,32,-1
 260 830 l 2,33,34
 260 749 260 749 316 692.5 c 128,-1,35
 372 636 372 636 455 636 c 2,36,-1
 650 636 l 1,23,-1
EndSplineSet
Validated: 1
EndChar

StartChar: colon
Encoding: 58 58 29
Width: 477
Flags: W
HStem: 116 170<160.724 317.276> 623 169<160.645 315.355>
VStem: 154 170<122.724 279.276 630.403 784.685>
LayerCount: 2
Fore
SplineSet
240 792 m 0,0,1
 322 791 322 791 322 709 c 0,2,3
 322 708 322 708 322 707 c 0,4,5
 322 623 322 623 238 623 c 1,6,7
 154 624 154 624 154 707 c 0,8,9
 154 708 154 708 154 709 c 0,10,11
 154 792 154 792 238 792 c 2,12,13
 238 792 238 792 240 792 c 0,0,1
324 201 m 128,-1,15
 324 116 324 116 239 116 c 128,-1,16
 154 116 154 116 154 201 c 128,-1,17
 154 286 154 286 239 286 c 128,-1,14
 324 286 324 286 324 201 c 128,-1,15
EndSplineSet
Validated: 5
EndChar

StartChar: semicolon
Encoding: 59 59 30
Width: 477
Flags: W
HStem: 273 169<216.645 371.355>
VStem: 98 194<-118.25 0.390625> 210 168<280.049 435.435>
LayerCount: 2
Fore
SplineSet
228 131 m 0,0,1
 292 131 292 131 292 67 c 0,2,3
 292 57 292 57 226 -209 c 0,4,5
 214 -258 214 -258 162 -258 c 0,6,7
 98 -258 98 -258 98 -194 c 0,8,9
 98 -154 98 -154 164 82 c 0,10,11
 178 131 178 131 228 131 c 0,0,1
378 361 m 0,12,13
 378 359 378 359 378 357 c 0,14,15
 378 273 378 273 294 273 c 1,16,17
 210 274 210 274 210 357 c 0,18,19
 210 358 210 358 210 359 c 0,20,21
 210 442 210 442 294 442 c 2,22,23
 294 442 294 442 296 442 c 0,24,25
 378 441 378 441 378 361 c 0,12,13
EndSplineSet
Validated: 5
EndChar

StartChar: less
Encoding: 60 60 31
Width: 910
Flags: W
HStem: 131 634
VStem: 132 642
LayerCount: 2
Fore
SplineSet
712 131 m 0,0,1
 697 131 697 131 684 138 c 2,2,-1
 168 398 l 2,3,4
 158 402 158 402 151 410 c 0,5,6
 132 432 132 432 132 456 c 0,7,8
 132 481 132 481 152 502 c 0,9,10
 160 510 160 510 169 514 c 2,11,-1
 681 758 l 2,12,13
 694 764 694 764 708 765 c 0,14,15
 734 767 734 767 755 746 c 0,16,17
 774 727 774 727 774 700 c 0,18,19
 774 672 774 672 755 654 c 0,20,21
 746 646 746 646 737 641 c 2,22,-1
 345 454 l 1,23,-1
 742 254 l 2,24,25
 751 249 751 249 759 242 c 0,26,27
 778 225 778 225 778 196 c 0,28,29
 778 169 778 169 759 150 c 128,-1,30
 740 131 740 131 712 131 c 0,0,1
EndSplineSet
Validated: 1
EndChar

StartChar: equal
Encoding: 61 61 32
Width: 910
Flags: W
HStem: 194 132<127.25 776.68> 568 132<133.25 782.68>
VStem: 131 654
LayerCount: 2
Fore
SplineSet
719 700 m 2,0,1
 785 700 785 700 785 634 c 128,-1,2
 785 568 785 568 719 568 c 2,3,-1
 195 568 l 2,4,5
 131 568 131 568 131 634 c 0,6,7
 131 635 131 635 131 636 c 128,-1,8
 131 637 131 637 131 638 c 128,-1,9
 131 639 131 639 131 640 c 0,10,11
 131 700 131 700 195 700 c 2,12,-1
 719 700 l 2,0,1
713 326 m 2,13,14
 779 326 779 326 779 260 c 128,-1,15
 779 194 779 194 713 194 c 2,16,-1
 189 194 l 2,17,18
 125 194 125 194 125 260 c 0,19,20
 125 261 125 261 125 262 c 128,-1,21
 125 263 125 263 125 264 c 128,-1,22
 125 265 125 265 125 266 c 0,23,24
 125 326 125 326 189 326 c 2,25,-1
 713 326 l 2,13,14
EndSplineSet
Validated: 1
EndChar

StartChar: greater
Encoding: 62 62 33
Width: 910
Flags: W
HStem: 131 634<174 213>
VStem: 132 646
LayerCount: 2
Fore
SplineSet
198 131 m 0,0,1
 170 131 170 131 151 150 c 128,-1,2
 132 169 132 169 132 196 c 128,-1,3
 132 223 132 223 151 242 c 0,4,5
 158 249 158 249 168 254 c 2,6,-1
 565 454 l 1,7,-1
 173 641 l 2,8,9
 163 646 163 646 155 654 c 0,10,11
 136 673 136 673 136 700 c 128,-1,12
 136 727 136 727 155 746 c 128,-1,13
 174 765 174 765 202 765 c 0,14,15
 216 765 216 765 229 758 c 2,16,-1
 741 514 l 2,17,18
 751 510 751 510 758 502 c 0,19,20
 778 483 778 483 778 456 c 128,-1,21
 778 429 778 429 759 410 c 0,22,23
 752 402 752 402 742 398 c 2,24,-1
 226 138 l 2,25,26
 213 131 213 131 198 131 c 0,0,1
EndSplineSet
Validated: 1
EndChar

StartChar: question
Encoding: 63 63 34
Width: 905
Flags: W
HStem: -5 161<380.75 532.25> 1101 119<136.445 270.523> 1164 128<260.527 602.32>
VStem: 375 163<0.67981 150.32> 391 129<397.861 666.63> 649 126<914.023 1117.77>
LayerCount: 2
Fore
SplineSet
375 75.5 m 128,-1,1
 375 156 375 156 456.5 156 c 128,-1,2
 538 156 538 156 538 75.5 c 128,-1,3
 538 -5 538 -5 456.5 -5 c 128,-1,0
 375 -5 375 -5 375 75.5 c 128,-1,1
591 1265 m 0,4,5
 775 1184 775 1184 775 1008 c 0,6,7
 775 948 775 948 759 905.5 c 128,-1,8
 743 863 743 863 693 818 c 1,9,-1
 532 630 l 1,10,11
 516 605 516 605 520 588 c 1,12,-1
 520 459 l 2,13,14
 520 396 520 396 455.5 396 c 128,-1,15
 391 396 391 396 391 459 c 2,16,-1
 391 588 l 2,17,18
 391 667 391 667 437 720 c 2,19,-1
 595 905 l 1,20,21
 649 952 649 952 649 1023 c 0,22,23
 649 1029 649 1029 649 1035 c 0,24,25
 641 1103 641 1103 582 1133.5 c 128,-1,26
 523 1164 523 1164 455 1164 c 128,-1,27
 387 1164 387 1164 333 1145 c 128,-1,28
 279 1126 279 1126 244.5 1113.5 c 128,-1,29
 210 1101 210 1101 186.5 1101 c 128,-1,30
 163 1101 163 1101 146.5 1126.5 c 128,-1,31
 130 1152 130 1152 130 1176 c 128,-1,32
 130 1200 130 1200 165 1220 c 0,33,34
 257 1264 257 1264 315 1278 c 128,-1,35
 373 1292 373 1292 413 1292 c 2,36,-1
 457 1292 l 2,37,38
 532 1292 532 1292 591 1265 c 0,4,5
EndSplineSet
Validated: 1
EndChar

StartChar: at
Encoding: 64 64 35
Width: 1462
Flags: W
HStem: -400 130<467.009 726.541> 0 131<631.595 834.309 1020.79 1185.65> 765 130<633.47 869> 1154 130<537.919 933.799>
VStem: 130 130<-33.9077 880.483> 469 125<166.219 726.3> 869 126<162.965 765> 1203 130<146.423 883.665>
LayerCount: 2
Fore
SplineSet
869 765 m 1,0,1
 869 765 869 765 751 765 c 0,2,3
 594 765 594 765 594 596 c 2,4,5
 594 596 594 596 594 315 c 0,6,7
 594 131 594 131 736 131 c 0,8,9
 869 131 869 131 869 310 c 2,10,11
 869 310 869 310 869 765 c 1,0,1
632 -400 m 0,12,13
 472 -400 472 -400 323 -280 c 0,14,15
 130 -125 130 -125 130 184 c 2,16,17
 130 184 130 184 130 660 c 0,18,19
 130 968 130 968 353 1144 c 0,20,21
 530 1284 530 1284 746 1284 c 0,22,23
 948 1284 948 1284 1119 1141 c 0,24,25
 1333 962 1333 962 1333 656 c 2,26,27
 1333 656 1333 656 1333 271 c 0,28,29
 1333 141 1333 141 1285 88 c 0,30,31
 1206 0 1206 0 1102 0 c 0,32,33
 1007 0 1007 0 928 85 c 1,34,35
 844 0 844 0 728 0 c 0,36,37
 664 0 664 0 599 37 c 0,38,39
 469 111 469 111 469 279 c 2,40,-1
 469 615 l 2,41,42
 469 742 469 742 547 819 c 0,43,44
 624 895 624 895 766 895 c 2,45,-1
 915 895 l 2,46,47
 995 895 995 895 995 819 c 2,48,-1
 995 298 l 2,49,50
 995 131 995 131 1100 131 c 0,51,52
 1203 131 1203 131 1203 256 c 2,53,-1
 1203 684 l 2,54,55
 1203 891 1203 891 1048 1032 c 0,56,57
 914 1154 914 1154 744 1154 c 0,58,59
 560 1154 560 1154 420 1034 c 0,60,61
 260 897 260 897 260 676 c 2,62,-1
 260 172 l 2,63,64
 260 -33 260 -33 398 -174 c 0,65,66
 492 -270 492 -270 654 -270 c 0,67,68
 729 -270 729 -270 730 -340 c 0,69,70
 730 -400 730 -400 632 -400 c 0,12,13
EndSplineSet
Validated: 1
EndChar

StartChar: A
Encoding: 65 65 36
Width: 1168
Flags: W
HStem: 0 21G<179 220.5 951.5 989.5> 390 130<415 756> 1264 20G<563.5 610.5>
VStem: 912 126<2.24902 47>
LayerCount: 2
Fore
SplineSet
1031 90 m 2,0,1
 1038 69 1038 69 1038 53 c 0,2,3
 1038 36 1038 36 1021 18 c 256,4,5
 1004 0 1004 0 975 0 c 0,6,7
 928 0 928 0 912 47 c 2,8,-1
 799 390 l 1,9,-1
 372 390 l 1,10,-1
 257 47 l 2,11,12
 241 0 241 0 200 0 c 0,13,14
 158 0 158 0 141 30 c 256,15,16
 124 60 124 60 133 88 c 2,17,-1
 526 1241 l 2,18,19
 540 1284 540 1284 587 1284 c 256,20,21
 634 1284 634 1284 646 1245 c 2,22,-1
 1031 90 l 2,0,1
756 520 m 1,23,-1
 588 1024 l 1,24,-1
 415 520 l 1,25,-1
 756 520 l 1,23,-1
EndSplineSet
Validated: 1
EndChar

StartChar: B
Encoding: 66 66 37
Width: 1041
Flags: W
HStem: 0 131<261 697.886> 633 131<261 672.876> 1154 130<261 671.854>
VStem: 130 131<131 633 764 1154> 715 130<805.865 1111.78> 779 132<221.297 542.949>
LayerCount: 2
Fore
SplineSet
911 414 m 0,0,1
 911 253 911 253 821 126.5 c 128,-1,2
 731 0 731 0 584 0 c 2,3,-1
 194 0 l 2,4,5
 159 0 159 0 144.5 15 c 128,-1,6
 130 30 130 30 130 65 c 2,7,-1
 130 1218 l 2,8,9
 130 1242 130 1242 149.5 1263 c 128,-1,10
 169 1284 169 1284 194 1284 c 2,11,-1
 584 1284 l 2,12,13
 707 1284 707 1284 776 1181.5 c 128,-1,14
 845 1079 845 1079 845 951 c 128,-1,15
 845 823 845 823 752 725 c 1,16,17
 911 595 911 595 911 414 c 0,0,1
684 827 m 128,-1,19
 715 890 715 890 715 958.5 c 128,-1,20
 715 1027 715 1027 684 1090.5 c 128,-1,21
 653 1154 653 1154 584 1154 c 2,22,-1
 261 1154 l 1,23,-1
 261 764 l 1,24,-1
 584 764 l 2,25,18
 653 764 653 764 684 827 c 128,-1,19
779 390 m 0,26,27
 779 469 779 469 729.5 551 c 128,-1,28
 680 633 680 633 584 633 c 2,29,-1
 261 633 l 1,30,-1
 261 131 l 1,31,-1
 584 131 l 2,32,33
 680 131 680 131 729.5 213 c 128,-1,34
 779 295 779 295 779 390 c 0,26,27
EndSplineSet
Validated: 1
EndChar

StartChar: C
Encoding: 67 67 38
Width: 909
Flags: W
HStem: 0 131<325.351 777.109> 1154 130<329.191 777.109>
VStem: 130 131<196.267 1087.19>
LayerCount: 2
Fore
SplineSet
715 131 m 2,0,1
 779 131 779 131 779 65.5 c 128,-1,2
 779 0 779 0 715 0 c 2,3,-1
 456 0 l 2,4,5
 300 0 300 0 215 97.5 c 128,-1,6
 130 195 130 195 130 326 c 2,7,-1
 130 959 l 2,8,9
 130 1039 130 1039 162.5 1106.5 c 128,-1,10
 195 1174 195 1174 245 1214 c 0,11,12
 334 1284 334 1284 456 1284 c 2,13,-1
 715 1284 l 2,14,15
 779 1284 779 1284 779 1219 c 128,-1,16
 779 1154 779 1154 715 1154 c 2,17,-1
 456 1154 l 2,18,19
 377 1154 377 1154 319 1101 c 128,-1,20
 261 1048 261 1048 261 959 c 2,21,-1
 261 326 l 2,22,23
 261 241 261 241 313 186 c 128,-1,24
 365 131 365 131 456 131 c 2,25,-1
 715 131 l 2,0,1
EndSplineSet
Validated: 1
EndChar

StartChar: D
Encoding: 68 68 39
Width: 1039
Flags: W
HStem: 1 130<261 713.932> 1155 130<261 708.559>
VStem: 130 131<131 1155> 779 130<195.769 1084.89>
LayerCount: 2
Fore
SplineSet
909 326 m 2,0,1
 909 194 909 194 824 97.5 c 128,-1,2
 739 1 739 1 584 1 c 2,3,-1
 194 1 l 2,4,5
 163 1 163 1 146.5 20.5 c 128,-1,6
 130 40 130 40 130 65 c 2,7,-1
 130 1219 l 2,8,9
 130 1248 130 1248 138 1256 c 0,10,11
 169 1285 169 1285 194 1285 c 2,12,-1
 584 1285 l 2,13,14
 708 1285 708 1285 795 1215 c 0,15,16
 909 1123 909 1123 909 960 c 2,17,-1
 909 326 l 2,0,1
779 326 m 2,18,-1
 779 960 l 2,19,20
 779 1048 779 1048 720 1102 c 0,21,22
 660 1157 660 1157 588 1157 c 2,23,-1
 261 1155 l 1,24,-1
 261 131 l 1,25,-1
 584 131 l 2,26,27
 674 131 674 131 726.5 186.5 c 128,-1,28
 779 242 779 242 779 326 c 2,18,-1
EndSplineSet
Validated: 1
EndChar

StartChar: E
Encoding: 69 69 40
Width: 909
Flags: W
HStem: 0 131<261 776.961> 634 131<261 647.75> 1155 130<261 777.109>
VStem: 130 131<131 634 765 1155>
LayerCount: 2
Fore
SplineSet
130 1219 m 2,0,1
 130 1285 130 1285 195 1285 c 2,2,-1
 715 1285 l 2,3,4
 779 1285 779 1285 779 1220 c 128,-1,5
 779 1155 779 1155 715 1155 c 2,6,-1
 261 1155 l 1,7,-1
 261 765 l 1,8,-1
 584 765 l 2,9,10
 650 765 650 765 650 699.5 c 128,-1,11
 650 634 650 634 586 634 c 2,12,-1
 261 634 l 1,13,-1
 261 131 l 1,14,-1
 715 131 l 2,15,16
 779 131 779 131 779 65.5 c 128,-1,17
 779 0 779 0 721 0 c 2,18,-1
 195 0 l 2,19,20
 130 0 130 0 130 65 c 2,21,-1
 130 1219 l 2,0,1
EndSplineSet
Validated: 1
EndChar

StartChar: F
Encoding: 70 70 41
Width: 909
Flags: W
HStem: 0 21G<162.75 228.25> 634 131<261 777.109> 1155 130<261 777.109>
VStem: 130 131<1.92017 634 765 1155>
LayerCount: 2
Fore
SplineSet
715 765 m 2,0,1
 779 765 779 765 779 699.5 c 128,-1,2
 779 634 779 634 715 634 c 2,3,-1
 261 634 l 1,4,-1
 261 65 l 2,5,6
 261 0 261 0 195.5 0 c 128,-1,7
 130 0 130 0 130 65 c 2,8,-1
 130 1219 l 2,9,10
 130 1258 130 1258 144.5 1271.5 c 128,-1,11
 159 1285 159 1285 195 1285 c 2,12,-1
 715 1285 l 2,13,14
 779 1285 779 1285 779 1220 c 128,-1,15
 779 1155 779 1155 715 1155 c 2,16,-1
 261 1155 l 1,17,-1
 261 765 l 1,18,-1
 715 765 l 2,0,1
EndSplineSet
Validated: 1
EndChar

StartChar: G
Encoding: 71 71 42
Width: 1042
Flags: W
HStem: 0 131<323.266 781> 634 131<576.891 781> 1155 130<329.172 910.08>
VStem: 132 131<192.298 1087.29> 575 337<635.772 761.44> 781 131<131 634>
LayerCount: 2
Fore
SplineSet
912 65 m 2,0,1
 912 42 912 42 894.5 21 c 128,-1,2
 877 0 877 0 847 0 c 2,3,-1
 458 0 l 2,4,5
 378 0 378 0 310.5 32 c 128,-1,6
 243 64 243 64 210 101 c 0,7,8
 132 192 132 192 132 326 c 2,9,-1
 130 960 l 2,10,11
 129 1125 129 1125 259 1223 c 1,12,13
 349 1285 349 1285 458 1285 c 2,14,-1
 847 1285 l 2,15,16
 912 1285 912 1285 912 1220 c 128,-1,17
 912 1155 912 1155 847 1155 c 2,18,-1
 458 1155 l 2,19,20
 383 1155 383 1155 333 1114 c 0,21,22
 263 1057 263 1057 263 960 c 2,23,-1
 263 326 l 2,24,25
 263 244 263 244 311 187.5 c 128,-1,26
 359 131 359 131 458 131 c 2,27,-1
 781 131 l 1,28,-1
 781 634 l 1,29,-1
 639 634 l 2,30,31
 575 634 575 634 575 694 c 2,32,-1
 575 701 l 2,33,34
 575 765 575 765 639 765 c 2,35,-1
 847 765 l 2,36,37
 872 765 872 765 892 745 c 128,-1,38
 912 725 912 725 912 701 c 2,39,-1
 912 65 l 2,0,1
EndSplineSet
Validated: 33
EndChar

StartChar: H
Encoding: 72 72 43
Width: 1040
Flags: W
HStem: 0 21G<162.75 228.25 811.75 877.25> 634 131<261 779> 1265 20G<162.75 228.25 811.75 877.25>
VStem: 130 131<1.92017 634 765 1283.05> 779 131<1.92017 634 765 1283.05>
LayerCount: 2
Fore
SplineSet
910 65 m 2,0,1
 910 0 910 0 844.5 0 c 128,-1,2
 779 0 779 0 779 65 c 2,3,-1
 779 634 l 1,4,-1
 261 634 l 1,5,-1
 261 65 l 2,6,7
 261 0 261 0 195.5 0 c 128,-1,8
 130 0 130 0 130 65 c 2,9,-1
 130 1219 l 2,10,11
 130 1285 130 1285 195.5 1285 c 128,-1,12
 261 1285 261 1285 261 1219 c 2,13,-1
 261 765 l 1,14,-1
 779 765 l 1,15,-1
 779 1219 l 2,16,17
 779 1285 779 1285 844.5 1285 c 128,-1,18
 910 1285 910 1285 910 1219 c 2,19,-1
 910 65 l 2,0,1
EndSplineSet
Validated: 1
EndChar

StartChar: I
Encoding: 73 73 44
Width: 391
Flags: W
HStem: 0 21G<162.75 228.25> 1265 20G<162.75 228.25>
VStem: 130 131<1.92017 1283.05>
LayerCount: 2
Fore
SplineSet
261 65 m 2,0,1
 261 0 261 0 195.5 0 c 128,-1,2
 130 0 130 0 130 65 c 2,3,-1
 130 1219 l 2,4,5
 130 1285 130 1285 195.5 1285 c 128,-1,6
 261 1285 261 1285 261 1219 c 2,7,-1
 261 65 l 2,0,1
EndSplineSet
Validated: 1
EndChar

StartChar: J
Encoding: 74 74 45
Width: 778
Flags: W
VStem: 518 130<249.424 1277.86>
LayerCount: 2
Fore
SplineSet
648 386 m 1,0,1
 642 252 642 252 592 190 c 0,2,3
 545 131 545 131 492 84 c 0,4,5
 443 40 443 40 360 20 c 0,6,7
 269 -2 269 -2 190 -2 c 0,8,9
 132 -2 132 -2 130 62 c 0,10,11
 129 97 129 97 148 110 c 0,12,13
 169 124 169 124 196 127 c 0,14,15
 348 144 348 144 402 181 c 0,16,17
 454 216 454 216 482 260 c 0,18,19
 510 303 510 303 518 386 c 1,20,-1
 518 1219 l 2,21,22
 518 1280 518 1280 583 1280 c 128,-1,23
 648 1280 648 1280 648 1212 c 2,24,-1
 648 386 l 1,0,1
EndSplineSet
Validated: 1
EndChar

StartChar: K
Encoding: 75 75 46
Width: 1043
Flags: W
HStem: 0 21G<162.75 228.25 825.5 878.5> 1265 20G<162.75 228.25>
VStem: 130 131<1.92017 545 732 1283.05>
LayerCount: 2
Fore
SplineSet
911 65 m 0,0,1
 911 0 911 0 846 0 c 0,2,3
 805 0 805 0 785 33 c 2,4,-1
 399 681 l 1,5,-1
 261 545 l 1,6,-1
 261 65 l 2,7,8
 261 0 261 0 195.5 0 c 128,-1,9
 130 0 130 0 130 65 c 2,10,-1
 130 1219 l 2,11,12
 130 1285 130 1285 195.5 1285 c 128,-1,13
 261 1285 261 1285 261 1219 c 2,14,-1
 261 732 l 1,15,-1
 801 1268 l 2,16,17
 818 1285 818 1285 856 1284 c 0,18,19
 893 1283 893 1283 908 1240 c 0,20,21
 913 1226 913 1226 913 1207.5 c 128,-1,22
 913 1189 913 1189 896 1172 c 2,23,-1
 495 775 l 1,24,-1
 900 104 l 2,25,26
 911 86 911 86 911 65 c 0,0,1
EndSplineSet
Validated: 1
EndChar

StartChar: L
Encoding: 76 76 47
Width: 909
Flags: W
HStem: 0 131<261 777.109> 1265 20G<162.75 228.25>
VStem: 130 131<131 1283.05>
LayerCount: 2
Fore
SplineSet
715 131 m 2,0,1
 779 131 779 131 779 65.5 c 128,-1,2
 779 0 779 0 715 0 c 2,3,-1
 195 0 l 2,4,5
 168 0 168 0 149 19 c 128,-1,6
 130 38 130 38 130 65 c 2,7,-1
 130 1219 l 2,8,9
 130 1285 130 1285 195.5 1285 c 128,-1,10
 261 1285 261 1285 261 1219 c 2,11,-1
 261 131 l 1,12,-1
 715 131 l 2,0,1
EndSplineSet
Validated: 1
EndChar

StartChar: M
Encoding: 77 77 48
Width: 1170
Flags: W
HStem: 0 21G<942.5 1007.5> 1265 20G<162 211>
VStem: 130 130<3.86108 1024> 910 130<1.92017 1024>
LayerCount: 2
Fore
SplineSet
1040 65 m 2,0,1
 1040 0 1040 0 975 0 c 128,-1,2
 910 0 910 0 910 65 c 2,3,-1
 910 1024 l 1,4,-1
 638 616 l 2,5,6
 617 585 617 585 583 585 c 0,7,8
 547 585 547 585 529 612 c 2,9,-1
 260 1024 l 1,10,-1
 260 65 l 2,11,12
 260 2 260 2 195 2 c 128,-1,13
 130 2 130 2 130 65 c 2,14,-1
 130 1219 l 2,15,16
 130 1285 130 1285 194 1285 c 0,17,18
 228 1285 228 1285 249 1254 c 2,19,-1
 584 755 l 1,20,-1
 921 1260 l 2,21,22
 938 1286 938 1286 974 1285 c 0,23,24
 1040 1282 1040 1282 1040 1219 c 2,25,-1
 1040 65 l 2,0,1
EndSplineSet
Validated: 1
EndChar

StartChar: N
Encoding: 78 78 49
Width: 1040
Flags: W
HStem: 1264 20G<159 209 812 878>
VStem: 130 131<-3.07983 961> 780 130<307 1282.11>
LayerCount: 2
Fore
SplineSet
910 1218 m 2,0,-1
 908 87 l 2,1,2
 908 54 908 54 900 25 c 0,3,4
 892 -5 892 -5 848 -5 c 128,-1,5
 804 -5 804 -5 787 34 c 1,6,-1
 261 961 l 1,7,-1
 261 60 l 2,8,9
 261 -5 261 -5 195.5 -5 c 128,-1,10
 130 -5 130 -5 130 60 c 2,11,-1
 130 1214 l 2,12,13
 130 1284 130 1284 188 1284 c 0,14,15
 230 1284 230 1284 260 1234 c 2,16,-1
 781 307 l 1,17,-1
 780 1218 l 2,18,19
 780 1220 780 1220 780 1220 c 2,20,21
 779 1284 779 1284 845 1284 c 128,-1,22
 911 1284 911 1284 910 1220 c 0,23,24
 910 1219 910 1219 910 1218 c 2,0,-1
EndSplineSet
Validated: 33
EndChar

StartChar: O
Encoding: 79 79 50
Width: 1040
Flags: W
HStem: 0 130<367.999 665.687> 1151 130<370.375 661.94>
VStem: 120 129<252.427 1037.25> 786 127<249.483 1034.71>
LayerCount: 2
Fore
SplineSet
249 386 m 2,0,1
 249 284 249 284 337 198 c 1,2,3
 414 130 414 130 508 130 c 0,4,5
 619 130 619 130 689 192 c 0,6,7
 786 275 786 275 786 386 c 2,8,-1
 786 893 l 2,9,10
 786 1015 786 1015 694 1084 c 0,11,12
 611 1151 611 1151 508 1151 c 0,13,14
 421 1151 421 1151 337 1083 c 1,15,16
 249 1017 249 1017 249 893 c 2,17,-1
 249 386 l 2,0,1
120 893 m 2,18,19
 120 1045 120 1045 235 1166 c 1,20,21
 350 1280 350 1280 518 1281 c 0,22,23
 677 1281 677 1281 792 1167 c 0,24,25
 913 1048 913 1048 913 893 c 2,26,-1
 913 386 l 2,27,28
 913 221 913 221 793 112 c 1,29,30
 678 0 678 0 512 0 c 0,31,32
 355 0 355 0 239 112 c 0,33,34
 120 230 120 230 120 386 c 2,35,-1
 120 893 l 2,18,19
EndSplineSet
Validated: 1
EndChar

StartChar: P
Encoding: 80 80 51
Width: 1040
Flags: W
HStem: 0 21G<162.75 228.25> 521 113<261 664.442> 1155 130<261 664.442>
VStem: 130 131<1.92017 521 634 1155> 779 131<749.94 1040.5>
LayerCount: 2
Fore
SplineSet
795 1170.5 m 128,-1,1
 910 1056 910 1056 910 895 c 128,-1,2
 910 734 910 734 795 627.5 c 128,-1,3
 680 521 680 521 520 521 c 2,4,-1
 261 521 l 1,5,-1
 261 65 l 2,6,7
 261 0 261 0 195.5 0 c 128,-1,8
 130 0 130 0 130 65 c 2,9,-1
 130 1215 l 2,10,11
 130 1248 130 1248 148.5 1266.5 c 128,-1,12
 167 1285 167 1285 194 1285 c 2,13,-1
 520 1285 l 2,14,0
 680 1285 680 1285 795 1170.5 c 128,-1,1
702.5 710.5 m 128,-1,16
 779 787 779 787 779 894.5 c 128,-1,17
 779 1002 779 1002 702.5 1078.5 c 128,-1,18
 626 1155 626 1155 520 1155 c 2,19,-1
 261 1155 l 1,20,-1
 261 634 l 1,21,-1
 520 634 l 2,22,15
 626 634 626 634 702.5 710.5 c 128,-1,16
EndSplineSet
Validated: 1
EndChar

StartChar: Q
Encoding: 81 81 52
Width: 1178
Flags: W
HStem: 0 130<367.999 665.687> 1151 130<370.375 661.94>
VStem: 120 129<252.427 1037.25> 786 127<314.094 1034.71>
LayerCount: 2
Fore
SplineSet
120 893 m 2,0,1
 120 1045 120 1045 235 1166 c 1,2,3
 350 1280 350 1280 518 1281 c 0,4,5
 677 1281 677 1281 792 1167 c 0,6,7
 913 1048 913 1048 913 893 c 2,8,-1
 913 386 l 2,9,10
 913 300 913 300 880 229 c 1,11,-1
 1008 129 l 2,12,13
 1041 103 1041 103 1041 79.5 c 128,-1,14
 1041 56 1041 56 1019 28 c 128,-1,15
 997 0 997 0 973 0 c 256,16,17
 949 0 949 0 926 18 c 2,18,-1
 800 118 l 1,19,20
 797 115 797 115 793 112 c 0,21,22
 678 0 678 0 512 0 c 0,23,24
 355 0 355 0 239 112 c 0,25,26
 120 230 120 230 120 386 c 2,27,-1
 120 893 l 2,0,1
249 386 m 2,28,29
 249 284 249 284 337 198 c 1,30,31
 414 130 414 130 508 130 c 0,32,33
 619 130 619 130 689 192 c 0,34,35
 693 196 693 196 698 200 c 1,36,-1
 682 213 l 1,37,-1
 589 283 l 2,38,39
 560 305 560 305 560 330 c 128,-1,40
 560 355 560 355 581.5 381.5 c 128,-1,41
 603 408 603 408 628 408 c 0,42,43
 654 408 654 408 680 387 c 2,44,-1
 774 313 l 1,45,46
 786 348 786 348 786 386 c 2,47,-1
 786 893 l 2,48,49
 786 1015 786 1015 694 1084 c 0,50,51
 611 1151 611 1151 508 1151 c 0,52,53
 421 1151 421 1151 337 1083 c 1,54,55
 249 1017 249 1017 249 893 c 2,56,-1
 249 386 l 2,28,29
EndSplineSet
Validated: 1
EndChar

StartChar: R
Encoding: 82 82 53
Width: 1040
Flags: W
HStem: 0 21G<162.75 228.25 826.75 860.25> 521 113<261 520> 1155 130<261 664.208>
VStem: 130 131<1.92017 521 634 1155> 779 131<753.771 1039.21>
LayerCount: 2
Fore
SplineSet
910 896 m 0,0,1
 910 893 910 893 910 890 c 0,2,3
 910 638 910 638 658 538 c 1,4,-1
 902 100 l 2,5,6
 908 89 908 89 908 71 c 0,7,8
 908 55 908 55 892.5 27.5 c 128,-1,9
 877 0 877 0 843.5 0 c 128,-1,10
 810 0 810 0 787 31 c 1,11,-1
 520 521 l 1,12,-1
 261 521 l 1,13,-1
 261 65 l 2,14,15
 261 0 261 0 195.5 0 c 128,-1,16
 130 0 130 0 130 65 c 2,17,-1
 130 1215 l 2,18,19
 130 1248 130 1248 148.5 1266.5 c 128,-1,20
 167 1285 167 1285 194 1285 c 2,21,-1
 520 1285 l 2,22,23
 680 1285 680 1285 794 1170 c 0,24,25
 910 1054 910 1054 910 896 c 0,0,1
702.5 710.5 m 128,-1,27
 779 787 779 787 779 894.5 c 128,-1,28
 779 1002 779 1002 702.5 1078.5 c 128,-1,29
 626 1155 626 1155 520 1155 c 2,30,-1
 261 1155 l 1,31,-1
 261 634 l 1,32,-1
 520 634 l 2,33,26
 626 634 626 634 702.5 710.5 c 128,-1,27
EndSplineSet
Validated: 1
EndChar

StartChar: S
Encoding: 83 83 54
Width: 1037
Flags: W
HStem: 3 130<262.548 687.944> 75 118<157.329 311.703> 1153 130<349.706 737.766>
VStem: 130 130<847.086 1072.62> 777 130<213.426 437.922>
LayerCount: 2
Fore
SplineSet
907 327 m 0,0,1
 905 166 905 166 785.5 85 c 128,-1,2
 666 4 666 4 519 3 c 0,3,4
 506 3 506 3 456 3 c 0,5,6
 389 3 389 3 167 75 c 0,7,8
 130 87 130 87 130 125 c 128,-1,9
 130 163 130 163 156.5 183.5 c 128,-1,10
 183 204 183 204 213 193 c 0,11,12
 380 133 380 133 519 133 c 2,13,-1
 526 133 l 2,14,15
 616 133 616 133 696.5 182.5 c 128,-1,16
 777 232 777 232 777 321.5 c 128,-1,17
 777 411 777 411 703 467 c 1,18,-1
 260 712 l 1,19,20
 176 773 176 773 153 835 c 128,-1,21
 130 897 130 897 130 959 c 0,22,23
 130 1106 130 1106 240 1194.5 c 128,-1,24
 350 1283 350 1283 515 1283 c 0,25,26
 714 1283 714 1283 841 1209 c 0,27,28
 874 1190 874 1190 874 1150 c 0,29,30
 874 1108 874 1108 838 1096 c 0,31,32
 805 1084 805 1084 785 1091 c 0,33,34
 720 1115 720 1115 681 1132 c 0,35,36
 635 1153 635 1153 526 1153 c 128,-1,37
 417 1153 417 1153 338.5 1102 c 128,-1,38
 260 1051 260 1051 260 963 c 0,39,40
 260 961 260 961 260 959 c 0,41,42
 260 878 260 878 332 821 c 1,43,-1
 769 578 l 1,44,45
 907 485 907 485 907 331 c 0,46,47
 907 329 907 329 907 327 c 0,0,1
EndSplineSet
Validated: 1
EndChar

StartChar: T
Encoding: 84 84 55
Width: 1040
Flags: W
HStem: 0 21G<487.25 551.75> 1155 130<131.891 455 584 908.08>
VStem: 455 129<1.92017 1155>
LayerCount: 2
Fore
SplineSet
845 1285 m 2,0,1
 910 1285 910 1285 910 1220 c 128,-1,2
 910 1155 910 1155 845 1155 c 2,3,-1
 584 1155 l 1,4,-1
 584 65 l 2,5,6
 584 0 584 0 519.5 0 c 128,-1,7
 455 0 455 0 455 65 c 2,8,-1
 455 1155 l 1,9,-1
 194 1155 l 2,10,11
 130 1155 130 1155 130 1220 c 128,-1,12
 130 1285 130 1285 194 1285 c 2,13,-1
 845 1285 l 2,0,1
EndSplineSet
Validated: 1
EndChar

StartChar: U
Encoding: 85 85 56
Width: 1040
Flags: W
HStem: 0 131<373.84 664.571> 1265 20G<162.75 228.25 811.75 877.25>
VStem: 130 131<244.941 1283.05> 779 131<244.941 1283.05>
LayerCount: 2
Fore
SplineSet
910 390 m 2,0,1
 910 229 910 229 795 114.5 c 128,-1,2
 680 0 680 0 519 0 c 128,-1,3
 358 0 358 0 244 114.5 c 128,-1,4
 130 229 130 229 130 390 c 2,5,-1
 130 1219 l 2,6,7
 130 1285 130 1285 195.5 1285 c 128,-1,8
 261 1285 261 1285 261 1219 c 2,9,-1
 261 390 l 2,10,11
 261 283 261 283 336.5 207 c 128,-1,12
 412 131 412 131 519 131 c 128,-1,13
 626 131 626 131 702.5 207 c 128,-1,14
 779 283 779 283 779 390 c 2,15,-1
 779 1219 l 2,16,17
 779 1285 779 1285 844.5 1285 c 128,-1,18
 910 1285 910 1285 910 1219 c 2,19,-1
 910 390 l 2,0,1
EndSplineSet
Validated: 1
EndChar

StartChar: V
Encoding: 86 86 57
Width: 1174
Flags: W
HStem: 0 21G<554.5 601> 1264 20G<195.5 221 950.5 995>
VStem: 130 127<1236 1279.31>
LayerCount: 2
Fore
SplineSet
1042 1204 m 2,0,-1
 637 37 l 2,1,2
 624 0 624 0 578 0 c 0,3,4
 531 0 531 0 519 37 c 2,5,-1
 133 1201 l 2,6,7
 130 1210 130 1210 130 1223 c 0,8,9
 130 1266 130 1266 173 1279 c 0,10,11
 189 1284 189 1284 202 1284 c 0,12,13
 240 1284 240 1284 257 1236 c 2,14,-1
 579 310 l 1,15,-1
 914 1238 l 2,16,17
 931 1284 931 1284 970 1284 c 0,18,19
 973 1284 973 1284 975 1284 c 0,20,21
 1015 1284 1015 1284 1032 1259 c 0,22,23
 1050 1229 1050 1229 1042 1204 c 2,0,-1
EndSplineSet
Validated: 1
EndChar

StartChar: W
Encoding: 87 87 58
Width: 1430
Flags: W
HStem: 0 21G<426.5 474.5> 948 20G<690.5 741> 1264 20G<1204.5 1274.5>
LayerCount: 2
Fore
SplineSet
712 968 m 0,0,1
 717 968 717 968 722 968 c 0,2,3
 760 968 760 968 776 917 c 2,4,-1
 958 339 l 1,5,-1
 1172 1229 l 2,6,7
 1185 1284 1185 1284 1224 1284 c 0,8,9
 1236 1284 1236 1284 1249 1284 c 0,10,11
 1300 1284 1300 1284 1300 1219 c 0,12,13
 1300 1211 1300 1211 1297 1198 c 2,14,-1
 1031 45 l 2,15,16
 1021 2 1021 2 970 2 c 0,17,18
 920 2 920 2 907 45 c 2,19,-1
 712 683 l 1,20,-1
 513 45 l 2,21,22
 499 0 499 0 450 0 c 0,23,24
 403 0 403 0 393 45 c 2,25,-1
 132 1204 l 2,26,27
 130 1213 130 1213 130 1219 c 0,28,29
 130 1262 130 1262 164 1275 c 0,30,31
 198 1289 198 1289 224 1278 c 0,32,33
 251 1268 251 1268 257 1242 c 2,34,-1
 462 335 l 1,35,-1
 652 915 l 2,36,37
 669 968 669 968 712 968 c 0,0,1
EndSplineSet
Validated: 1
EndChar

StartChar: X
Encoding: 88 88 59
Width: 1164
Flags: W
LayerCount: 2
Fore
SplineSet
1017 1170 m 2,0,-1
 659 636 l 1,1,-1
 1015 103 l 2,2,3
 1030 80 1030 80 1030 57.5 c 128,-1,4
 1030 35 1030 35 1008.5 14.5 c 128,-1,5
 987 -6 987 -6 955 -1.5 c 128,-1,6
 923 3 923 3 908 28 c 2,7,-1
 582 521 l 1,8,-1
 248 28 l 2,9,10
 224 -5 224 -5 197 -5 c 0,11,12
 176 -5 176 -5 153 15 c 256,13,14
 130 35 130 35 130 55.5 c 128,-1,15
 130 76 130 76 143 95 c 2,16,-1
 505 636 l 1,17,-1
 145 1180 l 2,18,19
 132 1199 132 1199 132 1220.5 c 128,-1,20
 132 1242 132 1242 164 1262 c 0,21,22
 186 1279 186 1279 208.5 1279 c 128,-1,23
 231 1279 231 1279 250 1249 c 2,24,-1
 582 751 l 1,25,-1
 910 1241 l 2,26,27
 935 1279 935 1279 959 1279 c 128,-1,28
 983 1279 983 1279 1008 1261 c 0,29,30
 1035 1242 1035 1242 1035 1216 c 0,31,32
 1035 1195 1035 1195 1017 1170 c 2,0,-1
EndSplineSet
Validated: 1
EndChar

StartChar: Y
Encoding: 89 89 60
Width: 1175
Flags: W
HStem: 0 21G<555.5 620.5>
VStem: 523 130<1.89062 634>
LayerCount: 2
Fore
SplineSet
1031 1185 m 2,0,-1
 653 634 l 1,1,-1
 653 64 l 2,2,3
 653 0 653 0 588 0 c 256,4,5
 523 0 523 0 523 64 c 2,6,-1
 523 634 l 1,7,-1
 145 1187 l 2,8,9
 130 1209 130 1209 130 1232 c 128,-1,10
 130 1255 130 1255 156 1271.5 c 128,-1,11
 182 1288 182 1288 206 1288 c 0,12,13
 228 1288 228 1288 251 1255 c 2,14,-1
 587 764 l 1,15,-1
 919 1255 l 2,16,17
 941 1288 941 1288 965 1288 c 128,-1,18
 989 1288 989 1288 1017 1269 c 128,-1,19
 1045 1250 1045 1250 1045 1228 c 0,20,21
 1045 1205 1045 1205 1031 1185 c 2,0,-1
EndSplineSet
Validated: 1
EndChar

StartChar: Z
Encoding: 90 90 61
Width: 1049
Flags: W
HStem: 0 131<302 907.82> 1154 130<131.92 734>
LayerCount: 2
Fore
SplineSet
848 130 m 2,0,1
 910 130 910 130 910 64 c 0,2,3
 909 0 909 0 848 0 c 2,4,-1
 197 0 l 2,5,6
 168 0 168 0 148 22 c 0,7,8
 130 42 130 42 130 65 c 0,9,10
 130 82 130 82 140 100 c 2,11,-1
 734 1155 l 1,12,-1
 195 1154 l 2,13,14
 130 1154 130 1154 130 1219 c 128,-1,15
 130 1284 130 1284 195 1284 c 2,16,-1
 849 1284 l 2,17,18
 874 1284 874 1284 891 1270 c 0,19,20
 911 1254 911 1254 911 1219 c 0,21,22
 911 1213 911 1213 898 1191 c 2,23,-1
 302 131 l 1,24,-1
 848 130 l 2,0,1
EndSplineSet
Validated: 1
EndChar

StartChar: bracketleft
Encoding: 91 91 62
Width: 476
Flags: W
HStem: -77 130<260 387.109> 1247 131<260 387.109>
VStem: 130 259<-54.828 51.0798 1248.93 1358.34>
LayerCount: 2
Fore
SplineSet
389 -12 m 256,0,1
 389 -77 389 -77 325 -77 c 2,2,-1
 194 -77 l 2,3,4
 163 -77 163 -77 146.5 -55.5 c 128,-1,5
 130 -34 130 -34 130 -12 c 2,6,-1
 130 1312 l 2,7,8
 130 1338 130 1338 149 1359 c 0,9,10
 169 1378 169 1378 194 1378 c 2,11,-1
 325 1378 l 2,12,13
 389 1378 389 1378 389 1312.5 c 128,-1,14
 389 1247 389 1247 325 1247 c 2,15,-1
 260 1247 l 1,16,-1
 260 53 l 1,17,-1
 325 53 l 2,18,19
 389 53 389 53 389 -12 c 256,0,1
EndSplineSet
Validated: 1
EndChar

StartChar: backslash
Encoding: 92 92 63
Width: 954
Flags: W
LayerCount: 2
Fore
SplineSet
860 97 m 2,0,1
 873 68 873 68 862.5 36.5 c 128,-1,2
 852 5 852 5 808 4 c 0,3,4
 806 4 806 4 805 4 c 0,5,6
 762 4 762 4 744 40 c 2,7,-1
 99 1199 l 2,8,9
 87 1217 87 1217 87 1234 c 0,10,11
 87 1303 87 1303 153 1303 c 0,12,13
 198 1303 198 1303 213 1264 c 1,14,-1
 860 97 l 2,0,1
EndSplineSet
Validated: 1
EndChar

StartChar: bracketright
Encoding: 93 93 64
Width: 476
Flags: W
HStem: -77 130<88.8906 217> 1247 131<88.8906 217>
VStem: 87 259<-74.3181 51.0798 1248.93 1358.92> 217 129<53 1247>
LayerCount: 2
Fore
SplineSet
346 -12 m 2,0,1
 346 -34 346 -34 329 -55.5 c 128,-1,2
 312 -77 312 -77 282 -77 c 2,3,-1
 151 -77 l 2,4,5
 87 -77 87 -77 87 -12 c 256,6,7
 87 53 87 53 151 53 c 2,8,-1
 217 53 l 1,9,-1
 217 1247 l 1,10,-1
 151 1247 l 2,11,12
 87 1247 87 1247 87 1312.5 c 128,-1,13
 87 1378 87 1378 151 1378 c 2,14,-1
 282 1378 l 2,15,16
 309 1378 309 1378 327.5 1359.5 c 128,-1,17
 346 1341 346 1341 346 1312 c 2,18,-1
 346 -12 l 2,0,1
EndSplineSet
Validated: 1
EndChar

StartChar: asciicircum
Encoding: 94 94 65
Width: 776
Flags: W
HStem: 1315 323
VStem: 129 522<1353 1407>
LayerCount: 2
Fore
SplineSet
148 1334 m 128,-1,1
 129 1353 129 1353 129 1380 c 128,-1,2
 129 1407 129 1407 148 1426 c 2,3,-1
 344 1619 l 2,4,5
 363 1638 363 1638 390 1638 c 128,-1,6
 417 1638 417 1638 436 1619 c 2,7,-1
 632 1426 l 2,8,9
 651 1407 651 1407 651 1380 c 128,-1,10
 651 1353 651 1353 632 1334 c 128,-1,11
 613 1315 613 1315 586 1315 c 128,-1,12
 559 1315 559 1315 540 1334 c 2,13,-1
 390 1482 l 1,14,-1
 240 1334 l 2,15,16
 221 1315 221 1315 194 1315 c 128,-1,0
 167 1315 167 1315 148 1334 c 128,-1,1
EndSplineSet
Validated: 1
EndChar

StartChar: underscore
Encoding: 95 95 66
Width: 926
Flags: W
HStem: -135 130<89.2852 837.08>
LayerCount: 2
Fore
SplineSet
152 -5 m 2,0,1
 152 -5 152 -5 774 -5 c 0,2,3
 839 -5 839 -5 839 -70 c 128,-1,4
 839 -135 839 -135 774 -135 c 2,5,-1
 161 -135 l 2,6,7
 87 -135 87 -135 87 -70 c 128,-1,8
 87 -5 87 -5 152 -5 c 2,0,1
EndSplineSet
Validated: 1
EndChar

StartChar: grave
Encoding: 96 96 67
Width: 648
Flags: W
HStem: 1383 253
VStem: 140 369
LayerCount: 2
Fore
SplineSet
184 1636 m 128,-1,1
 210 1645 210 1645 234 1631 c 2,2,-1
 476 1505 l 2,3,4
 502 1491 502 1491 509 1465 c 128,-1,5
 516 1439 516 1439 505 1415 c 128,-1,6
 494 1391 494 1391 463 1383 c 128,-1,7
 432 1375 432 1375 414 1387 c 2,8,-1
 172 1517 l 2,9,10
 148 1531 148 1531 140 1555 c 128,-1,11
 132 1579 132 1579 145 1603 c 128,-1,0
 158 1627 158 1627 184 1636 c 128,-1,1
EndSplineSet
Validated: 1
EndChar

StartChar: a
Encoding: 97 97 68
Width: 909
Flags: W
HStem: 0 132<272.098 650> 390 132<272.142 650> 764 130<196.32 610.809>
VStem: 130 130<135.159 386.652> 650 129<132 390 522 724.809>
LayerCount: 2
Fore
SplineSet
779 66 m 2,0,1
 779 40 779 40 762 20 c 128,-1,2
 745 0 745 0 714 0 c 2,3,-1
 325 0 l 2,4,5
 229 0 229 0 179.5 82.5 c 128,-1,6
 130 165 130 165 130 260 c 0,7,8
 130 352 130 352 180 438 c 0,9,10
 229 522 229 522 325 522 c 2,11,-1
 650 522 l 1,12,-1
 650 634 l 2,13,14
 650 688 650 688 612 726 c 128,-1,15
 574 764 574 764 520 764 c 2,16,-1
 260 764 l 2,17,18
 194 764 194 764 194 828 c 0,19,20
 194 894 194 894 260 894 c 2,21,-1
 520 894 l 2,22,23
 632 894 632 894 705 820 c 0,24,25
 779 745 779 745 779 634 c 2,26,-1
 779 66 l 2,0,1
650 132 m 1,27,-1
 650 390 l 1,28,-1
 325 390 l 2,29,30
 282 390 282 390 271 346 c 128,-1,31
 260 302 260 302 260 260 c 128,-1,32
 260 218 260 218 271 175 c 128,-1,33
 282 132 282 132 325 132 c 2,34,-1
 650 132 l 1,27,-1
EndSplineSet
Validated: 1
EndChar

StartChar: b
Encoding: 98 98 69
Width: 910
Flags: W
HStem: 0 131<260 611.869> 763 130<260 610.839> 1265 20G<162.5 227.5>
VStem: 130 130<131 763 893 1283.02> 649 131<169.13 725.839>
LayerCount: 2
Fore
SplineSet
780 260 m 2,0,1
 780 143 780 143 707 73 c 0,2,3
 632 1 632 1 518 1 c 2,4,-1
 194 0 l 2,5,6
 169 0 169 0 151 22 c 1,7,8
 130 39 130 39 130 65 c 2,9,-1
 130 1218 l 2,10,11
 130 1285 130 1285 195 1285 c 128,-1,12
 260 1285 260 1285 260 1218 c 2,13,-1
 260 893 l 1,14,-1
 518 894 l 2,15,16
 631 894 631 894 705 820 c 0,17,18
 780 745 780 745 780 633 c 2,19,-1
 780 260 l 2,0,1
649 260 m 2,20,-1
 649 633 l 2,21,22
 649 690 649 690 612 727 c 256,23,24
 575 764 575 764 518 764 c 2,25,-1
 260 763 l 1,26,-1
 260 131 l 1,27,-1
 518 132 l 2,28,29
 577 132 577 132 613 168 c 128,-1,30
 649 204 649 204 649 260 c 2,20,-1
EndSplineSet
Validated: 1
EndChar

StartChar: c
Encoding: 99 99 70
Width: 780
Flags: W
HStem: 0 131<297.645 648.05> 763 130<298.676 648.05>
VStem: 130 130<168.13 724.839>
LayerCount: 2
Fore
SplineSet
584 131 m 2,0,1
 650 131 650 131 650 65.5 c 128,-1,2
 650 0 650 0 584 0 c 2,3,-1
 389 0 l 2,4,5
 275 0 275 0 202 72 c 0,6,7
 130 145 130 145 130 259 c 2,8,-1
 130 632 l 2,9,10
 130 746 130 746 204.5 819.5 c 128,-1,11
 279 893 279 893 389 893 c 2,12,-1
 584 893 l 2,13,14
 650 893 650 893 650 828 c 128,-1,15
 650 763 650 763 584 763 c 2,16,-1
 389 763 l 2,17,18
 335 763 335 763 297.5 726 c 128,-1,19
 260 689 260 689 260 632 c 2,20,-1
 260 259 l 2,21,22
 260 203 260 203 296.5 167 c 128,-1,23
 333 131 333 131 389 131 c 2,24,-1
 584 131 l 2,0,1
EndSplineSet
Validated: 1
EndChar

StartChar: d
Encoding: 100 100 71
Width: 915
Flags: W
HStem: -5 131<297.161 656> 763 130<298.191 656> 1265 20G<688.25 752.75>
VStem: 130 129<163.13 724.324> 656 129<126 763 893 1283.02>
LayerCount: 2
Fore
SplineSet
785 60 m 2,0,1
 785 35 785 35 764.5 15 c 128,-1,2
 744 -5 744 -5 721 -5 c 2,3,-1
 389 -5 l 2,4,5
 276 -5 276 -5 200 67 c 1,6,7
 130 140 130 140 130 254 c 2,8,-1
 130 632 l 2,9,10
 130 745 130 745 204 819 c 256,11,12
 278 893 278 893 389 893 c 2,13,-1
 656 893 l 1,14,-1
 656 1218 l 2,15,16
 656 1285 656 1285 720.5 1285 c 128,-1,17
 785 1285 785 1285 785 1218 c 2,18,-1
 785 60 l 2,0,1
656 126 m 1,19,-1
 656 763 l 1,20,-1
 389 763 l 2,21,22
 335 763 335 763 297 725.5 c 128,-1,23
 259 688 259 688 259 632 c 2,24,-1
 259 254 l 2,25,26
 259 198 259 198 296 162 c 128,-1,27
 333 126 333 126 389 126 c 2,28,-1
 656 126 l 1,19,-1
EndSplineSet
Validated: 1
EndChar

StartChar: e
Encoding: 101 101 72
Width: 909
Flags: W
HStem: 0 131<297.645 777.08> 390 131<260 650> 762 129<331.008 576.694>
VStem: 130 130<167.615 390 521 691.25> 650 129<521 688.194>
LayerCount: 2
Fore
SplineSet
714 131 m 2,0,1
 779 131 779 131 779 65.5 c 128,-1,2
 779 0 779 0 714 0 c 2,3,-1
 389 0 l 2,4,5
 276 0 276 0 203 75 c 128,-1,6
 130 150 130 150 130 259 c 2,7,-1
 130 521 l 1,8,-1
 132 569 l 2,9,10
 137 700 137 700 229 796 c 0,11,12
 320 890 320 890 454 891 c 0,13,14
 456 891 456 891 457 891 c 0,15,16
 590 891 590 891 684 796 c 0,17,18
 779 701 779 701 779 569 c 2,19,-1
 779 454 l 2,20,21
 779 429 779 429 763 412 c 0,22,23
 742 390 742 390 714 390 c 2,24,-1
 260 390 l 1,25,-1
 260 259 l 2,26,27
 260 202 260 202 296.5 166.5 c 128,-1,28
 333 131 333 131 389 131 c 2,29,-1
 714 131 l 2,0,1
650 521 m 1,30,-1
 650 569 l 2,31,32
 650 648 650 648 592.5 705 c 128,-1,33
 535 762 535 762 454 762 c 128,-1,34
 373 762 373 762 316.5 705 c 128,-1,35
 260 648 260 648 260 569 c 2,36,-1
 260 521 l 1,37,-1
 650 521 l 1,30,-1
EndSplineSet
Validated: 1
EndChar

StartChar: f
Encoding: 102 102 73
Width: 780
Flags: W
HStem: 763 130<131.891 260 389 648.05> 1154 131<426.131 648.05>
VStem: 260 129<-3.07983 763 893 1115.84>
LayerCount: 2
Fore
SplineSet
584 893 m 2,0,1
 650 893 650 893 650 828 c 128,-1,2
 650 763 650 763 584 763 c 2,3,-1
 389 763 l 1,4,-1
 389 60 l 2,5,6
 389 -5 389 -5 324.5 -5 c 128,-1,7
 260 -5 260 -5 260 60 c 2,8,-1
 260 763 l 1,9,-1
 194 763 l 2,10,11
 130 763 130 763 130 828 c 128,-1,12
 130 893 130 893 194 893 c 2,13,-1
 260 893 l 1,14,-1
 260 1023 l 2,15,16
 260 1136 260 1136 334.5 1210.5 c 128,-1,17
 409 1285 409 1285 520 1285 c 2,18,-1
 584 1285 l 2,19,20
 650 1285 650 1285 650 1219.5 c 128,-1,21
 650 1154 650 1154 584 1154 c 2,22,-1
 520 1154 l 2,23,24
 461 1154 461 1154 425 1117 c 128,-1,25
 389 1080 389 1080 389 1023 c 2,26,-1
 389 893 l 1,27,-1
 584 893 l 2,0,1
EndSplineSet
Validated: 1
EndChar

StartChar: g
Encoding: 103 103 74
Width: 909
Flags: W
HStem: -389 131<195.95 611.839> 0 131<296.098 650> 763 130<297.644 650>
VStem: 130 130<169.16 725.869> 650 129<-219.84 0 131 763>
LayerCount: 2
Fore
SplineSet
779 827 m 2,0,-1
 779 -143 l 2,1,2
 779 -241 779 -241 705 -315 c 128,-1,3
 631 -389 631 -389 520 -389 c 2,4,-1
 260 -389 l 2,5,6
 194 -389 194 -389 194 -323.5 c 128,-1,7
 194 -258 194 -258 260 -258 c 2,8,-1
 520 -258 l 2,9,10
 576 -258 576 -258 613 -221 c 256,11,12
 650 -184 650 -184 650 -130 c 2,13,-1
 650 0 l 1,14,-1
 389 0 l 2,15,16
 274 0 274 0 202 74 c 128,-1,17
 130 148 130 148 130 259 c 2,18,-1
 130 632 l 2,19,20
 130 748 130 748 202 819 c 0,21,22
 277 893 277 893 389 893 c 2,23,-1
 714 893 l 2,24,25
 744 893 744 893 762 873 c 0,26,27
 779 855 779 855 779 827 c 2,0,-1
650 131 m 1,28,-1
 650 763 l 1,29,30
 517 763 517 763 384 763 c 0,31,32
 333 763 333 763 296.5 727 c 128,-1,33
 260 691 260 691 260 632 c 2,34,-1
 260 259 l 2,35,36
 260 205 260 205 295 168 c 128,-1,37
 330 131 330 131 382 131 c 2,38,-1
 650 131 l 1,28,-1
EndSplineSet
Validated: 1
EndChar

StartChar: h
Encoding: 104 104 75
Width: 891
Flags: W
HStem: 758 130<260 614.717>
VStem: 130 130<-3.07983 758 888 1278.02> 650 129<-3.07983 721.329>
LayerCount: 2
Fore
SplineSet
779 60 m 2,0,1
 779 -5 779 -5 714.5 -5 c 128,-1,2
 650 -5 650 -5 650 60 c 2,3,-1
 650 627 l 2,4,5
 650 678 650 678 611 718 c 128,-1,6
 572 758 572 758 520 758 c 2,7,-1
 260 758 l 1,8,-1
 260 60 l 2,9,10
 260 -5 260 -5 195 -5 c 128,-1,11
 130 -5 130 -5 130 60 c 2,12,-1
 130 1213 l 2,13,14
 130 1280 130 1280 195 1280 c 128,-1,15
 260 1280 260 1280 260 1213 c 2,16,-1
 260 888 l 1,17,-1
 520 888 l 2,18,19
 629 888 629 888 704 811.5 c 128,-1,20
 779 735 779 735 779 627 c 2,21,-1
 779 60 l 2,0,1
EndSplineSet
Validated: 1
EndChar

StartChar: i
Encoding: 105 105 76
Width: 424
Flags: W
HStem: 870 20G<180.5 245.5> 1132 164<135.786 288.214>
VStem: 130 164<1137.79 1290.21> 148 130<-3.07983 888.05>
LayerCount: 2
Fore
SplineSet
212 1296 m 128,-1,1
 294 1296 294 1296 294 1214 c 128,-1,2
 294 1132 294 1132 212 1132 c 128,-1,3
 130 1132 130 1132 130 1214 c 128,-1,0
 130 1296 130 1296 212 1296 c 128,-1,1
278 60 m 2,4,5
 278 -5 278 -5 213 -5 c 128,-1,6
 148 -5 148 -5 148 60 c 2,7,-1
 148 824 l 2,8,9
 148 890 148 890 213 890 c 128,-1,10
 278 890 278 890 278 824 c 2,11,-1
 278 60 l 2,4,5
EndSplineSet
Validated: 1
EndChar

StartChar: j
Encoding: 106 106 77
Width: 407
Flags: W
HStem: -394 131<-118.648 69.5469> 870 20G<163.25 227.75> 1024 165<119.715 270.285>
VStem: 114 162<1029.82 1183.18> 131 129<-205.493 888.05>
LayerCount: 2
Fore
SplineSet
195 1189 m 128,-1,1
 276 1189 276 1189 276 1106.5 c 128,-1,2
 276 1024 276 1024 195 1024 c 128,-1,3
 114 1024 114 1024 114 1106.5 c 128,-1,0
 114 1189 114 1189 195 1189 c 128,-1,1
260 -135 m 1,4,5
 248 -224 248 -224 214.5 -263.5 c 128,-1,6
 181 -303 181 -303 140 -337 c 0,7,8
 70 -394 70 -394 -64 -394 c 0,9,10
 -108 -394 -108 -394 -119 -375 c 128,-1,11
 -130 -356 -130 -356 -130 -330 c 0,12,13
 -130 -263 -130 -263 -64 -263 c 0,14,15
 18 -263 18 -263 51 -235.5 c 128,-1,16
 84 -208 84 -208 98.5 -197 c 128,-1,17
 113 -186 113 -186 131 -135 c 1,18,-1
 131 824 l 2,19,20
 131 890 131 890 195.5 890 c 128,-1,21
 260 890 260 890 260 824 c 2,22,-1
 260 -135 l 1,4,5
EndSplineSet
Validated: 1
EndChar

StartChar: k
Encoding: 107 107 78
Width: 872
Flags: W
HStem: 887 20G<708.5 731.5>
VStem: 130 130<6.89062 413 576 1288.02> 654 126<9.32617 46>
LayerCount: 2
Fore
SplineSet
773 101 m 2,0,1
 780 86 780 86 780 58 c 0,2,3
 780 33 780 33 752 17.5 c 128,-1,4
 724 2 724 2 708 2 c 0,5,6
 674 2 674 2 654 46 c 2,7,-1
 428 540 l 1,8,-1
 260 413 l 1,9,-1
 260 69 l 2,10,11
 260 5 260 5 195 5 c 128,-1,12
 130 5 130 5 130 69 c 2,13,-1
 130 1223 l 2,14,15
 130 1290 130 1290 195 1290 c 128,-1,16
 260 1290 260 1290 260 1223 c 2,17,-1
 260 576 l 1,18,-1
 677 892 l 2,19,20
 697 907 697 907 720 907 c 128,-1,21
 743 907 743 907 764 879.5 c 128,-1,22
 785 852 785 852 785 828 c 0,23,24
 785 807 785 807 753 783 c 2,25,-1
 533 617 l 1,26,-1
 773 101 l 2,0,1
EndSplineSet
Validated: 1
EndChar

StartChar: l
Encoding: 108 108 79
Width: 476
Flags: W
HStem: 1262 20G<162.5 227.5>
VStem: 130 130<157.307 1280.08>
LayerCount: 2
Fore
SplineSet
387 87 m 0,0,1
 389 66 389 66 389 63 c 2,2,-1
 389 56 l 2,3,4
 389 12 389 12 352 5 c 0,5,6
 338 2 338 2 325 2 c 0,7,8
 303 2 303 2 285 9 c 0,9,10
 230 32 230 32 186 91 c 0,11,12
 130 166 130 166 130 258 c 2,13,-1
 130 1217 l 2,14,15
 130 1282 130 1282 195 1282 c 128,-1,16
 260 1282 260 1282 260 1217 c 2,17,-1
 260 258 l 2,18,19
 260 216 260 216 288 177 c 0,20,21
 315 139 315 139 356 122 c 0,22,23
 385 110 385 110 387 87 c 0,0,1
EndSplineSet
Validated: 1
EndChar

StartChar: m
Encoding: 109 109 80
Width: 1134
Flags: W
HStem: 0 21G<144.5 209.5 534.5 599.5 923.75 989.25> 763 130<242 502 632 852.839>
VStem: 112 130<1.92017 763> 502 130<1.92017 763> 891 131<1.92017 724.839>
LayerCount: 2
Fore
SplineSet
1022 65 m 2,0,1
 1022 0 1022 0 956.5 0 c 128,-1,2
 891 0 891 0 891 65 c 2,3,-1
 891 632 l 2,4,5
 891 689 891 689 854 726 c 256,6,7
 817 763 817 763 761 763 c 2,8,-1
 632 763 l 1,9,-1
 632 65 l 2,10,11
 632 0 632 0 567 0 c 128,-1,12
 502 0 502 0 502 65 c 2,13,-1
 502 763 l 1,14,-1
 242 763 l 1,15,-1
 242 65 l 2,16,17
 242 0 242 0 177 0 c 128,-1,18
 112 0 112 0 112 65 c 2,19,-1
 112 827 l 2,20,21
 112 860 112 860 133 878 c 0,22,23
 151 893 151 893 176 893 c 2,24,-1
 761 893 l 2,25,26
 874 893 874 893 948 818 c 128,-1,27
 1022 743 1022 743 1022 632 c 2,28,-1
 1022 65 l 2,0,1
EndSplineSet
Validated: 1
EndChar

StartChar: n
Encoding: 110 110 81
Width: 909
Flags: W
HStem: 0 21G<162.5 227.5 682.25 746.75> 763 130<260 615.933>
VStem: 130 130<1.92017 763> 650 129<1.92017 729.162>
LayerCount: 2
Fore
SplineSet
779 65 m 2,0,1
 779 0 779 0 714.5 0 c 128,-1,2
 650 0 650 0 650 65 c 2,3,-1
 650 632 l 2,4,5
 650 686 650 686 611 724.5 c 128,-1,6
 572 763 572 763 520 763 c 2,7,-1
 260 763 l 1,8,-1
 260 65 l 2,9,10
 260 0 260 0 195 0 c 128,-1,11
 130 0 130 0 130 65 c 2,12,-1
 130 827 l 2,13,14
 130 850 130 850 147 872 c 1,15,16
 169 893 169 893 194 893 c 2,17,-1
 520 893 l 2,18,19
 631 893 631 893 705 819 c 256,20,21
 779 745 779 745 779 632 c 2,22,-1
 779 65 l 2,0,1
EndSplineSet
Validated: 1
EndChar

StartChar: o
Encoding: 111 111 82
Width: 873
Flags: W
HStem: 0 131<311.5 559.25> 763 129<313.008 559.758>
VStem: 112 130<203.338 691.75> 632 129<201.992 691.391>
LayerCount: 2
Fore
SplineSet
761 324 m 1,0,1
 756 192 756 192 663 96 c 0,2,3
 569 0 569 0 436 0 c 2,4,5
 436 0 436 0 435 0 c 0,6,7
 302 0 302 0 207 95 c 128,-1,8
 112 190 112 190 112 324 c 2,9,-1
 112 569 l 1,10,11
 116 701 116 701 209 796 c 0,12,13
 303 892 303 892 436 892 c 0,14,15
 438 892 438 892 439 892 c 128,-1,16
 440 892 440 892 442 892 c 0,17,18
 443 892 443 892 445 892 c 0,19,20
 572 892 572 892 666 797 c 0,21,22
 761 702 761 702 761 569 c 2,23,-1
 761 324 l 1,0,1
632 324 m 2,24,-1
 632 569 l 2,25,26
 632 649 632 649 574.5 706 c 128,-1,27
 517 763 517 763 436 763 c 128,-1,28
 355 763 355 763 298.5 706 c 128,-1,29
 242 649 242 649 242 569 c 2,30,-1
 242 324 l 2,31,32
 242 244 242 244 298.5 187.5 c 128,-1,33
 355 131 355 131 436 131 c 128,-1,34
 517 131 517 131 574.5 187.5 c 128,-1,35
 632 244 632 244 632 324 c 2,24,-1
EndSplineSet
Validated: 1
EndChar

StartChar: p
Encoding: 112 112 83
Width: 899
Flags: W
HStem: -389 21G<162.75 228.25> 0 131<261 617.84> 763 130<261 618.87>
VStem: 130 131<-387.021 0 131 763> 656 131<168.13 726.385>
LayerCount: 2
Fore
SplineSet
787 261 m 2,0,1
 787 149 787 149 713 74 c 1,2,3
 634 0 634 0 528 0 c 2,4,-1
 261 0 l 1,5,-1
 261 -322 l 2,6,7
 261 -389 261 -389 195.5 -389 c 128,-1,8
 130 -389 130 -389 130 -322 c 2,9,-1
 130 829 l 2,10,11
 130 853 130 853 151.5 873 c 128,-1,12
 173 893 173 893 197 893 c 2,13,-1
 528 893 l 2,14,15
 643 893 643 893 715 821 c 256,16,17
 787 749 787 749 787 634 c 2,18,-1
 787 261 l 2,0,1
656 261 m 2,19,-1
 656 634 l 2,20,21
 656 692 656 692 620 727.5 c 128,-1,22
 584 763 584 763 528 763 c 2,23,-1
 261 763 l 1,24,-1
 261 131 l 1,25,-1
 528 131 l 2,26,27
 582 131 582 131 619 167 c 128,-1,28
 656 203 656 203 656 261 c 2,19,-1
EndSplineSet
Validated: 1
EndChar

StartChar: q
Encoding: 113 113 84
Width: 915
Flags: W
HStem: 0 130<298.191 656> 764 130<297.161 656>
VStem: 130 129<168.161 725.839> 656 129<-392.021 0 130 764>
LayerCount: 2
Fore
SplineSet
785 -327 m 2,0,1
 785 -394 785 -394 720.5 -394 c 128,-1,2
 656 -394 656 -394 656 -327 c 2,3,-1
 656 0 l 1,4,-1
 389 0 l 2,5,6
 277 0 277 0 204 74 c 0,7,8
 130 149 130 149 130 261 c 2,9,-1
 130 634 l 2,10,11
 130 752 130 752 200 822 c 0,12,13
 272 894 272 894 389 894 c 2,14,-1
 721 894 l 2,15,16
 744 894 744 894 764.5 873.5 c 128,-1,17
 785 853 785 853 785 830 c 2,18,-1
 785 -327 l 2,0,1
656 130 m 1,19,-1
 656 764 l 1,20,-1
 389 764 l 2,21,22
 333 764 333 764 296 727 c 128,-1,23
 259 690 259 690 259 634 c 2,24,-1
 259 260 l 2,25,26
 259 204 259 204 297 167 c 256,27,28
 335 130 335 130 389 130 c 2,29,-1
 656 130 l 1,19,-1
EndSplineSet
Validated: 1
EndChar

StartChar: r
Encoding: 114 114 85
Width: 719
Flags: W
HStem: 0 21G<160.5 225.5> 765 129<260 520>
VStem: 130 130<2.80566 765> 520 128<634.012 765>
LayerCount: 2
Fore
SplineSet
130 822 m 0,0,1
 130 894 130 894 205 894 c 2,2,3
 205 894 205 894 574 894 c 0,4,5
 648 894 648 894 648 833 c 2,6,7
 648 833 648 833 648 704 c 0,8,9
 648 631 648 631 590 631 c 0,10,11
 520 631 520 631 520 700 c 2,12,13
 520 700 520 700 520 765 c 1,14,-1
 260 765 l 1,15,-1
 260 65 l 2,16,17
 260 0 260 0 191 0 c 0,18,19
 130 0 130 0 130 68 c 2,20,21
 130 68 130 68 130 822 c 0,0,1
EndSplineSet
Validated: 1
EndChar

StartChar: s
Encoding: 115 115 86
Width: 694
Flags: W
HStem: -3 131<115.783 457.485> 764 130<237.768 533.535>
VStem: 87 131<611.298 739.846> 477 130<151.653 289.5>
LayerCount: 2
Fore
SplineSet
547 369 m 1,0,1
 585 327 585 327 596 294 c 128,-1,2
 607 261 607 261 607 212 c 0,3,4
 607 119 607 119 527.5 58 c 128,-1,5
 448 -3 448 -3 352 -3 c 0,6,7
 285 -3 285 -3 242 6 c 0,8,9
 214 11 214 11 126 38 c 0,10,11
 87 50 87 50 86 87.5 c 128,-1,12
 85 125 85 125 113 145 c 128,-1,13
 141 165 141 165 171.5 158 c 128,-1,14
 202 151 202 151 238 139.5 c 128,-1,15
 274 128 274 128 306 128 c 2,16,-1
 346 128 l 2,17,18
 394 128 394 128 435.5 153 c 128,-1,19
 477 178 477 178 477 225 c 0,20,21
 477 254 477 254 452 274 c 2,22,-1
 152 517 l 1,23,24
 87 584 87 584 87 667 c 0,25,26
 87 802 87 802 178.5 848 c 128,-1,27
 270 894 270 894 336 894 c 0,28,29
 413 894 413 894 531 855 c 0,30,31
 574 841 574 841 574 797 c 0,32,33
 574 730 574 730 523 730 c 0,34,35
 509 730 509 730 480 738 c 0,36,37
 386 764 386 764 342.5 764 c 128,-1,38
 299 764 299 764 258.5 738 c 128,-1,39
 218 712 218 712 218 667 c 0,40,41
 218 647 218 647 235 622 c 1,42,-1
 547 369 l 1,0,1
EndSplineSet
Validated: 1
EndChar

StartChar: t
Encoding: 116 116 87
Width: 615
Flags: W
HStem: 758 130<53.9202 183 311 570.05>
VStem: 183 128<-3.07983 758 888 1278.02>
LayerCount: 2
Fore
SplineSet
506 888 m 2,0,1
 572 888 572 888 572 823 c 128,-1,2
 572 758 572 758 506 758 c 2,3,-1
 311 758 l 1,4,-1
 311 60 l 2,5,6
 311 -5 311 -5 247 -5 c 256,7,8
 183 -5 183 -5 183 60 c 2,9,-1
 183 758 l 1,10,-1
 117 758 l 2,11,12
 52 758 52 758 52 823 c 128,-1,13
 52 888 52 888 117 888 c 2,14,-1
 183 888 l 1,15,-1
 183 1213 l 2,16,17
 183 1280 183 1280 247 1280 c 256,18,19
 311 1280 311 1280 311 1213 c 2,20,-1
 311 888 l 1,21,-1
 506 888 l 2,0,1
EndSplineSet
Validated: 1
EndChar

StartChar: u
Encoding: 117 117 88
Width: 873
Flags: W
HStem: -5 131<278.615 632> 870 20G<144.5 209.5 664.25 728.75>
VStem: 112 130<161.584 888.05> 632 129<126 888.05>
LayerCount: 2
Fore
SplineSet
761 60 m 2,0,1
 761 32 761 32 743.5 13.5 c 128,-1,2
 726 -5 726 -5 696 -5 c 2,3,-1
 371 -5 l 2,4,5
 256 -5 256 -5 184 68.5 c 128,-1,6
 112 142 112 142 112 254 c 2,7,-1
 112 824 l 2,8,9
 112 890 112 890 177 890 c 128,-1,10
 242 890 242 890 242 824 c 2,11,-1
 242 254 l 2,12,13
 242 195 242 195 277.5 160.5 c 128,-1,14
 313 126 313 126 371 126 c 2,15,-1
 632 126 l 1,16,-1
 632 824 l 2,17,18
 632 890 632 890 696.5 890 c 128,-1,19
 761 890 761 890 761 824 c 2,20,-1
 761 60 l 2,0,1
EndSplineSet
Validated: 1
EndChar

StartChar: v
Encoding: 118 118 89
Width: 825
Flags: W
HStem: 872 19G<137.5 180 645.5 691>
VStem: 90 645
LayerCount: 2
Fore
SplineSet
735 810 m 2,0,-1
 474 48 l 2,1,2
 457 -3 457 -3 413 -3 c 2,3,4
 413 -3 413 -3 410 -3 c 0,5,6
 364 -3 364 -3 347 48 c 2,7,-1
 90 802 l 2,8,9
 80 830 80 830 98 862 c 0,10,11
 116 892 116 892 159 892 c 0,12,13
 201 892 201 892 215 849 c 2,14,-1
 413 251 l 1,15,-1
 610 849 l 2,16,17
 624 891 624 891 667 891 c 0,18,19
 668 891 668 891 669 891 c 0,20,21
 713 890 713 890 728.5 863 c 128,-1,22
 744 836 744 836 735 810 c 2,0,-1
EndSplineSet
Validated: 1
EndChar

StartChar: w
Encoding: 119 119 90
Width: 1082
Flags: W
HStem: 870 20G<116.75 176.25 905 964.5>
LayerCount: 2
Fore
SplineSet
993 810 m 2,0,-1
 862 46 l 2,1,2
 853 -5 853 -5 806 -5 c 0,3,4
 758 -5 758 -5 746 28 c 1,5,-1
 541 423 l 1,6,-1
 338 28 l 2,7,8
 321 -5 321 -5 282 -5 c 0,9,10
 227 -5 227 -5 218 46 c 2,11,-1
 89 808 l 2,12,13
 87 820 87 820 87 832 c 0,14,15
 87 890 87 890 146.5 890 c 128,-1,16
 206 890 206 890 214 843 c 2,17,-1
 313 253 l 1,18,-1
 485 598 l 2,19,20
 500 629 500 629 540 629 c 0,21,22
 583 629 583 629 599 598 c 2,23,-1
 771 255 l 1,24,-1
 868 843 l 2,25,26
 876 890 876 890 934 890 c 0,27,28
 995 890 995 890 995 831 c 0,29,30
 995 822 995 822 993 810 c 2,0,-1
EndSplineSet
Validated: 1
EndChar

StartChar: x
Encoding: 120 120 91
Width: 761
Flags: W
HStem: 0 21G<117.5 169.5 590.5 641.5> 870 20G<121 172.5 589 640>
VStem: 87 587<0 83 806 890>
LayerCount: 2
Fore
SplineSet
609 890 m 0,0,1
 671 890 671 890 671 827 c 0,2,3
 671 804 671 804 662 789 c 2,4,-1
 455 449 l 1,5,-1
 664 100 l 2,6,7
 674 83 674 83 674 68 c 0,8,9
 674 0 674 0 609 0 c 0,10,11
 572 0 572 0 555 28 c 2,12,-1
 381 321 l 1,13,-1
 208 28 l 2,14,15
 191 0 191 0 148 0 c 0,16,17
 87 0 87 0 87 65 c 0,18,19
 87 83 87 83 97 100 c 2,20,-1
 305 449 l 1,21,-1
 99 789 l 2,22,23
 89 806 89 806 89 825 c 0,24,25
 89 890 89 890 153 890 c 0,26,27
 192 890 192 890 210 859 c 2,28,-1
 381 565 l 1,29,-1
 551 859 l 2,30,31
 569 890 569 890 609 890 c 0,0,1
EndSplineSet
Validated: 1
EndChar

StartChar: y
Encoding: 121 121 92
Width: 824
Flags: W
HStem: -396 129<89.6819 254.856> 874 20G<134 172 647 684.5>
VStem: 87 649
LayerCount: 2
Fore
SplineSet
736 816 m 1,0,-1
 366 -293 l 1,1,2
 324 -348 324 -348 275 -370 c 0,3,4
 217 -396 217 -396 152 -396 c 128,-1,5
 87 -396 87 -396 87 -336 c 0,6,7
 87 -332 87 -332 87 -328 c 0,8,9
 91 -264 91 -264 169 -267 c 0,10,11
 172 -267 172 -267 176 -267 c 0,12,13
 177 -267 177 -267 178 -267 c 0,14,15
 221 -267 221 -267 257 -221 c 1,16,-1
 346 57 l 1,17,-1
 90 812 l 2,18,19
 82 835 82 835 99 866 c 0,20,21
 115 894 115 894 153 894 c 128,-1,22
 191 894 191 894 210 859 c 1,23,-1
 410 268 l 1,24,-1
 606 845 l 2,25,26
 622 894 622 894 672 894 c 0,27,28
 697 894 697 894 720 874 c 0,29,30
 743 855 743 855 736 816 c 1,0,-1
EndSplineSet
Validated: 33
EndChar

StartChar: z
Encoding: 122 122 93
Width: 916
Flags: W
HStem: 0 131<315 777.75> 763 130<136.354 596>
VStem: 130 656
LayerCount: 2
Fore
SplineSet
716 130 m 2,0,1
 780 130 780 130 780 65 c 128,-1,2
 780 0 780 0 718 0 c 0,3,4
 717 0 717 0 716 0 c 2,5,-1
 197 0 l 2,6,7
 172 0 172 0 149 21 c 0,8,9
 130 38 130 38 130 65 c 0,10,11
 130 82 130 82 144 102 c 2,12,-1
 596 763 l 1,13,-1
 198 763 l 2,14,15
 134 763 134 763 134 824 c 2,16,-1
 134 831 l 2,17,18
 137 893 137 893 198 893 c 2,19,-1
 719 893 l 2,20,21
 748 893 748 893 767 873.5 c 128,-1,22
 786 854 786 854 786 833 c 0,23,24
 786 811 786 811 773 792 c 2,25,-1
 315 131 l 1,26,-1
 716 130 l 2,0,1
EndSplineSet
Validated: 1
EndChar

StartChar: braceleft
Encoding: 123 123 94
Width: 512
Flags: W
HStem: -83 128<340.655 448.566> 581 128<63.7742 176.011> 1245 129<340.657 448.359>
VStem: 192 128<63.6572 577.781 734.172 1226.31>
LayerCount: 2
Fore
SplineSet
320 776 m 2,0,1
 320 699 320 699 276 645 c 1,2,3
 320 592 320 592 320 515 c 2,4,-1
 320 109 l 2,5,6
 320 84 320 84 340 63 c 0,7,8
 361 45 361 45 376 45 c 2,9,-1
 392 45 l 2,10,11
 451 45 451 45 451 -17 c 128,-1,12
 451 -79 451 -79 387 -83 c 1,13,-1
 378 -83 l 2,14,15
 295 -83 295 -83 246 -28 c 0,16,17
 192 27 192 27 192 109 c 2,18,-1
 192 515 l 2,19,20
 192 544 192 544 172 561 c 1,21,22
 155 581 155 581 130.5 581 c 128,-1,23
 106 581 106 581 82.5 600 c 128,-1,24
 59 619 59 619 61 647 c 0,25,26
 64 705 64 705 126 709 c 0,27,28
 161 712 161 712 176.5 733.5 c 128,-1,29
 192 755 192 755 192 776 c 2,30,-1
 192 1181 l 2,31,32
 192 1262 192 1262 243.5 1318 c 128,-1,33
 295 1374 295 1374 378 1374 c 2,34,-1
 387 1374 l 1,35,36
 451 1370 451 1370 451 1307.5 c 128,-1,37
 451 1245 451 1245 394 1245 c 2,38,-1
 387 1245 l 2,39,40
 361 1245 361 1245 340 1227 c 0,41,42
 320 1205 320 1205 320 1181 c 2,43,-1
 320 776 l 2,0,1
EndSplineSet
Validated: 1
EndChar

StartChar: bar
Encoding: 124 124 95
Width: 512
Flags: W
VStem: 178 156<-12.125 1302.12>
LayerCount: 2
Fore
SplineSet
334 61 m 2,0,1
 334 -17 334 -17 256 -17 c 256,2,3
 178 -17 178 -17 178 61 c 2,4,-1
 178 1229 l 2,5,6
 178 1307 178 1307 256 1307 c 256,7,8
 334 1307 334 1307 334 1229 c 2,9,-1
 334 61 l 2,0,1
EndSplineSet
Validated: 1
EndChar

StartChar: braceright
Encoding: 125 125 96
Width: 512
Flags: W
HStem: -83 128<63.4343 171.343> 581 128<335.474 446.712> 1245 129<63.6406 171.345>
VStem: 191 129<63.6572 578.637 734.172 1226.31>
LayerCount: 2
Fore
SplineSet
236 645 m 1,0,1
 191 697 191 697 191 776 c 2,2,-1
 191 1181 l 2,3,4
 191 1205 191 1205 172 1227 c 1,5,6
 151 1245 151 1245 136 1245 c 2,7,-1
 118 1245 l 2,8,9
 61 1245 61 1245 61 1307.5 c 128,-1,10
 61 1370 61 1370 125 1374 c 0,11,12
 129 1374 129 1374 133 1374 c 0,13,14
 215 1374 215 1374 267.5 1317.5 c 128,-1,15
 320 1261 320 1261 320 1181 c 2,16,-1
 320 776 l 2,17,18
 320 755 320 755 335 733.5 c 128,-1,19
 350 712 350 712 386 709 c 0,20,21
 448 705 448 705 450 647 c 0,22,23
 451 619 451 619 427.5 600 c 128,-1,24
 404 581 404 581 380 581 c 128,-1,25
 356 581 356 581 340 561 c 1,26,27
 320 544 320 544 320 515 c 2,28,-1
 320 109 l 2,29,30
 320 28 320 28 265 -28 c 0,31,32
 215 -83 215 -83 133 -83 c 0,33,34
 129 -83 129 -83 125 -83 c 0,35,36
 61 -79 61 -79 61 -17 c 128,-1,37
 61 45 61 45 120 45 c 2,38,-1
 125 45 l 2,39,40
 151 45 151 45 172 63 c 0,41,42
 191 84 191 84 191 109 c 2,43,-1
 191 515 l 2,44,45
 191 594 191 594 236 645 c 1,0,1
EndSplineSet
Validated: 1
EndChar

StartChar: asciitilde
Encoding: 126 126 97
Width: 770
Flags: W
HStem: 1402 239<108.37 160.436 611.626 658.341>
VStem: 53 125<1416.47 1527.59> 593 125<1514.68 1621.53>
LayerCount: 2
Fore
SplineSet
718 1561 m 2,0,1
 718 1485 718 1485 660 1442 c 0,2,3
 607 1402 607 1402 543 1402 c 0,4,5
 538 1402 538 1402 532 1402 c 0,6,7
 463 1406 463 1406 403 1438 c 0,8,9
 403 1440 403 1440 283 1523 c 0,10,11
 257 1541 257 1541 217 1528 c 0,12,13
 178 1515 178 1515 178 1481 c 2,14,-1
 178 1454 l 2,15,16
 178 1431 178 1431 161 1416 c 0,17,18
 143 1400 143 1400 117 1400 c 0,19,20
 88 1400 88 1400 72 1415 c 0,21,22
 53 1431 53 1431 53 1456 c 2,23,-1
 53 1481 l 2,24,25
 53 1554 53 1554 112 1599 c 0,26,27
 167 1641 167 1641 232 1641 c 0,28,29
 236 1641 236 1641 241 1641 c 0,30,31
 311 1638 311 1638 371 1603 c 1,32,33
 480 1529 480 1529 497 1516 c 128,-1,34
 514 1503 514 1503 553 1515 c 0,35,36
 593 1527 593 1527 593 1561 c 2,37,-1
 593 1584 l 2,38,39
 593 1607 593 1607 611 1622 c 0,40,41
 631 1638 631 1638 655.5 1638 c 128,-1,42
 680 1638 680 1638 698 1623 c 0,43,44
 718 1607 718 1607 718 1586 c 2,45,-1
 718 1561 l 2,0,1
EndSplineSet
Validated: 33
EndChar

StartChar: cent
Encoding: 162 162 98
Width: 593
Flags: W
HStem: 0 134<202.161 294 374 559.308> 800 134<203.191 294 374 559.308> 1014 20G<326 342>
VStem: 30 134<172.161 760.808> 294 80<-97.9971 0 134 800 934 1034>
LayerCount: 2
Fore
SplineSet
564 66 m 128,-1,1
 564 40 564 40 544 20 c 128,-1,2
 524 0 524 0 496 0 c 2,3,-1
 374 0 l 1,4,-1
 374 -58 l 2,5,6
 374 -74 374 -74 362 -86 c 128,-1,7
 350 -98 350 -98 334 -98 c 128,-1,8
 318 -98 318 -98 306 -86 c 128,-1,9
 294 -74 294 -74 294 -58 c 2,10,-1
 294 0 l 1,11,12
 178 0 178 0 104 74 c 128,-1,13
 30 148 30 148 30 266 c 2,14,-1
 30 666 l 2,15,16
 30 782 30 782 106 858 c 0,17,18
 184 934 184 934 294 934 c 1,19,-1
 294 994 l 2,20,21
 294 1010 294 1010 306 1022 c 128,-1,22
 318 1034 318 1034 334 1034 c 128,-1,23
 350 1034 350 1034 362 1022 c 128,-1,24
 374 1010 374 1010 374 994 c 2,25,-1
 374 934 l 1,26,-1
 496 934 l 2,27,28
 522 934 522 934 543 913 c 128,-1,29
 564 892 564 892 564 866 c 128,-1,30
 564 840 564 840 544 820 c 128,-1,31
 524 800 524 800 496 800 c 2,32,-1
 374 800 l 1,33,-1
 374 134 l 1,34,-1
 496 134 l 2,35,36
 522 134 522 134 543 113 c 128,-1,0
 564 92 564 92 564 66 c 128,-1,1
294 134 m 1,37,-1
 294 800 l 1,38,39
 240 800 240 800 202 762 c 128,-1,40
 164 724 164 724 164 666 c 2,41,-1
 164 266 l 2,42,43
 164 208 164 208 201 171 c 128,-1,44
 238 134 238 134 294 134 c 1,37,-1
EndSplineSet
Validated: 1
EndChar

StartChar: sterling
Encoding: 163 163 99
Width: 876
Flags: W
HStem: -2 134<318 830.404> 690 134<27.8281 182 318 625.308> 1198 132<389.156 831.374>
VStem: 182 136<132 690 824 1129.3>
LayerCount: 2
Fore
SplineSet
852 1264 m 128,-1,1
 852 1236 852 1236 832 1217 c 128,-1,2
 812 1198 812 1198 786 1198 c 2,3,-1
 518 1198 l 2,4,5
 440 1198 440 1198 390 1156 c 0,6,7
 318 1100 318 1100 318 998 c 2,8,-1
 318 824 l 1,9,-1
 562 824 l 2,10,11
 590 824 590 824 610 804 c 128,-1,12
 630 784 630 784 630 758 c 128,-1,13
 630 732 630 732 609 711 c 128,-1,14
 588 690 588 690 562 690 c 2,15,-1
 318 690 l 1,16,-1
 318 132 l 1,17,-1
 784 132 l 2,18,19
 812 132 812 132 831 112 c 128,-1,20
 850 92 850 92 850 65 c 128,-1,21
 850 38 850 38 830 18 c 128,-1,22
 810 -2 810 -2 784 -2 c 2,23,-1
 250 -2 l 2,24,25
 224 -2 224 -2 203 19 c 128,-1,26
 182 40 182 40 182 66 c 2,27,-1
 182 690 l 1,28,-1
 90 690 l 2,29,30
 64 690 64 690 44 710 c 128,-1,31
 24 730 24 730 24 757 c 128,-1,32
 24 784 24 784 44 804 c 128,-1,33
 64 824 64 824 90 824 c 2,34,-1
 182 824 l 1,35,-1
 182 998 l 2,36,37
 182 1170 182 1170 314 1266 c 0,38,39
 400 1330 400 1330 518 1330 c 2,40,-1
 786 1330 l 2,41,42
 812 1330 812 1330 832 1311 c 128,-1,0
 852 1292 852 1292 852 1264 c 128,-1,1
EndSplineSet
Validated: 1
EndChar

StartChar: currency
Encoding: 164 164 100
Width: 1132
Flags: W
HStem: 0 21G<248.426 287.64 844 883.574> 53 130<437.291 692.036> 595 130<439.039 691.05>
VStem: 230 130<260.715 516.47> 771 131<262.135 514.734>
LayerCount: 2
Fore
SplineSet
287 575 m 1,0,-1
 176 683 l 1,1,-1
 268 778 l 1,2,-1
 377 667 l 1,3,4
 461 725 461 725 566 725 c 128,-1,5
 671 725 671 725 753 667 c 1,6,-1
 864 778 l 1,7,-1
 956 683 l 1,8,-1
 845 575 l 1,9,10
 902 488 902 488 902 388.5 c 128,-1,11
 902 289 902 289 845 202 c 1,12,-1
 956 94 l 1,13,-1
 864 0 l 1,14,-1
 753 111 l 1,15,16
 671 53 671 53 566 53 c 128,-1,17
 461 53 461 53 377 111 c 1,18,-1
 268 0 l 1,19,-1
 176 94 l 1,20,-1
 287 202 l 1,21,22
 230 289 230 289 230 388.5 c 128,-1,23
 230 488 230 488 287 575 c 1,0,-1
710.5 243.5 m 128,-1,25
 771 304 771 304 771 388 c 128,-1,26
 771 472 771 472 710.5 533.5 c 128,-1,27
 650 595 650 595 565.5 595 c 128,-1,28
 481 595 481 595 420.5 534 c 128,-1,29
 360 473 360 473 360 388.5 c 128,-1,30
 360 304 360 304 420 243.5 c 128,-1,31
 480 183 480 183 564 183 c 0,32,24
 650 183 650 183 710.5 243.5 c 128,-1,25
EndSplineSet
Validated: 1
EndChar

StartChar: yen
Encoding: 165 165 101
Width: 1027
Flags: W
HStem: 0 21G<500.5 527.5> 362 132<68.5959 447 581 957.404> 666 134<68.5959 345 681 957.404>
VStem: 447 134<3.82812 362 494 648>
LayerCount: 2
Fore
SplineSet
977 428 m 128,-1,1
 977 400 977 400 958 381 c 128,-1,2
 939 362 939 362 911 362 c 2,3,-1
 581 362 l 1,4,-1
 581 66 l 2,5,6
 581 40 581 40 561 20 c 128,-1,7
 541 0 541 0 514 0 c 128,-1,8
 487 0 487 0 467 20 c 128,-1,9
 447 40 447 40 447 66 c 2,10,-1
 447 362 l 1,11,-1
 115 362 l 2,12,13
 87 362 87 362 68 381 c 128,-1,14
 49 400 49 400 49 428 c 128,-1,15
 49 456 49 456 68 475 c 128,-1,16
 87 494 87 494 115 494 c 2,17,-1
 447 494 l 1,18,-1
 447 648 l 1,19,20
 435 666 435 666 433 666 c 2,21,-1
 115 666 l 2,22,23
 89 666 89 666 69 686 c 128,-1,24
 49 706 49 706 49 733 c 128,-1,25
 49 760 49 760 68 780 c 128,-1,26
 87 800 87 800 115 800 c 2,27,-1
 345 800 l 1,28,-1
 55 1234 l 2,29,30
 39 1256 39 1256 45 1284 c 128,-1,31
 51 1312 51 1312 73 1326 c 0,32,33
 97 1340 97 1340 123 1334 c 128,-1,34
 149 1328 149 1328 165 1304 c 2,35,-1
 505 800 l 1,36,-1
 521 800 l 1,37,-1
 857 1304 l 2,38,39
 873 1326 873 1326 902 1332 c 128,-1,40
 931 1338 931 1338 953 1322 c 128,-1,41
 975 1306 975 1306 981 1280 c 128,-1,42
 987 1254 987 1254 973 1232 c 0,43,44
 683 800 683 800 681 800 c 1,45,-1
 911 800 l 2,46,47
 939 800 939 800 958 780 c 128,-1,48
 977 760 977 760 977 733 c 128,-1,49
 977 706 977 706 957 686 c 128,-1,50
 937 666 937 666 911 666 c 2,51,-1
 593 666 l 1,52,-1
 581 648 l 1,53,-1
 581 494 l 1,54,-1
 911 494 l 2,55,56
 939 494 939 494 958 475 c 128,-1,0
 977 456 977 456 977 428 c 128,-1,1
EndSplineSet
Validated: 1
EndChar

StartChar: section
Encoding: 167 167 102
Width: 814
Flags: W
HStem: -3 126<131.275 499.015> 25 122<134.752 350.48> 1158 128<315.275 647.885>
VStem: 87 127<599.274 736.183> 156 131<1000.9 1126.56> 528 130<154.568 290.417> 599 128<545.262 679.719>
LayerCount: 2
Fore
SplineSet
255 879 m 1,0,1
 156 940 156 940 156 1055 c 128,-1,2
 156 1170 156 1170 234.5 1221.5 c 128,-1,3
 313 1273 313 1273 374.5 1279.5 c 128,-1,4
 436 1286 436 1286 494 1286 c 128,-1,5
 552 1286 552 1286 616 1276 c 0,6,7
 657 1267 657 1267 662.5 1228.5 c 128,-1,8
 668 1190 668 1190 648.5 1167.5 c 128,-1,9
 629 1145 629 1145 587 1151.5 c 128,-1,10
 545 1158 545 1158 520 1158 c 2,11,-1
 487 1158 l 2,12,13
 438 1156 438 1156 397.5 1152 c 128,-1,14
 357 1148 357 1148 322 1120.5 c 128,-1,15
 287 1093 287 1093 287 1055 c 0,16,17
 287 1049 287 1049 287.5 1039 c 128,-1,18
 288 1029 288 1029 311 1000 c 1,19,-1
 651 777 l 1,20,21
 691 742 691 742 704 714 c 0,22,23
 727 663 727 663 727 603 c 128,-1,24
 727 543 727 543 681.5 486 c 128,-1,25
 636 429 636 429 558 403 c 1,26,-1
 577 387 l 2,27,28
 620 352 620 352 633 325 c 0,29,30
 658 273 658 273 658 206.5 c 128,-1,31
 658 140 658 140 590 75 c 0,32,33
 510 -3 510 -3 369 -3 c 0,34,35
 295 -3 295 -3 159 25 c 0,36,37
 121 33 121 33 115.5 69 c 128,-1,38
 110 105 110 105 134 127 c 128,-1,39
 158 149 158 149 189.5 147 c 128,-1,40
 221 145 221 145 270 134 c 128,-1,41
 319 123 319 123 351.5 123 c 128,-1,42
 384 123 384 123 420.5 128 c 128,-1,43
 457 133 457 133 492.5 161 c 128,-1,44
 528 189 528 189 528 225 c 0,45,46
 528 257 528 257 496 283 c 2,47,-1
 171 499 l 1,48,49
 87 563 87 563 87 658.5 c 128,-1,50
 87 754 87 754 138 806 c 128,-1,51
 189 858 189 858 255 879 c 1,0,1
430 512 m 0,52,53
 513 512 513 512 556 546 c 128,-1,54
 599 580 599 580 599 614 c 128,-1,55
 599 648 599 648 566 673 c 2,56,-1
 435 761 l 1,57,58
 394 765 394 765 362 765 c 0,59,60
 336 765 336 765 326 764 c 0,61,62
 287 760 287 760 250 730 c 0,63,64
 214 702 214 702 214 663 c 0,65,66
 214 636 214 636 240 611 c 1,67,-1
 365 528 l 1,68,69
 388 523 388 523 400.5 517.5 c 128,-1,70
 413 512 413 512 430 512 c 0,52,53
EndSplineSet
Validated: 1
EndChar

StartChar: dieresis
Encoding: 168 168 103
Width: 756
Flags: W
HStem: 1348 195<149.596 240.404 539.596 630.404>
VStem: 130 130<1367.6 1523.4> 520 130<1367.6 1523.4>
LayerCount: 2
Fore
SplineSet
195 1543 m 128,-1,1
 222 1543 222 1543 241 1524 c 128,-1,2
 260 1505 260 1505 260 1478 c 2,3,-1
 260 1413 l 2,4,5
 260 1386 260 1386 241 1367 c 128,-1,6
 222 1348 222 1348 195 1348 c 128,-1,7
 168 1348 168 1348 149 1367 c 128,-1,8
 130 1386 130 1386 130 1413 c 2,9,-1
 130 1478 l 2,10,11
 130 1505 130 1505 149 1524 c 128,-1,0
 168 1543 168 1543 195 1543 c 128,-1,1
585 1543 m 128,-1,13
 612 1543 612 1543 631 1524 c 128,-1,14
 650 1505 650 1505 650 1478 c 2,15,-1
 650 1413 l 2,16,17
 650 1386 650 1386 631 1367 c 128,-1,18
 612 1348 612 1348 585 1348 c 128,-1,19
 558 1348 558 1348 539 1367 c 128,-1,20
 520 1386 520 1386 520 1413 c 2,21,-1
 520 1478 l 2,22,23
 520 1505 520 1505 539 1524 c 128,-1,12
 558 1543 558 1543 585 1543 c 128,-1,13
EndSplineSet
Validated: 1
EndChar

StartChar: copyright
Encoding: 169 169 104
Width: 1379
Flags: W
HStem: 0 118<442.828 881.083> 234 120<535.911 819.436> 978 124<537.972 835.253> 1208 118<445.812 878.099>
VStem: -2 120<443.661 881.48> 386 120<387.002 947.059> 1206 118<442.917 881.313>
LayerCount: 2
Fore
SplineSet
1324 662 m 128,-1,1
 1324 388 1324 388 1130 194 c 128,-1,2
 936 0 936 0 662 0 c 128,-1,3
 388 0 388 0 193 195 c 128,-1,4
 -2 390 -2 390 -2 663 c 128,-1,5
 -2 936 -2 936 193 1131 c 128,-1,6
 388 1326 388 1326 662 1326 c 128,-1,7
 936 1326 936 1326 1130 1131 c 128,-1,0
 1324 936 1324 936 1324 662 c 128,-1,1
1206 662 m 128,-1,9
 1206 888 1206 888 1047 1048 c 128,-1,10
 888 1208 888 1208 662 1208 c 128,-1,11
 436 1208 436 1208 277 1048 c 128,-1,12
 118 888 118 888 118 662 c 128,-1,13
 118 436 118 436 277 277 c 128,-1,14
 436 118 436 118 662 118 c 128,-1,15
 888 118 888 118 1047 277 c 128,-1,8
 1206 436 1206 436 1206 662 c 128,-1,9
820 337 m 128,-1,17
 838 320 838 320 838 295 c 128,-1,18
 838 270 838 270 820 252 c 128,-1,19
 802 234 802 234 778 234 c 2,20,-1
 612 234 l 2,21,22
 504 234 504 234 445 302 c 128,-1,23
 386 370 386 370 386 460 c 2,24,-1
 386 874 l 2,25,26
 386 982 386 982 466 1054 c 1,27,28
 532 1102 532 1102 612 1102 c 2,29,-1
 778 1102 l 2,30,31
 802 1102 802 1102 820 1084 c 128,-1,32
 838 1066 838 1066 838 1041 c 128,-1,33
 838 1016 838 1016 820 997 c 128,-1,34
 802 978 802 978 778 978 c 2,35,-1
 612 978 l 2,36,37
 568 978 568 978 537 948 c 128,-1,38
 506 918 506 918 506 874 c 2,39,-1
 506 460 l 2,40,41
 506 418 506 418 535 386 c 128,-1,42
 564 354 564 354 612 354 c 2,43,-1
 778 354 l 2,44,16
 802 354 802 354 820 337 c 128,-1,17
EndSplineSet
Validated: 1
EndChar

StartChar: ordfeminine
Encoding: 170 170 105
Width: 529
Flags: W
HStem: 562 102<40.5273 493.381> 706 104<147.428 380> 966 106<147.428 380> 1226 106<81 357.187>
VStem: 36 108<810.153 965.581> 380 104<810 966 1072 1205.19>
LayerCount: 2
Fore
SplineSet
484 760 m 2,0,1
 484 742 484 742 472 724 c 1,2,3
 454 706 454 706 430 706 c 2,4,-1
 176 706 l 2,5,6
 112 706 112 706 74 762 c 128,-1,7
 36 818 36 818 36 891 c 128,-1,8
 36 964 36 964 74 1018 c 128,-1,9
 112 1072 112 1072 176 1072 c 2,10,-1
 380 1072 l 1,11,-1
 380 1150 l 2,12,13
 380 1180 380 1180 358 1206 c 1,14,15
 332 1226 332 1226 302 1226 c 2,16,-1
 132 1226 l 2,17,18
 112 1226 112 1226 96 1243 c 128,-1,19
 80 1260 80 1260 80 1281 c 128,-1,20
 80 1302 80 1302 96 1317 c 128,-1,21
 112 1332 112 1332 132 1332 c 2,22,-1
 302 1332 l 2,23,24
 380 1332 380 1332 430 1282 c 1,25,26
 484 1234 484 1234 484 1150 c 2,27,-1
 484 760 l 2,0,1
494 614 m 128,-1,29
 494 594 494 594 477 578 c 128,-1,30
 460 562 460 562 440 562 c 2,31,-1
 90 562 l 2,32,33
 70 562 70 562 55 578 c 128,-1,34
 40 594 40 594 40 614 c 128,-1,35
 40 634 40 634 55 649 c 128,-1,36
 70 664 70 664 90 664 c 2,37,-1
 444 664 l 2,38,39
 464 664 464 664 479 649 c 128,-1,28
 494 634 494 634 494 614 c 128,-1,29
380 810 m 1,40,-1
 380 966 l 1,41,-1
 176 966 l 2,42,43
 144 966 144 966 144 888 c 128,-1,44
 144 810 144 810 176 810 c 2,45,-1
 380 810 l 1,40,-1
EndSplineSet
Validated: 1
EndChar

StartChar: guillemotleft
Encoding: 171 171 106
Width: 723
Flags: W
HStem: 363 601
VStem: -8 656
LayerCount: 2
Fore
SplineSet
634 470 m 2,0,1
 650 448 650 448 648 422 c 128,-1,2
 646 396 646 396 626 378 c 128,-1,3
 606 360 606 360 575 363 c 128,-1,4
 544 366 544 366 528 388 c 2,5,-1
 330 620 l 2,6,7
 314 638 314 638 314 664 c 128,-1,8
 314 690 314 690 334 710 c 2,9,-1
 528 938 l 2,10,11
 546 962 546 962 576 964 c 128,-1,12
 606 966 606 966 626 947 c 128,-1,13
 646 928 646 928 648 900 c 128,-1,14
 650 872 650 872 632 852 c 2,15,-1
 470 662 l 1,16,-1
 634 470 l 2,0,1
310 470 m 2,17,18
 328 448 328 448 326 422 c 128,-1,19
 324 396 324 396 303 378 c 128,-1,20
 282 360 282 360 252 363 c 128,-1,21
 222 366 222 366 206 388 c 2,22,-1
 6 620 l 2,23,24
 -8 640 -8 640 -8 664 c 128,-1,25
 -8 688 -8 688 10 710 c 2,26,-1
 206 938 l 2,27,28
 224 962 224 962 254 964 c 128,-1,29
 284 966 284 966 304 947 c 128,-1,30
 324 928 324 928 326 900 c 128,-1,31
 328 872 328 872 310 852 c 2,32,-1
 146 662 l 1,33,-1
 310 470 l 2,17,18
EndSplineSet
Validated: 1
EndChar

StartChar: uni00AD
Encoding: 173 173 107
Width: 690
Flags: W
HStem: 395 131<86.8906 603.05>
VStem: 85 520<397.303 523.697>
LayerCount: 2
Fore
SplineSet
539 526 m 2,0,1
 605 526 605 526 605 460.5 c 128,-1,2
 605 395 605 395 539 395 c 2,3,-1
 149 395 l 2,4,5
 85 395 85 395 85 460.5 c 128,-1,6
 85 526 85 526 149 526 c 2,7,-1
 539 526 l 2,0,1
EndSplineSet
Validated: 1
EndChar

StartChar: registered
Encoding: 174 174 108
Width: 1373
Flags: W
HStem: 0 118<444.533 875.6> 564 122<526 664> 978 124<526 777.5> 1208 118<444.533 875.6>
VStem: -2 118<446.7 878.433> 406 120<248.564 564 686 978> 822 120<729.009 932.758> 1206 116<446.818 879.182>
LayerCount: 2
Fore
SplineSet
1128 1132 m 128,-1,1
 1322 938 1322 938 1322 663 c 128,-1,2
 1322 388 1322 388 1128 194 c 128,-1,3
 934 0 934 0 660 0 c 128,-1,4
 386 0 386 0 192 194 c 128,-1,5
 -2 388 -2 388 -2 663 c 128,-1,6
 -2 938 -2 938 192 1132 c 128,-1,7
 386 1326 386 1326 660 1326 c 128,-1,0
 934 1326 934 1326 1128 1132 c 128,-1,1
1045 278 m 128,-1,9
 1206 438 1206 438 1206 663 c 128,-1,10
 1206 888 1206 888 1045 1048 c 128,-1,11
 884 1208 884 1208 660 1208 c 128,-1,12
 436 1208 436 1208 276 1047 c 128,-1,13
 116 886 116 886 116 662 c 128,-1,14
 116 438 116 438 276 278 c 128,-1,15
 436 118 436 118 660 118 c 128,-1,8
 884 118 884 118 1045 278 c 128,-1,9
942 832 m 0,16,17
 942 828 942 828 942 823 c 0,18,19
 942 658 942 658 790 582 c 1,20,-1
 936 322 l 2,21,22
 950 294 950 294 932 262 c 128,-1,23
 914 230 914 230 880 230 c 128,-1,24
 846 230 846 230 830 260 c 2,25,-1
 664 564 l 1,26,-1
 526 564 l 1,27,-1
 526 290 l 2,28,29
 526 266 526 266 509 248 c 128,-1,30
 492 230 492 230 467 230 c 128,-1,31
 442 230 442 230 424 248 c 128,-1,32
 406 266 406 266 406 290 c 2,33,-1
 406 1036 l 2,34,35
 406 1066 406 1066 424 1082 c 1,36,37
 440 1102 440 1102 466 1102 c 2,38,-1
 674 1102 l 2,39,40
 786 1102 786 1102 864 1023 c 128,-1,41
 942 944 942 944 942 832 c 0,16,17
778 729 m 128,-1,43
 822 772 822 772 822 831 c 128,-1,44
 822 890 822 890 778 934 c 128,-1,45
 734 978 734 978 674 978 c 2,46,-1
 526 978 l 1,47,-1
 526 686 l 1,48,-1
 674 686 l 2,49,42
 734 686 734 686 778 729 c 128,-1,43
EndSplineSet
Validated: 1
EndChar

StartChar: macron
Encoding: 175 175 109
Width: 723
Flags: W
HStem: 1466 132<20.6265 639.374>
VStem: 0 660<1485.6 1578.4>
LayerCount: 2
Fore
SplineSet
660 1532 m 128,-1,1
 660 1504 660 1504 640 1485 c 128,-1,2
 620 1466 620 1466 594 1466 c 2,3,-1
 66 1466 l 2,4,5
 40 1466 40 1466 20 1485 c 128,-1,6
 0 1504 0 1504 0 1532 c 128,-1,7
 0 1560 0 1560 20 1579 c 128,-1,8
 40 1598 40 1598 66 1598 c 2,9,-1
 594 1598 l 2,10,11
 620 1598 620 1598 640 1579 c 128,-1,0
 660 1560 660 1560 660 1532 c 128,-1,1
EndSplineSet
Validated: 1
EndChar

StartChar: degree
Encoding: 176 176 110
Width: 564
Flags: W
HStem: 1107 129<217.431 343.559> 1368 128<217.431 343.559>
VStem: 87 128<1239.1 1365.65> 346 131<1239.1 1365.65>
LayerCount: 2
Fore
SplineSet
416 1447.5 m 128,-1,1
 477 1399 477 1399 477 1301.5 c 128,-1,2
 477 1204 477 1204 416 1155.5 c 128,-1,3
 355 1107 355 1107 281.5 1107 c 128,-1,4
 208 1107 208 1107 147.5 1155.5 c 128,-1,5
 87 1204 87 1204 87 1301.5 c 128,-1,6
 87 1399 87 1399 147.5 1447.5 c 128,-1,7
 208 1496 208 1496 281.5 1496 c 128,-1,0
 355 1496 355 1496 416 1447.5 c 128,-1,1
346 1302 m 256,8,9
 346 1368 346 1368 280.5 1368 c 128,-1,10
 215 1368 215 1368 215 1302 c 256,11,12
 215 1236 215 1236 280.5 1236 c 128,-1,13
 346 1236 346 1236 346 1302 c 256,8,9
EndSplineSet
Validated: 1
EndChar

StartChar: plusminus
Encoding: 177 177 111
Width: 1024
Flags: W
HStem: 220 130<228.891 795.05> 635 130<228.891 447 577 795.05> 965 20G<479.5 544.5>
VStem: 447 130<416.891 635 765 983.05>
LayerCount: 2
Fore
SplineSet
731 765 m 2,0,1
 797 765 797 765 797 700 c 128,-1,2
 797 635 797 635 731 635 c 2,3,-1
 577 635 l 1,4,-1
 577 479 l 2,5,6
 577 415 577 415 512 415 c 128,-1,7
 447 415 447 415 447 479 c 2,8,-1
 447 635 l 1,9,-1
 291 635 l 2,10,11
 227 635 227 635 227 700 c 128,-1,12
 227 765 227 765 291 765 c 2,13,-1
 447 765 l 1,14,-1
 447 919 l 2,15,16
 447 985 447 985 512 985 c 128,-1,17
 577 985 577 985 577 919 c 2,18,-1
 577 765 l 1,19,-1
 731 765 l 2,0,1
731 350 m 2,20,21
 797 350 797 350 797 285 c 128,-1,22
 797 220 797 220 731 220 c 2,23,-1
 291 220 l 2,24,25
 227 220 227 220 227 285 c 128,-1,26
 227 350 227 350 291 350 c 2,27,-1
 731 350 l 2,20,21
EndSplineSet
Validated: 1
EndChar

StartChar: uni00B2
Encoding: 178 178 112
Width: 910
Flags: W
HStem: 699 110<397 665.342> 1284 21G<271.5 314.5> 1401 110<378.054 532.139>
VStem: 556 110<1200.66 1376.67>
LayerCount: 2
Fore
SplineSet
299 1284 m 0,0,1
 244 1284 244 1284 244 1339 c 0,2,3
 244 1352 244 1352 249 1363 c 0,4,5
 326 1511 326 1511 455 1511 c 0,6,7
 543 1511 543 1511 604.5 1449.5 c 128,-1,8
 666 1388 666 1388 666 1314 c 128,-1,9
 666 1240 666 1240 628 1179 c 2,10,-1
 397 809 l 1,11,-1
 611 809 l 2,12,13
 666 809 666 809 666 754 c 128,-1,14
 666 699 666 699 611 699 c 2,15,-1
 299 699 l 2,16,17
 244 699 244 699 244 754 c 0,18,19
 244 770 244 770 253 785 c 2,20,-1
 539 1244 l 2,21,22
 556 1272 556 1272 556 1307 c 128,-1,23
 556 1342 556 1342 526.5 1371.5 c 128,-1,24
 497 1401 497 1401 447.5 1401 c 128,-1,25
 398 1401 398 1401 346 1311 c 0,26,27
 330 1284 330 1284 299 1284 c 0,0,1
EndSplineSet
Validated: 1
EndChar

StartChar: uni00B3
Encoding: 179 179 113
Width: 910
Flags: W
HStem: 699 110<232.646 513.575> 1089 110<310.646 513.575> 1401 110<232.646 513.575>
VStem: 544 110<839.425 1058.58 1223.1 1376.67>
LayerCount: 2
Fore
SplineSet
232 1456 m 128,-1,1
 232 1511 232 1511 286 1511 c 2,2,-1
 442 1511 l 2,3,4
 531 1511 531 1511 592.5 1449.5 c 128,-1,5
 654 1388 654 1388 654 1296 c 128,-1,6
 654 1204 654 1204 585 1144 c 1,7,8
 654 1082 654 1082 654 988 c 2,9,-1
 654 910 l 2,10,11
 654 823 654 823 591.5 761 c 128,-1,12
 529 699 529 699 442 699 c 2,13,-1
 286 699 l 2,14,15
 232 699 232 699 232 754 c 128,-1,16
 232 809 232 809 286 809 c 2,17,-1
 442 809 l 2,18,19
 485 809 485 809 514.5 838.5 c 128,-1,20
 544 868 544 868 544 910 c 2,21,-1
 544 988 l 2,22,23
 544 1030 544 1030 514.5 1059.5 c 128,-1,24
 485 1089 485 1089 442 1089 c 2,25,-1
 364 1089 l 2,26,27
 310 1089 310 1089 310 1144 c 128,-1,28
 310 1199 310 1199 364 1199 c 2,29,-1
 442 1199 l 2,30,31
 485 1199 485 1199 514.5 1228.5 c 128,-1,32
 544 1258 544 1258 544 1300 c 128,-1,33
 544 1342 544 1342 514.5 1371.5 c 128,-1,34
 485 1401 485 1401 442 1401 c 2,35,-1
 286 1401 l 2,36,0
 232 1401 232 1401 232 1456 c 128,-1,1
EndSplineSet
Validated: 1
EndChar

StartChar: acute
Encoding: 180 180 114
Width: 648
Flags: W
HStem: 1383 253
VStem: 143 365
LayerCount: 2
Fore
SplineSet
464 1636 m 128,-1,1
 490 1627 490 1627 503 1603 c 128,-1,2
 516 1579 516 1579 508 1555 c 128,-1,3
 500 1531 500 1531 476 1517 c 2,4,-1
 234 1387 l 2,5,6
 216 1375 216 1375 185 1383 c 128,-1,7
 154 1391 154 1391 143 1415 c 128,-1,8
 132 1439 132 1439 139 1465 c 128,-1,9
 146 1491 146 1491 172 1505 c 2,10,-1
 414 1631 l 2,11,0
 438 1645 438 1645 464 1636 c 128,-1,1
EndSplineSet
Validated: 1
EndChar

StartChar: mu
Encoding: 181 181 115
Width: 831
Flags: W
HStem: 0 131<295.584 650> 890 20G<162.5 227.5 682.25 746.75>
VStem: 130 130<-330.05 28 166.584 908.05> 650 129<131 908.05>
LayerCount: 2
Fore
SplineSet
779 64 m 2,0,1
 779 37 779 37 761.5 18.5 c 128,-1,2
 744 0 744 0 714 0 c 2,3,-1
 389 0 l 2,4,5
 310 0 310 0 260 28 c 1,6,-1
 260 -266 l 2,7,8
 260 -332 260 -332 195 -332 c 128,-1,9
 130 -332 130 -332 130 -266 c 2,10,-1
 130 844 l 2,11,12
 130 910 130 910 195 910 c 128,-1,13
 260 910 260 910 260 844 c 2,14,-1
 260 259 l 2,15,16
 260 200 260 200 294.5 165.5 c 128,-1,17
 329 131 329 131 389 131 c 2,18,-1
 650 131 l 1,19,-1
 650 844 l 2,20,21
 650 910 650 910 714.5 910 c 128,-1,22
 779 910 779 910 779 844 c 2,23,-1
 779 64 l 2,0,1
EndSplineSet
Validated: 1
EndChar

StartChar: paragraph
Encoding: 182 182 116
Width: 854
Flags: W
HStem: 0 21G<473 525 689.75 741.25> 1194 106<551 666>
VStem: 87 464<887.995 1167.38> 447 104<0.396729 754> 664 103<0.396729 1194>
LayerCount: 2
Fore
SplineSet
767 65 m 2,0,1
 767 0 767 0 715.5 0 c 128,-1,2
 664 0 664 0 664 65 c 2,3,-1
 666 1194 l 1,4,-1
 551 1194 l 1,5,-1
 551 65 l 2,6,7
 551 0 551 0 499 0 c 128,-1,8
 447 0 447 0 447 65 c 2,9,-1
 447 754 l 1,10,-1
 412 754 l 2,11,12
 248 754 248 754 167.5 841 c 128,-1,13
 87 928 87 928 87 1026 c 128,-1,14
 87 1124 87 1124 166 1212 c 128,-1,15
 245 1300 245 1300 398 1300 c 0,16,17
 555 1300 555 1300 712 1300 c 0,18,19
 767 1300 767 1300 767 1233 c 2,20,-1
 767 65 l 2,0,1
EndSplineSet
Validated: 1
EndChar

StartChar: periodcentered
Encoding: 183 183 117
Width: 389
Flags: W
HStem: 334 130<131.905 257.095>
VStem: 130 129<335.92 462.08>
LayerCount: 2
Fore
SplineSet
259 399 m 128,-1,1
 259 334 259 334 194.5 334 c 128,-1,2
 130 334 130 334 130 399 c 128,-1,3
 130 464 130 464 194.5 464 c 128,-1,0
 259 464 259 464 259 399 c 128,-1,1
EndSplineSet
Validated: 1
EndChar

StartChar: cedilla
Encoding: 184 184 118
Width: 0
Flags: W
HStem: -279 84<415.016 509.561> -109 195<420.627 493.799>
VStem: 408 86<-40.4219 86>
LayerCount: 2
Fore
SplineSet
496 86 m 1,0,-1
 494 -26 l 1,1,2
 552 -34 552 -34 582 -90 c 0,3,4
 602 -128 602 -128 602 -161 c 256,5,6
 602 -194 602 -194 581 -223 c 0,7,8
 541 -279 541 -279 471 -279 c 0,9,10
 396 -279 396 -279 362 -212 c 0,11,12
 342 -173 342 -173 382 -156 c 0,13,14
 418 -141 418 -141 438 -174 c 0,15,16
 450 -194 450 -194 474 -195 c 0,17,18
 496 -196 496 -196 510 -175 c 128,-1,19
 524 -154 524 -154 510 -129 c 128,-1,20
 496 -104 496 -104 468 -109 c 128,-1,21
 440 -114 440 -114 420 -100 c 0,22,23
 408 -92 408 -92 408 -50 c 2,24,-1
 408 86 l 1,25,-1
 496 86 l 1,0,-1
EndSplineSet
Validated: 1
EndChar

StartChar: uni00B9
Encoding: 185 185 119
Width: 525
Flags: W
VStem: 212 115<859.987 1348>
LayerCount: 2
Fore
SplineSet
180 1316 m 2,0,1
 163 1299 163 1299 138 1299 c 128,-1,2
 113 1299 113 1299 97.5 1314.5 c 128,-1,3
 82 1330 82 1330 82 1355 c 128,-1,4
 82 1380 82 1380 99 1397 c 2,5,-1
 226 1524 l 2,6,7
 246 1544 246 1544 271 1544 c 128,-1,8
 296 1544 296 1544 311.5 1528.5 c 128,-1,9
 327 1513 327 1513 327 1487 c 2,10,-1
 327 902 l 2,11,12
 327 875 327 875 311.5 859.5 c 128,-1,13
 296 844 296 844 269.5 844 c 128,-1,14
 243 844 243 844 227.5 859.5 c 128,-1,15
 212 875 212 875 212 902 c 2,16,-1
 212 1348 l 1,17,-1
 180 1316 l 2,0,1
EndSplineSet
Validated: 1
EndChar

StartChar: ordmasculine
Encoding: 186 186 120
Width: 523
Flags: W
HStem: 1388 234<231 289>
VStem: 146 64<1457.66 1552.34> 314 62<1457.66 1552.34>
LayerCount: 2
Fore
SplineSet
376 1505 m 128,-1,1
 376 1433 376 1433 318 1403 c 0,2,3
 289 1388 289 1388 260 1388 c 128,-1,4
 231 1388 231 1388 203 1403 c 0,5,6
 146 1433 146 1433 146 1505 c 128,-1,7
 146 1577 146 1577 203 1607 c 0,8,9
 231 1622 231 1622 260 1622 c 128,-1,10
 289 1622 289 1622 318 1607 c 0,11,0
 376 1577 376 1577 376 1505 c 128,-1,1
314 1505 m 128,-1,13
 314 1539 314 1539 288 1552 c 128,-1,14
 262 1565 262 1565 236 1552 c 128,-1,15
 210 1539 210 1539 210 1505 c 128,-1,16
 210 1471 210 1471 236 1458 c 128,-1,17
 262 1445 262 1445 288 1458 c 128,-1,12
 314 1471 314 1471 314 1505 c 128,-1,13
EndSplineSet
Validated: 1
EndChar

StartChar: guillemotright
Encoding: 187 187 121
Width: 711
Flags: W
HStem: 363 601
VStem: 31 656
LayerCount: 2
Fore
SplineSet
669 710 m 2,0,1
 687 688 687 688 687 664 c 128,-1,2
 687 640 687 640 673 620 c 2,3,-1
 473 388 l 2,4,5
 457 366 457 366 427 363 c 128,-1,6
 397 360 397 360 376 378 c 128,-1,7
 355 396 355 396 353 422 c 128,-1,8
 351 448 351 448 369 470 c 2,9,-1
 533 662 l 1,10,-1
 369 852 l 2,11,12
 351 872 351 872 353 900 c 128,-1,13
 355 928 355 928 375 947 c 128,-1,14
 395 966 395 966 425 964 c 128,-1,15
 455 962 455 962 473 938 c 2,16,-1
 669 710 l 2,0,1
345 710 m 2,17,18
 365 690 365 690 365 664 c 128,-1,19
 365 638 365 638 349 620 c 2,20,-1
 151 388 l 2,21,22
 135 366 135 366 104 363 c 128,-1,23
 73 360 73 360 53 378 c 128,-1,24
 33 396 33 396 31 422 c 128,-1,25
 29 448 29 448 45 470 c 2,26,-1
 209 662 l 1,27,-1
 47 852 l 2,28,29
 29 872 29 872 31 900 c 128,-1,30
 33 928 33 928 53 947 c 128,-1,31
 73 966 73 966 103 964 c 128,-1,32
 133 962 133 962 151 938 c 2,33,-1
 345 710 l 2,17,18
EndSplineSet
Validated: 1
EndChar

StartChar: onequarter
Encoding: 188 188 122
Width: 1101
Flags: W
HStem: -1 21G<882 908.5> 129 115<744 838 953 1034.53>
VStem: 186 114<783.987 1272> 742 111<607.714 683.467> 838 115<15.4717 130 244 359.013>
LayerCount: 2
Fore
SplineSet
153 1240 m 2,0,1
 136 1223 136 1223 111.5 1223 c 128,-1,2
 87 1223 87 1223 71.5 1238.5 c 128,-1,3
 56 1254 56 1254 56 1279 c 128,-1,4
 56 1304 56 1304 72 1321 c 2,5,-1
 199 1448 l 2,6,7
 219 1468 219 1468 244.5 1468 c 128,-1,8
 270 1468 270 1468 285 1452.5 c 128,-1,9
 300 1437 300 1437 300 1410 c 2,10,-1
 300 826 l 2,11,12
 300 799 300 799 285 783.5 c 128,-1,13
 270 768 270 768 243 768 c 128,-1,14
 216 768 216 768 201 783.5 c 128,-1,15
 186 799 186 799 186 826 c 2,16,-1
 186 1272 l 1,17,-1
 153 1240 l 2,0,1
1058 1210 m 128,-1,19
 1076 1192 1076 1192 1076 1169 c 128,-1,20
 1076 1146 1076 1146 1056 1128 c 2,21,-1
 126 278 l 2,22,23
 108 262 108 262 85 262 c 128,-1,24
 62 262 62 262 44 280 c 128,-1,25
 26 298 26 298 26 321 c 128,-1,26
 26 344 26 344 46 362 c 2,27,-1
 976 1212 l 2,28,29
 994 1228 994 1228 1017 1228 c 128,-1,18
 1040 1228 1040 1228 1058 1210 c 128,-1,19
610 187 m 0,30,31
 610 194 610 194 612 202 c 2,32,-1
 742 658 l 2,33,34
 747 674 747 674 757 684 c 0,35,36
 773 699 773 699 799 699 c 256,37,38
 825 699 825 699 840 684 c 0,39,40
 857 667 857 667 855 642 c 0,41,42
 855 633 855 633 853 625 c 2,43,-1
 744 244 l 1,44,-1
 838 244 l 1,45,-1
 838 317 l 2,46,47
 838 344 838 344 853 360 c 0,48,49
 869 375 869 375 895.5 375 c 128,-1,50
 922 375 922 375 937.5 359.5 c 128,-1,51
 953 344 953 344 953 317 c 2,52,-1
 953 244 l 1,53,-1
 993 244 l 2,54,55
 1020 244 1020 244 1035 229 c 128,-1,56
 1050 214 1050 214 1050 187 c 256,57,58
 1050 160 1050 160 1035 145 c 0,59,60
 1020 129 1020 129 993 129 c 0,61,62
 973 130 973 130 953 130 c 1,63,-1
 953 57 l 2,64,65
 953 30 953 30 937 15 c 0,66,67
 922 -1 922 -1 895 -1 c 0,68,69
 869 -1 869 -1 854 15 c 0,70,71
 838 30 838 30 838 57 c 2,72,-1
 838 130 l 1,73,-1
 668 129 l 2,74,75
 641 129 641 129 626 145 c 0,76,77
 612 158 612 158 610 187 c 0,30,31
EndSplineSet
Validated: 1
EndChar

StartChar: onehalf
Encoding: 189 189 123
Width: 1310
Flags: W
HStem: 20 115<899 1097.53> 605 115<862.47 994.119>
VStem: 296 114<783.987 1272> 999 114<444.25 599.417>
LayerCount: 2
Fore
SplineSet
1162 1210 m 128,-1,1
 1180 1192 1180 1192 1180 1169 c 128,-1,2
 1180 1146 1180 1146 1160 1128 c 2,3,-1
 230 278 l 2,4,5
 212 262 212 262 189 262 c 128,-1,6
 166 262 166 262 148 280 c 128,-1,7
 130 298 130 298 130 321 c 128,-1,8
 130 344 130 344 150 362 c 2,9,-1
 1080 1212 l 2,10,11
 1098 1228 1098 1228 1121 1228 c 128,-1,0
 1144 1228 1144 1228 1162 1210 c 128,-1,1
263 1240 m 2,12,13
 246 1223 246 1223 221 1223 c 0,14,15
 197 1223 197 1223 181 1238 c 0,16,17
 166 1254 166 1254 166 1279 c 0,18,19
 166 1305 166 1305 182 1321 c 2,20,-1
 309 1448 l 2,21,22
 329 1468 329 1468 354 1468 c 0,23,24
 382 1468 382 1468 395 1453 c 0,25,26
 410 1431 410 1431 410 1410 c 2,27,-1
 410 825 l 2,28,29
 410 799 410 799 395 783.5 c 128,-1,30
 380 768 380 768 353 768 c 0,31,32
 322 768 322 768 311 783 c 0,33,34
 296 806 296 806 296 825 c 2,35,-1
 296 1272 l 1,36,-1
 263 1240 l 2,12,13
926 720 m 0,37,38
 1004 720 1004 720 1059 665 c 0,39,40
 1113 611 1113 611 1113 536 c 0,41,42
 1113 534 1113 534 1113 533 c 0,43,44
 1113 478 1113 478 1080 426 c 2,45,-1
 899 135 l 1,46,-1
 1056 135 l 2,47,48
 1083 135 1083 135 1098 119.5 c 128,-1,49
 1113 104 1113 104 1113 78 c 0,50,51
 1113 51 1113 51 1098 35.5 c 128,-1,52
 1083 20 1083 20 1056 20 c 2,53,-1
 796 20 l 2,54,55
 769 20 769 20 754 35 c 0,56,57
 738 52 738 52 739 78 c 0,58,59
 739 96 739 96 748 110 c 2,60,-1
 986 492 l 2,61,62
 999 513 999 513 999 537 c 0,63,64
 999 563 999 563 977 584 c 0,65,66
 956 605 956 605 926 605 c 0,67,68
 887 605 887 605 846 536 c 0,69,70
 828 507 828 507 796 508 c 0,71,72
 769 508 769 508 754 523 c 0,73,74
 738 539 738 539 739 565 c 0,75,76
 739 578 739 578 744 590 c 0,77,78
 812 720 812 720 926 720 c 0,37,38
EndSplineSet
Validated: 1
EndChar

StartChar: threequarters
Encoding: 190 190 124
Width: 1310
Flags: W
HStem: -1 21G<974 1000.5> 129 115<836 930 1045 1126.53> 809 115<242.472 465.311> 1134 115<307.472 465.311> 1394 115<242.472 479.965>
VStem: 487 115<945.658 1127.91 1263.09 1387.87> 834 111<607.714 683.467> 930 115<15.4717 130 244 359.013>
LayerCount: 2
Fore
SplineSet
1162 1210 m 128,-1,1
 1180 1192 1180 1192 1180 1169 c 128,-1,2
 1180 1146 1180 1146 1160 1128 c 2,3,-1
 230 278 l 2,4,5
 212 262 212 262 189 262 c 128,-1,6
 166 262 166 262 148 280 c 128,-1,7
 130 298 130 298 130 321 c 128,-1,8
 130 344 130 344 150 362 c 2,9,-1
 1080 1212 l 2,10,11
 1098 1228 1098 1228 1121 1228 c 128,-1,0
 1144 1228 1144 1228 1162 1210 c 128,-1,1
702 187 m 0,12,13
 702 194 702 194 704 202 c 2,14,-1
 834 658 l 2,15,16
 839 674 839 674 849 684 c 0,17,18
 865 699 865 699 891 699 c 256,19,20
 917 699 917 699 932 684 c 0,21,22
 949 667 949 667 947 642 c 0,23,24
 947 633 947 633 945 625 c 2,25,-1
 836 244 l 1,26,-1
 930 244 l 1,27,-1
 930 317 l 2,28,29
 930 344 930 344 945 360 c 0,30,31
 961 375 961 375 987.5 375 c 128,-1,32
 1014 375 1014 375 1029.5 359.5 c 128,-1,33
 1045 344 1045 344 1045 317 c 2,34,-1
 1045 244 l 1,35,-1
 1085 244 l 2,36,37
 1112 244 1112 244 1127 229 c 128,-1,38
 1142 214 1142 214 1142 187 c 256,39,40
 1142 160 1142 160 1127 145 c 0,41,42
 1112 129 1112 129 1085 129 c 0,43,44
 1065 130 1065 130 1045 130 c 1,45,-1
 1045 57 l 2,46,47
 1045 30 1045 30 1029 15 c 0,48,49
 1014 -1 1014 -1 987 -1 c 0,50,51
 961 -1 961 -1 946 15 c 0,52,53
 930 30 930 30 930 57 c 2,54,-1
 930 130 l 1,55,-1
 760 129 l 2,56,57
 733 129 733 129 718 145 c 0,58,59
 704 158 704 158 702 187 c 0,12,13
602 1314 m 0,60,61
 602 1243 602 1243 550 1191 c 1,62,63
 602 1138 602 1138 602 1061 c 2,64,-1
 602 996 l 2,65,66
 602 919 602 919 546 864 c 0,67,68
 491 809 491 809 414 809 c 2,69,-1
 284 809 l 2,70,71
 257 809 257 809 242 824 c 128,-1,72
 227 839 227 839 227 866 c 256,73,74
 227 893 227 893 242 908 c 0,75,76
 257 924 257 924 284 924 c 2,77,-1
 414 924 l 2,78,79
 444 924 444 924 466 945 c 0,80,81
 487 966 487 966 487 996 c 2,82,-1
 487 1061 l 2,83,84
 487 1091 487 1091 465 1112 c 0,85,86
 444 1134 444 1134 414 1134 c 2,87,-1
 349 1134 l 2,88,89
 322 1134 322 1134 307 1149 c 128,-1,90
 292 1164 292 1164 292 1191 c 256,91,92
 292 1218 292 1218 307 1233 c 0,93,94
 322 1249 322 1249 349 1249 c 2,95,-1
 414 1249 l 2,96,97
 444 1249 444 1249 466 1270 c 0,98,99
 487 1291 487 1291 487 1321 c 256,100,101
 487 1351 487 1351 465 1372 c 0,102,103
 444 1394 444 1394 414 1394 c 2,104,-1
 284 1394 l 2,105,106
 257 1394 257 1394 242 1409 c 128,-1,107
 227 1424 227 1424 227 1451 c 256,108,109
 227 1478 227 1478 242 1493 c 0,110,111
 257 1509 257 1509 284 1509 c 2,112,-1
 414 1509 l 2,113,114
 492 1509 492 1509 547 1454 c 0,115,116
 601 1400 601 1400 602 1314 c 0,60,61
EndSplineSet
Validated: 1
EndChar

StartChar: questiondown
Encoding: 191 191 125
Width: 929
Flags: W
HStem: 2 136<314.439 654.442> 80 123<659.609 787.372> 918 20G<451 477> 1185 172<388.723 505.344>
VStem: 130 132<189.436 394.75> 380 168<1196.7 1345.3> 398 132<657.25 934.172>
LayerCount: 2
Fore
SplineSet
506 1346 m 0,0,1
 548 1324 548 1324 548 1271 c 128,-1,2
 548 1218 548 1218 506 1196 c 0,3,4
 485 1185 485 1185 464 1185 c 128,-1,5
 443 1185 443 1185 422 1196 c 0,6,7
 380 1217 380 1217 380 1269 c 0,8,9
 380 1270 380 1270 380 1272 c 0,10,11
 381 1325 381 1325 423 1346 c 0,12,13
 443 1357 443 1357 464 1357 c 256,14,15
 485 1357 485 1357 506 1346 c 0,0,1
788 174 m 0,16,17
 804 150 804 150 797 120 c 128,-1,18
 790 90 790 90 766 80 c 0,19,20
 640 26 640 26 593.5 14 c 128,-1,21
 547 2 547 2 464 2 c 0,22,23
 318 2 318 2 222 94 c 0,24,25
 177 137 177 137 153 186 c 0,26,27
 130 233 130 233 130 267 c 0,28,29
 130 269 130 269 130 270 c 0,30,31
 132 366 132 366 148 407.5 c 128,-1,32
 164 449 164 449 218 498 c 1,33,-1
 386 694 l 2,34,35
 398 706 398 706 398 738 c 2,36,-1
 398 870 l 2,37,38
 398 898 398 898 418 918 c 128,-1,39
 438 938 438 938 464 938 c 128,-1,40
 490 938 490 938 510 918 c 128,-1,41
 530 898 530 898 530 870 c 2,42,-1
 530 738 l 2,43,44
 530 732 530 732 530 726 c 0,45,46
 530 651 530 651 484 598 c 2,47,-1
 318 406 l 1,48,49
 262 359 262 359 262 296 c 0,50,51
 262 288 262 288 263 280 c 0,52,53
 271 207 271 207 328.5 172.5 c 128,-1,54
 386 138 386 138 453 138 c 0,55,56
 519 138 519 138 704 198 c 0,57,58
 721 203 721 203 735 203 c 0,59,60
 768 203 768 203 788 174 c 0,16,17
EndSplineSet
Validated: 1
EndChar

StartChar: AE
Encoding: 198 198 130
Width: 1588
Flags: W
HStem: 0 134<980 1453.39> 356 134<506 846> 666 134<980 1369.37> 1200 134<980 1453.31>
VStem: 846 134<134 356 490 666 800 1128>
LayerCount: 2
Fore
SplineSet
1458 66 m 128,-1,1
 1458 40 1458 40 1440 20 c 128,-1,2
 1422 0 1422 0 1398 0 c 2,3,-1
 914 0 l 2,4,5
 882 0 882 0 864 18 c 128,-1,6
 846 36 846 36 846 66 c 2,7,-1
 846 356 l 1,8,-1
 438 356 l 1,9,-1
 256 34 l 2,10,11
 237 -3 237 -3 198 -3 c 0,12,13
 154 -3 154 -3 138 34 c 0,14,15
 130 52 130 52 130 68 c 0,16,17
 131 86 131 86 140 100 c 2,18,-1
 786 1298 l 2,19,20
 806 1334 806 1334 858 1334 c 2,21,-1
 1390 1334 l 2,22,23
 1416 1334 1416 1334 1437 1313 c 128,-1,24
 1458 1292 1458 1292 1458 1266 c 128,-1,25
 1458 1240 1458 1240 1438 1220 c 128,-1,26
 1418 1200 1418 1200 1390 1200 c 2,27,-1
 980 1200 l 1,28,-1
 980 800 l 1,29,-1
 1322 800 l 2,30,31
 1350 800 1350 800 1370 781 c 128,-1,32
 1390 762 1390 762 1390 734 c 128,-1,33
 1390 706 1390 706 1371 686 c 128,-1,34
 1352 666 1352 666 1324 666 c 2,35,-1
 980 666 l 1,36,-1
 980 134 l 1,37,-1
 1390 134 l 2,38,39
 1416 134 1416 134 1437 113 c 128,-1,0
 1458 92 1458 92 1458 66 c 128,-1,1
846 490 m 1,40,-1
 846 1128 l 1,41,-1
 506 490 l 1,42,-1
 846 490 l 1,40,-1
EndSplineSet
Validated: 1
EndChar

StartChar: Ccedilla
Encoding: 199 199 131
Width: 926
Flags: W
HStem: -279 84<446.73 539.561> 0 134<330.891 448 528 776.404> 1200 134<335.426 776.404>
VStem: 130 134<202.067 1128.58>
LayerCount: 2
Fore
SplineSet
776 114 m 128,-1,1
 796 94 796 94 796 67 c 128,-1,2
 796 40 796 40 777 20 c 128,-1,3
 758 0 758 0 730 0 c 2,4,-1
 528 0 l 1,5,-1
 524 -26 l 1,6,7
 584 -34 584 -34 612 -90 c 0,8,9
 632 -128 632 -128 632 -161 c 128,-1,10
 632 -194 632 -194 611 -223 c 0,11,12
 571 -279 571 -279 501 -279 c 0,13,14
 429 -279 429 -279 392 -212 c 0,15,16
 374 -172 374 -172 412 -156 c 128,-1,17
 450 -140 450 -140 468 -174 c 0,18,19
 482 -194 482 -194 504 -195 c 128,-1,20
 526 -196 526 -196 540 -175 c 128,-1,21
 554 -154 554 -154 540 -129 c 128,-1,22
 526 -104 526 -104 498 -109 c 128,-1,23
 470 -114 470 -114 450 -100 c 128,-1,24
 430 -86 430 -86 438 -50 c 2,25,-1
 448 0 l 1,26,27
 298 6 298 6 214 103 c 128,-1,28
 130 200 130 200 130 334 c 2,29,-1
 130 1000 l 2,30,31
 130 1168 130 1168 248 1262 c 0,32,33
 340 1334 340 1334 464 1334 c 2,34,-1
 730 1334 l 2,35,36
 756 1334 756 1334 776 1314 c 128,-1,37
 796 1294 796 1294 796 1267 c 128,-1,38
 796 1240 796 1240 777 1220 c 128,-1,39
 758 1200 758 1200 730 1200 c 2,40,-1
 464 1200 l 2,41,42
 384 1200 384 1200 324 1146 c 128,-1,43
 264 1092 264 1092 264 1000 c 2,44,-1
 264 334 l 2,45,46
 264 248 264 248 317 191 c 128,-1,47
 370 134 370 134 464 134 c 2,48,-1
 730 134 l 2,49,0
 756 134 756 134 776 114 c 128,-1,1
EndSplineSet
Validated: 1
EndChar

StartChar: multiply
Encoding: 215 215 140
Width: 858
Flags: W
HStem: 226 598<636 682>
VStem: 130 598<272 318 732 778>
LayerCount: 2
Fore
SplineSet
153 709 m 2,0,1
 130 732 130 732 130 755 c 128,-1,2
 130 778 130 778 153 801 c 256,3,4
 176 824 176 824 199 824 c 1,5,-1
 245 801 l 1,6,-1
 429 617 l 1,7,-1
 613 801 l 2,8,9
 636 824 636 824 659 824 c 128,-1,10
 682 824 682 824 705 801 c 256,11,12
 728 778 728 778 728 755 c 128,-1,13
 728 732 728 732 705 709 c 2,14,-1
 521 525 l 1,15,-1
 705 341 l 2,16,17
 728 318 728 318 728 295 c 128,-1,18
 728 272 728 272 705 249 c 128,-1,19
 682 226 682 226 659 226 c 128,-1,20
 636 226 636 226 613 250 c 2,21,-1
 429 433 l 1,22,-1
 245 250 l 2,23,24
 222 226 222 226 199 226 c 1,25,-1
 153 250 l 1,26,27
 130 272 130 272 130 295 c 128,-1,28
 130 318 130 318 153 341 c 2,29,-1
 337 525 l 1,30,-1
 153 709 l 2,0,1
EndSplineSet
Validated: 1
EndChar

StartChar: Oslash
Encoding: 216 216 141
Width: 1138
Flags: W
HStem: 2 132<405.882 747.03> 1202 132<403.937 744.031>
VStem: 175 134<348 1115.75> 843 132<220.245 1007.61>
LayerCount: 2
Fore
SplineSet
999 1286 m 2,0,-1
 929 1162 l 1,1,2
 975 1092 975 1092 975 1002 c 2,3,-1
 975 334 l 2,4,5
 975 188 975 188 855 95 c 128,-1,6
 735 2 735 2 580 2 c 128,-1,7
 425 2 425 2 311 82 c 1,8,-1
 261 -6 l 1,9,10
 245 -46 245 -46 199 -46 c 128,-1,11
 153 -46 153 -46 137 -8 c 128,-1,12
 121 30 121 30 143 58 c 1,13,-1
 215 186 l 1,14,15
 175 260 175 260 175 334 c 2,16,-1
 175 1002 l 2,17,18
 175 1148 175 1148 296 1241 c 128,-1,19
 417 1334 417 1334 569 1334 c 128,-1,20
 721 1334 721 1334 831 1258 c 1,21,-1
 879 1346 l 2,22,23
 897 1382 897 1382 942 1382 c 128,-1,24
 987 1382 987 1382 1002 1349 c 128,-1,25
 1017 1316 1017 1316 999 1286 c 2,0,-1
765 1144 m 1,26,27
 689 1202 689 1202 579 1202 c 128,-1,28
 469 1202 469 1202 389 1148 c 128,-1,29
 309 1094 309 1094 309 1002 c 2,30,-1
 309 348 l 1,31,-1
 765 1144 l 1,26,27
843 334 m 2,32,-1
 843 1010 l 1,33,-1
 377 198 l 1,34,35
 457 134 457 134 569 134 c 128,-1,36
 681 134 681 134 762 188 c 128,-1,37
 843 242 843 242 843 334 c 2,32,-1
EndSplineSet
Validated: 33
EndChar

StartChar: germandbls
Encoding: 223 223 146
Width: 1039
Flags: W
HStem: 0 129<581.95 721.745> 715 129<591.062 735.836> 1171 131<280.657 762.303>
VStem: 130 130<3.92017 1153.37> 779 130<147.487 714.449 846.663 1154.34>
LayerCount: 2
Fore
SplineSet
909 261 m 2,0,1
 909 195 909 195 898 155 c 128,-1,2
 887 115 887 115 845 73.5 c 128,-1,3
 803 32 803 32 773 16 c 128,-1,4
 743 0 743 0 685 0 c 2,5,-1
 646 0 l 2,6,7
 580 0 580 0 580 64.5 c 128,-1,8
 580 129 580 129 646 129 c 2,9,-1
 685 129 l 2,10,11
 714 129 714 129 722 136 c 128,-1,12
 730 143 730 143 754.5 167 c 128,-1,13
 779 191 779 191 779 261 c 2,14,-1
 779 649 l 2,15,16
 779 678 779 678 761 695.5 c 128,-1,17
 743 713 743 713 738 714.5 c 128,-1,18
 733 716 733 716 695.5 715.5 c 128,-1,19
 658 715 658 715 645.5 715 c 128,-1,20
 633 715 633 715 609.5 734.5 c 128,-1,21
 586 754 586 754 588 782 c 0,22,23
 588 840 588 840 652 844 c 0,24,25
 655 844 655 844 693 842.5 c 128,-1,26
 731 841 731 841 736 846 c 0,27,28
 771 867 771 867 775 917.5 c 128,-1,29
 779 968 779 968 779 1007 c 256,30,31
 779 1046 779 1046 779.5 1062 c 128,-1,32
 780 1078 780 1078 780 1079 c 0,33,34
 780 1110 780 1110 753 1139 c 128,-1,35
 726 1168 726 1168 686 1168.5 c 128,-1,36
 646 1169 646 1169 600 1169 c 2,37,-1
 325 1171 l 2,38,39
 301 1171 301 1171 280 1154 c 0,40,41
 260 1134 260 1134 260 1101 c 2,42,-1
 260 67 l 2,43,44
 260 2 260 2 195 2 c 128,-1,45
 130 2 130 2 130 67 c 2,46,-1
 130 1107 l 2,47,48
 130 1195 130 1195 190 1255 c 0,49,50
 199 1264 199 1264 241 1283 c 128,-1,51
 283 1302 283 1302 325 1302 c 2,52,-1
 600 1300 l 2,53,54
 675 1300 675 1300 742 1287 c 128,-1,55
 809 1274 809 1274 850 1227 c 128,-1,56
 891 1180 891 1180 899 1127 c 128,-1,57
 907 1074 907 1074 907 1012.5 c 128,-1,58
 907 951 907 951 900 891 c 128,-1,59
 893 831 893 831 839 793 c 1,60,61
 872 781 872 781 881 764 c 0,62,63
 909 709 909 709 909 649 c 2,64,-1
 909 261 l 2,0,1
EndSplineSet
Validated: 1
EndChar

StartChar: ae
Encoding: 230 230 151
Width: 1429
Flags: W
HStem: 0 132<272.098 650 817.645 1296.71> 390 131<272.142 650 780 1170> 764 130<196.32 610.809 853.239 1093.96>
VStem: 130 130<135.159 386.652> 650 130<167.615 390 522 692.268> 1170 129<521 688.194>
LayerCount: 2
Fore
SplineSet
1170 521 m 1,0,-1
 1170 569 l 2,1,2
 1170 648 1170 648 1112.5 705 c 128,-1,3
 1055 762 1055 762 974 762 c 128,-1,4
 893 762 893 762 836.5 705 c 128,-1,5
 780 648 780 648 780 569 c 2,6,-1
 780 521 l 1,7,-1
 1170 521 l 1,0,-1
1234 131 m 2,8,9
 1299 131 1299 131 1299 65.5 c 128,-1,10
 1299 0 1299 0 1234 0 c 2,11,-1
 909 0 l 2,12,13
 831 0 831 0 772 36 c 1,14,15
 767 27 767 27 762 20 c 0,16,17
 746 0 746 0 714 0 c 2,18,-1
 325 0 l 2,19,20
 229 0 229 0 179.5 82.5 c 128,-1,21
 130 165 130 165 130 260 c 0,22,23
 130 352 130 352 180 438 c 0,24,25
 229 522 229 522 325 522 c 2,26,-1
 650 522 l 1,27,-1
 650 634 l 2,28,29
 650 688 650 688 612 726 c 128,-1,30
 574 764 574 764 520 764 c 2,31,-1
 260 764 l 2,32,33
 194 764 194 764 194 828 c 0,34,35
 194 894 194 894 260 894 c 2,36,-1
 520 894 l 2,37,38
 635 894 635 894 705 820 c 0,39,40
 723 801 723 801 736 782 c 1,41,42
 744 792 744 792 749 796 c 0,43,44
 852 891 852 891 974 891 c 0,45,46
 976 891 976 891 977 891 c 256,47,48
 978 891 978 891 980 891 c 0,49,50
 1110 891 1110 891 1204 796 c 0,51,52
 1299 701 1299 701 1299 569 c 2,53,-1
 1299 454 l 2,54,55
 1299 429 1299 429 1283 412 c 0,56,57
 1262 390 1262 390 1234 390 c 2,58,-1
 780 390 l 1,59,-1
 780 259 l 2,60,61
 780 202 780 202 816.5 166.5 c 128,-1,62
 853 131 853 131 909 131 c 2,63,-1
 1234 131 l 2,8,9
650 390 m 1,64,-1
 325 390 l 2,65,66
 282 390 282 390 271 346 c 128,-1,67
 260 302 260 302 260 260 c 128,-1,68
 260 218 260 218 271 175 c 128,-1,69
 282 132 282 132 325 132 c 2,70,-1
 650 132 l 1,71,-1
 650 259 l 1,72,-1
 650 390 l 1,64,-1
EndSplineSet
Validated: 1
EndChar

StartChar: ccedilla
Encoding: 231 231 152
Width: 794
Flags: W
HStem: -283 84<350.347 444.53> 0 134<436 659.308> 765 134<303.192 659.308>
VStem: 130 134<172.161 725.808>
LayerCount: 2
Fore
SplineSet
664 66 m 128,-1,1
 664 40 664 40 644 20 c 128,-1,2
 624 0 624 0 596 0 c 2,3,-1
 436 0 l 1,4,-1
 428 -30 l 1,5,6
 488 -36 488 -36 518 -94 c 0,7,8
 537 -131 537 -131 537 -164 c 0,9,10
 537 -198 537 -198 516 -227 c 0,11,12
 477 -283 477 -283 407 -283 c 0,13,14
 406 -283 406 -283 405 -283 c 0,15,16
 332 -282 332 -282 298 -216 c 0,17,18
 285 -191 285 -191 300 -172 c 0,19,20
 314 -154 314 -154 338 -155 c 128,-1,21
 362 -156 362 -156 372 -178 c 1,22,23
 386 -198 386 -198 408 -199 c 128,-1,24
 430 -200 430 -200 445 -179 c 128,-1,25
 460 -158 460 -158 445 -133 c 128,-1,26
 430 -108 430 -108 403 -113 c 128,-1,27
 376 -118 376 -118 356 -104 c 128,-1,28
 336 -90 336 -90 344 -54 c 2,29,-1
 356 2 l 1,30,31
 268 10 268 10 199 79 c 128,-1,32
 130 148 130 148 130 266 c 2,33,-1
 130 631 l 2,34,35
 130 747 130 747 206 823 c 0,36,37
 284 899 284 899 396 899 c 2,38,-1
 596 899 l 2,39,40
 622 899 622 899 643 878 c 128,-1,41
 664 857 664 857 664 831 c 128,-1,42
 664 805 664 805 644 785 c 128,-1,43
 624 765 624 765 596 765 c 2,44,-1
 396 765 l 2,45,46
 340 765 340 765 302 727 c 128,-1,47
 264 689 264 689 264 631 c 2,48,-1
 264 266 l 2,49,50
 264 208 264 208 301 171 c 128,-1,51
 338 134 338 134 396 134 c 2,52,-1
 596 134 l 2,53,54
 622 134 622 134 643 113 c 128,-1,0
 664 92 664 92 664 66 c 128,-1,1
EndSplineSet
Validated: 1
EndChar

StartChar: icircumflex
Encoding: 238 238 157
Width: 781
Flags: W
HStem: 0 21G<379.5 406.5> 884 20G<379 405> 976 21G<181.5 208.5 573.5 600.5>
VStem: 326 134<3.82812 899.308>
LayerCount: 2
Fore
SplineSet
396 1138 m 1024,0,-1
460 66 m 2,1,2
 460 40 460 40 440 20 c 256,3,4
 420 0 420 0 393 0 c 256,5,6
 366 0 366 0 346 20 c 256,7,8
 326 40 326 40 326 66 c 2,9,-1
 326 836 l 2,10,11
 326 864 326 864 346 884 c 256,12,13
 366 904 366 904 392 904 c 256,14,15
 418 904 418 904 439 883 c 256,16,17
 460 862 460 862 460 836 c 2,18,-1
 460 66 l 2,1,2
149 995 m 128,-1,20
 130 1014 130 1014 130 1041 c 128,-1,21
 130 1068 130 1068 149 1087 c 2,22,-1
 345 1280 l 2,23,24
 364 1299 364 1299 391 1299 c 128,-1,25
 418 1299 418 1299 437 1280 c 2,26,-1
 633 1087 l 2,27,28
 652 1068 652 1068 652 1041 c 128,-1,29
 652 1014 652 1014 633 995 c 128,-1,30
 614 976 614 976 587 976 c 128,-1,31
 560 976 560 976 541 995 c 2,32,-1
 391 1143 l 1,33,-1
 241 995 l 2,34,35
 222 976 222 976 195 976 c 128,-1,19
 168 976 168 976 149 995 c 128,-1,20
EndSplineSet
Validated: 1
EndChar

StartChar: idieresis
Encoding: 239 239 158
Width: 779
Flags: W
HStem: 0 21G<365.5 392.5> 884 20G<365 391> 966 195<149.596 240.404 539.596 630.404>
VStem: 130 130<985.596 1141.4> 312 134<3.82812 899.308> 520 130<985.596 1141.4>
LayerCount: 2
Fore
SplineSet
446 66 m 2,0,1
 446 40 446 40 426 20 c 128,-1,2
 406 0 406 0 379 0 c 128,-1,3
 352 0 352 0 332 20 c 128,-1,4
 312 40 312 40 312 66 c 2,5,-1
 312 836 l 2,6,7
 312 864 312 864 332 884 c 128,-1,8
 352 904 352 904 378 904 c 128,-1,9
 404 904 404 904 425 883 c 128,-1,10
 446 862 446 862 446 836 c 2,11,-1
 446 66 l 2,0,1
195 1161 m 128,-1,13
 222 1161 222 1161 241 1142 c 128,-1,14
 260 1123 260 1123 260 1096 c 2,15,-1
 260 1031 l 2,16,17
 260 1004 260 1004 241 985 c 128,-1,18
 222 966 222 966 195 966 c 128,-1,19
 168 966 168 966 149 985 c 128,-1,20
 130 1004 130 1004 130 1031 c 2,21,-1
 130 1096 l 2,22,23
 130 1123 130 1123 149 1142 c 128,-1,12
 168 1161 168 1161 195 1161 c 128,-1,13
585 1161 m 128,-1,25
 612 1161 612 1161 631 1142 c 128,-1,26
 650 1123 650 1123 650 1096 c 2,27,-1
 650 1031 l 2,28,29
 650 1004 650 1004 631 985 c 128,-1,30
 612 966 612 966 585 966 c 128,-1,31
 558 966 558 966 539 985 c 128,-1,32
 520 1004 520 1004 520 1031 c 2,33,-1
 520 1096 l 2,34,35
 520 1123 520 1123 539 1142 c 128,-1,24
 558 1161 558 1161 585 1161 c 128,-1,25
EndSplineSet
Validated: 1
EndChar

StartChar: divide
Encoding: 247 247 161
Width: 1040
Flags: W
HStem: 126 207<464.918 579.156> 451 126<132.806 907.932> 707 187<462.681 577.319>
VStem: 455 134<130.621 328.111 710.59 889.215>
LayerCount: 2
Fore
SplineSet
455 244 m 0,0,1
 455 333 455 333 519 333 c 0,2,3
 589 331 589 331 589 238 c 0,4,5
 589 126 589 126 520 126 c 0,6,7
 455 126 455 126 455 244 c 0,0,1
455 794 m 0,8,9
 455 894 455 894 520 894 c 128,-1,10
 585 894 585 894 585 794 c 0,11,12
 585 707 585 707 522 707 c 0,13,14
 455 707 455 707 455 794 c 0,8,9
225 577 m 2,15,-1
 835 577 l 2,16,17
 910 577 910 577 910 515 c 0,18,19
 910 451 910 451 840 451 c 2,20,-1
 220 451 l 2,21,22
 219 451 219 451 217 451 c 0,23,24
 216 451 216 451 214 451 c 0,25,26
 130 451 130 451 130 516 c 0,27,28
 130 577 130 577 225 577 c 2,15,-1
EndSplineSet
Validated: 1
EndChar

StartChar: oslash
Encoding: 248 248 162
Width: 926
Flags: W
HStem: 0 134<361.94 619.061> 800 134<309.046 558.808> 961 20G<690.5 736>
VStem: 130 134<255.57 755.805> 664 132<180.526 687.719>
LayerCount: 2
Fore
SplineSet
796 266 m 2,0,1
 796 148 796 148 696 74 c 128,-1,2
 596 0 596 0 483 0 c 128,-1,3
 370 0 370 0 296 36 c 1,4,-1
 272 -4 l 1,5,6
 256 -44 256 -44 210 -44 c 0,7,8
 163 -44 163 -44 148 -6 c 0,9,10
 142 9 142 9 142 23 c 0,11,12
 141 43 141 43 156 62 c 2,13,-1
 186 116 l 1,14,15
 130 182 130 182 130 266 c 2,16,-1
 130 666 l 2,17,18
 130 786 130 786 230 860 c 128,-1,19
 330 934 330 934 464 934 c 0,20,21
 548 934 548 934 626 900 c 1,22,-1
 650 944 l 2,23,24
 669 981 669 981 712 981 c 0,25,26
 713 981 713 981 714 981 c 0,27,28
 758 981 758 981 773 948 c 0,29,30
 788 916 788 916 772 887 c 128,-1,31
 756 858 756 858 736 824 c 1,32,33
 796 754 796 754 796 666 c 2,34,-1
 796 266 l 2,0,1
560 784 m 1,35,36
 512 800 512 800 448 800 c 128,-1,37
 384 800 384 800 324 766 c 128,-1,38
 264 732 264 732 264 666 c 2,39,-1
 264 254 l 1,40,-1
 560 784 l 1,35,36
664 266 m 2,41,-1
 664 666 l 2,42,43
 664 674 664 674 660 690 c 1,44,-1
 360 150 l 1,45,46
 402 134 402 134 472 134 c 128,-1,47
 542 134 542 134 603 168 c 128,-1,48
 664 202 664 202 664 266 c 2,41,-1
EndSplineSet
Validated: 1
EndChar

StartChar: thorn
Encoding: 254 254 167
Width: 1214
Flags: W
HStem: -405 122<149.534 302 440 597.497> 27 122<545.415 807.254> 791 122<542.381 819.55> 1137 122<147.534 302>
VStem: 302 138<-283 129 270.688 689.625 815 1137> 946 138<296.124 650.584>
LayerCount: 2
Fore
SplineSet
378 1259 m 2,0,1
 440 1259 440 1259 440 1199 c 2,2,-1
 440 815 l 1,3,4
 548 913 548 913 701 913 c 128,-1,5
 854 913 854 913 969 784 c 128,-1,6
 1084 655 1084 655 1084 469 c 128,-1,7
 1084 283 1084 283 962 155 c 128,-1,8
 840 27 840 27 672 27 c 0,9,10
 542 27 542 27 440 129 c 1,11,-1
 440 -283 l 1,12,-1
 552 -283 l 2,13,14
 582 -283 582 -283 598 -301 c 128,-1,15
 614 -319 614 -319 614 -343 c 0,16,17
 614 -405 614 -405 552 -405 c 2,18,-1
 194 -405 l 2,19,20
 166 -405 166 -405 149 -386 c 128,-1,21
 132 -367 132 -367 132 -343 c 256,22,23
 132 -319 132 -319 148 -301 c 128,-1,24
 164 -283 164 -283 194 -283 c 2,25,-1
 302 -283 l 1,26,-1
 302 1137 l 1,27,-1
 192 1137 l 2,28,29
 164 1137 164 1137 147 1156 c 128,-1,30
 130 1175 130 1175 130 1199 c 256,31,32
 130 1223 130 1223 146 1241 c 128,-1,33
 162 1259 162 1259 192 1259 c 2,34,-1
 378 1259 l 2,0,1
861 240 m 128,-1,36
 946 331 946 331 946 467 c 128,-1,37
 946 603 946 603 870 697 c 128,-1,38
 794 791 794 791 693 791 c 128,-1,39
 592 791 592 791 527 735 c 128,-1,40
 462 679 462 679 440 599 c 1,41,-1
 440 395 l 1,42,43
 452 311 452 311 511 230 c 128,-1,44
 570 149 570 149 673 149 c 128,-1,35
 776 149 776 149 861 240 c 128,-1,36
EndSplineSet
Validated: 1
EndChar

StartChar: Dynamic_Profil
Encoding: 338 338 169
Width: 1422
Flags: W
HStem: -1 128<350.246 675.352 820 1273.5> 638 126<895 1205.37> 1156 130<346.544 681.402 821 1288.04>
VStem: 130 128<208.312 1075.56> 767 128<207.562 638 764 1078.16>
LayerCount: 2
Fore
SplineSet
1271 108 m 128,-1,1
 1291 89 1291 89 1290 63 c 0,2,3
 1289 36 1289 36 1274 18 c 0,4,5
 1258 -1 1258 -1 1233 -1 c 0,6,7
 524 1 524 1 512 1 c 0,8,9
 355 5 355 5 245 90 c 0,10,11
 130 179 130 179 130 321 c 2,12,-1
 131 967 l 2,13,14
 132 1106 132 1106 247 1196 c 128,-1,15
 362 1286 362 1286 514 1286 c 2,16,-1
 1227 1284 l 2,17,18
 1255 1284 1255 1284 1273 1265 c 0,19,20
 1293 1244 1293 1244 1292 1221 c 0,21,22
 1291 1195 1291 1195 1272 1176 c 0,23,24
 1252 1156 1252 1156 1227 1156 c 2,25,-1
 821 1156 l 1,26,27
 896 1076 896 1076 896 970 c 0,28,29
 896 968 896 968 896 967 c 2,30,-1
 895 764 l 1,31,-1
 1160 764 l 2,32,33
 1186 764 1186 764 1206 746 c 0,34,35
 1225 729 1225 729 1225 701 c 128,-1,36
 1225 673 1225 673 1207 655 c 0,37,38
 1188 636 1188 636 1162 636 c 2,39,-1
 895 638 l 1,40,-1
 895 321 l 2,41,42
 895 212 895 212 820 127 c 1,43,-1
 1225 127 l 2,44,0
 1251 127 1251 127 1271 108 c 128,-1,1
767 321 m 2,45,-1
 768 967 l 2,46,47
 768 1053 768 1053 691 1106 c 0,48,49
 615 1158 615 1158 514 1158 c 128,-1,50
 413 1158 413 1158 336 1106 c 0,51,52
 260 1055 260 1055 259 967 c 2,53,-1
 258 321 l 2,54,55
 258 232 258 232 335 180 c 0,56,57
 411 129 411 129 512 129 c 0,58,59
 613 130 613 130 690 180 c 128,-1,60
 767 230 767 230 767 321 c 2,45,-1
EndSplineSet
Validated: 1
EndChar

StartChar: Translation
Encoding: 339 339 170
Width: 1431
Flags: W
HStem: 0 130<310.869 609.367 821.044 1279.37> 390 130<780 1173> 760 134<305.027 605.277 856.609 1101.23>
VStem: 130 131<180.266 715.963> 652 128<173.63 390 520 684.589> 1173 127<520 686.578>
LayerCount: 2
Fore
SplineSet
1300 66 m 128,-1,1
 1300 38 1300 38 1280 19 c 128,-1,2
 1260 0 1260 0 1234 0 c 2,3,-1
 911 0 l 2,4,5
 812 0 812 0 726 86 c 2,6,-1
 714 98 l 1,7,8
 612 0 612 0 471 0 c 128,-1,9
 330 0 330 0 230 73 c 256,10,11
 130 146 130 146 130 260 c 2,12,-1
 130 634 l 2,13,14
 130 747 130 747 229 820 c 0,15,16
 329 894 329 894 463 894 c 0,17,18
 629 894 629 894 730 777 c 1,19,20
 821 893 821 893 976 894 c 0,21,22
 977 894 977 894 979 894 c 0,23,24
 1105 894 1105 894 1202 800 c 128,-1,25
 1299 706 1299 706 1300 564 c 2,26,-1
 1301 454 l 2,27,28
 1301 426 1301 426 1284 407 c 128,-1,29
 1267 388 1267 388 1235 388 c 2,30,-1
 778 390 l 1,31,-1
 780 260 l 2,32,33
 781 213 781 213 823 171 c 0,34,35
 864 130 864 130 910 130 c 2,36,-1
 1234 132 l 2,37,38
 1260 132 1260 132 1280 113 c 128,-1,0
 1300 94 1300 94 1300 66 c 128,-1,1
1173 520 m 1,39,-1
 1172 564 l 2,40,41
 1170 648 1170 648 1114 705 c 0,42,43
 1056 764 1056 764 979 764 c 128,-1,44
 902 764 902 764 843 705 c 0,45,46
 780 642 780 642 780 567 c 2,47,-1
 780 520 l 1,48,-1
 1173 520 l 1,39,-1
652 260 m 2,49,-1
 652 636 l 2,50,51
 652 691 652 691 590 726 c 0,52,53
 529 760 529 760 456 760 c 128,-1,54
 383 760 383 760 321 726 c 128,-1,55
 259 692 259 692 259 634 c 2,56,-1
 261 260 l 2,57,58
 261 204 261 204 324 166 c 0,59,60
 385 130 385 130 458 130 c 128,-1,61
 531 130 531 130 591.5 163 c 128,-1,62
 652 196 652 196 652 260 c 2,49,-1
EndSplineSet
Validated: 1
EndChar

StartChar: uni0186
Encoding: 390 390 171
Width: 700
Flags: W
HStem: 1371 109<259.654 429.186>
VStem: 130 109<1504.64 1641.91> 461 109<1503.07 1641.79>
LayerCount: 2
Fore
SplineSet
239 1588 m 0,0,1
 239 1536 239 1536 278 1507 c 0,2,3
 314 1480 314 1480 348 1480 c 0,4,5
 391 1480 391 1480 419 1502 c 0,6,7
 461 1536 461 1536 461 1583 c 0,8,9
 461 1643 461 1643 520 1643 c 0,10,11
 570 1643 570 1643 570 1582 c 0,12,13
 570 1493 570 1493 508 1435 c 0,14,15
 438 1371 438 1371 347 1371 c 0,16,17
 247 1371 247 1371 186 1445 c 0,18,19
 130 1514 130 1514 130 1591 c 0,20,21
 130 1643 130 1643 191 1643 c 0,22,23
 239 1643 239 1643 239 1588 c 0,0,1
EndSplineSet
Validated: 1
EndChar

StartChar: uni0187
Encoding: 391 391 172
Width: 658
Flags: W
HStem: 1393 248
VStem: 131 398
LayerCount: 2
Fore
SplineSet
529 1567 m 128,-1,1
 527 1539 527 1539 507 1523 c 2,2,-1
 377 1411 l 2,3,4
 357 1393 357 1393 332 1393 c 128,-1,5
 307 1393 307 1393 295 1407 c 2,6,-1
 155 1527 l 2,7,8
 135 1543 135 1543 131 1570 c 128,-1,9
 127 1597 127 1597 146 1619 c 128,-1,10
 165 1641 165 1641 187 1641 c 0,11,12
 208 1641 208 1641 227 1623 c 2,13,-1
 333 1535 l 1,14,-1
 429 1619 l 2,15,16
 449 1637 449 1637 473 1636 c 128,-1,17
 497 1635 497 1635 514 1615 c 128,-1,0
 531 1595 531 1595 529 1567 c 128,-1,1
EndSplineSet
Validated: 1
EndChar

StartChar: uni0188
Encoding: 392 392 173
Width: 801
Flags: W
HStem: 1346 290
VStem: 130 541
LayerCount: 2
Fore
SplineSet
540 1595 m 2,0,1
 554 1636 554 1636 598 1636 c 0,2,3
 601 1636 601 1636 604 1636 c 128,-1,4
 607 1636 607 1636 610 1636 c 0,5,6
 671 1636 671 1636 671 1596 c 0,7,8
 671 1581 671 1581 664 1558 c 2,9,-1
 607 1390 l 2,10,11
 592 1346 592 1346 551 1346 c 0,12,13
 550 1346 550 1346 549 1346 c 0,14,15
 476 1346 476 1346 476 1386 c 0,16,17
 476 1387 476 1387 476 1389 c 0,18,19
 476 1398 476 1398 480 1411 c 2,20,-1
 540 1595 l 2,0,1
198 1595 m 2,21,22
 212 1635 212 1635 260 1635 c 0,23,24
 261 1635 261 1635 263 1635 c 0,25,26
 264 1635 264 1635 265 1635 c 0,27,28
 320 1635 320 1635 331 1591 c 0,29,30
 332 1587 332 1587 325 1569 c 2,31,-1
 261 1387 l 2,32,33
 247 1346 247 1346 202 1346 c 0,34,35
 201 1346 201 1346 200 1346 c 0,36,37
 130 1346 130 1346 130 1385 c 0,38,39
 130 1386 130 1386 130 1388 c 0,40,41
 130 1396 130 1396 134 1411 c 2,42,-1
 198 1595 l 2,21,22
EndSplineSet
Validated: 1
EndChar

StartChar: florin
Encoding: 402 402 174
Width: 601
Flags: W
HStem: -238 124<72.9288 211.681> 972 122<165.049 237 360 523.951> 1244 123<387.896 523.949>
VStem: 237 123<-89.6544 972 1094 1215.59>
LayerCount: 2
Fore
SplineSet
524.5 1261.5 m 128,-1,1
 507 1244 507 1244 474.5 1244 c 128,-1,2
 442 1244 442 1244 428 1233.5 c 128,-1,3
 414 1223 414 1223 414 1223 c 2,4,5
 360 1186 360 1186 360 1124 c 2,6,-1
 360 1094 l 1,7,-1
 480 1094 l 2,8,9
 507 1094 507 1094 524.5 1076.5 c 128,-1,10
 542 1059 542 1059 542 1033 c 128,-1,11
 542 1007 542 1007 524.5 989.5 c 128,-1,12
 507 972 507 972 480 972 c 2,13,-1
 360 972 l 1,14,-1
 360 6 l 2,15,16
 360 -94 360 -94 288 -166 c 128,-1,17
 216 -238 216 -238 116 -238 c 0,18,19
 86 -238 86 -238 72.5 -217.5 c 128,-1,20
 59 -197 59 -197 59 -176 c 128,-1,21
 59 -155 59 -155 72.5 -134.5 c 128,-1,22
 86 -114 86 -114 128 -114 c 128,-1,23
 170 -114 170 -114 204.5 -78.5 c 128,-1,24
 239 -43 239 -43 239 6 c 2,25,-1
 237 972 l 1,26,-1
 208 972 l 2,27,28
 182 972 182 972 164.5 989.5 c 128,-1,29
 147 1007 147 1007 147 1033 c 128,-1,30
 147 1059 147 1059 164.5 1076.5 c 128,-1,31
 182 1094 182 1094 208 1094 c 2,32,-1
 237 1094 l 1,33,-1
 237 1124 l 2,34,35
 237 1251 237 1251 348 1328 c 0,36,37
 405 1367 405 1367 484 1367 c 0,38,39
 496 1367 496 1367 519 1352 c 128,-1,40
 542 1337 542 1337 542 1308 c 128,-1,0
 542 1279 542 1279 524.5 1261.5 c 128,-1,1
EndSplineSet
Validated: 1
EndChar

StartChar: uni019F
Encoding: 415 415 175
Width: 1163
Flags: W
HStem: 0 148<423.598 741.637> 699 144<277 888> 1397 148<425.23 735.572>
VStem: 130 147<286.51 699 843 1256.46> 888 145<298.641 699 843 1256.25>
LayerCount: 2
Fore
SplineSet
130 1118 m 2,0,1
 130 1284 130 1284 261.5 1414.5 c 128,-1,2
 393 1545 393 1545 578.5 1545 c 128,-1,3
 764 1545 764 1545 898.5 1411.5 c 128,-1,4
 1033 1278 1033 1278 1033 1097 c 2,5,-1
 1033 456 l 2,6,7
 1033 260 1033 260 899 130 c 128,-1,8
 765 0 765 0 581.5 0 c 128,-1,9
 398 0 398 0 264 128.5 c 128,-1,10
 130 257 130 257 130 428 c 2,11,-1
 130 1118 l 2,0,1
277 423 m 2,12,13
 277 315 277 315 370.5 231.5 c 128,-1,14
 464 148 464 148 581 148 c 128,-1,15
 698 148 698 148 777 219 c 0,16,17
 888 319 888 319 888 452 c 2,18,-1
 888 699 l 1,19,-1
 277 699 l 1,20,-1
 277 423 l 2,12,13
888 843 m 1,21,-1
 888 1090 l 2,22,23
 888 1236 888 1236 788.5 1316.5 c 128,-1,24
 689 1397 689 1397 580.5 1397 c 128,-1,25
 472 1397 472 1397 374.5 1318 c 128,-1,26
 277 1239 277 1239 277 1094 c 2,27,-1
 277 843 l 1,28,-1
 888 843 l 1,21,-1
EndSplineSet
Validated: 1
EndChar

StartChar: uni01B7
Encoding: 439 439 176
Width: 571
Flags: W
HStem: 78 131<21.9497 86 476 538.109>
VStem: 20 520<80.3027 206.697>
LayerCount: 2
Fore
SplineSet
86 209 m 2,0,1
 20 209 20 209 20 143.5 c 128,-1,2
 20 78 20 78 86 78 c 2,3,-1
 476 78 l 2,4,5
 540 78 540 78 540 143.5 c 128,-1,6
 540 209 540 209 476 209 c 2,7,-1
 86 209 l 2,0,1
74 425 m 2,8,9
 48 404 48 404 48 381.5 c 128,-1,10
 48 359 48 359 85 337 c 128,-1,11
 122 315 122 315 155.5 315 c 128,-1,12
 189 315 189 315 228 345 c 2,13,-1
 518 571 l 2,14,15
 540 587 540 587 540 613 c 128,-1,16
 540 639 540 639 514 659 c 2,17,-1
 228 881 l 2,18,19
 188 911 188 911 155 911 c 128,-1,20
 122 911 122 911 84 890 c 0,21,22
 10 847 10 847 74 797 c 2,23,-1
 314 612 l 1,24,-1
 74 425 l 2,8,9
EndSplineSet
Validated: 41
EndChar

StartChar: Rectitude
Encoding: 440 440 177
Width: 1000
Flags: W
HStem: 298 144<816 871.254> 878 20G<796.5 841>
LayerCount: 2
Fore
SplineSet
816 442 m 2,0,1
 876 419 876 419 876 375 c 0,2,3
 876 298 876 298 811 298 c 0,4,5
 787 298 787 298 768 304 c 2,6,-1
 193 521 l 2,7,8
 124 547 124 547 124 597 c 0,9,10
 124 650 124 650 201 679 c 2,11,-1
 761 889 l 2,12,13
 785 898 785 898 808 898 c 0,14,15
 874 898 874 898 874 819 c 0,16,17
 874 774 874 774 806 749 c 2,18,-1
 406 596 l 1,19,-1
 816 442 l 2,0,1
EndSplineSet
Validated: 1
EndChar

StartChar: Planeite
Encoding: 441 441 178
Width: 1000
Flags: W
HStem: 297 144<128.746 184> 877 20G<159 203.5>
LayerCount: 2
Fore
SplineSet
184 441 m 2,0,-1
 594 595 l 1,1,-1
 194 748 l 2,2,3
 126 773 126 773 126 818 c 0,4,5
 126 897 126 897 192 897 c 0,6,7
 215 897 215 897 239 888 c 2,8,-1
 799 678 l 2,9,10
 876 649 876 649 876 596 c 0,11,12
 876 546 876 546 807 520 c 2,13,-1
 232 303 l 2,14,15
 213 297 213 297 189 297 c 0,16,17
 124 297 124 297 124 374 c 0,18,19
 124 418 124 418 184 441 c 2,0,-1
EndSplineSet
Validated: 1
EndChar

StartChar: Cylindricite
Encoding: 443 443 180
Width: 690
Flags: W
HStem: 130 130<85.8906 602.05> 520 130<85.8906 279 409 602.05>
VStem: 279 130<326.891 520 650 843.05>
LayerCount: 2
Fore
SplineSet
538 650 m 6,0,1
 604 650 604 650 604 585 c 132,-1,2
 604 520 604 520 538 520 c 6,3,-1
 409 520 l 5,4,-1
 409 389 l 6,5,6
 409 325 409 325 344 325 c 132,-1,7
 279 325 279 325 279 389 c 6,8,-1
 279 520 l 5,9,-1
 148 520 l 6,10,11
 84 520 84 520 84 585 c 132,-1,12
 84 650 84 650 148 650 c 6,13,-1
 279 650 l 5,14,-1
 279 779 l 6,15,16
 279 845 279 845 344 845 c 132,-1,17
 409 845 409 845 409 779 c 6,18,-1
 409 650 l 5,19,-1
 538 650 l 6,0,1
538 260 m 6,20,21
 604 260 604 260 604 195 c 132,-1,22
 604 130 604 130 538 130 c 6,23,-1
 148 130 l 6,24,25
 84 130 84 130 84 195 c 132,-1,26
 84 260 84 260 148 260 c 6,27,-1
 538 260 l 6,20,21
EndSplineSet
Validated: 1
EndChar

StartChar: FormeCourbe
Encoding: 444 444 181
Width: 1065
Flags: W
HStem: 0 21G<176 231.5>
LayerCount: 2
Fore
SplineSet
917 1206 m 2,0,-1
 270 39 l 1,1,2
 255 0 255 0 208 0 c 0,3,4
 144 0 144 0 144 65 c 0,5,6
 144 86 144 86 156 104 c 2,7,-1
 801 1263 l 2,8,9
 820 1300 820 1300 864.5 1299 c 128,-1,10
 909 1298 909 1298 919.5 1266.5 c 128,-1,11
 930 1235 930 1235 917 1206 c 2,0,-1
EndSplineSet
Validated: 33
EndChar

StartChar: FormeSurface
Encoding: 445 445 182
Width: 690
Flags: W
HStem: 395 131<86.8906 603.05>
VStem: 85 520<397.303 523.697>
LayerCount: 2
Fore
SplineSet
539 526 m 2,0,1
 605 526 605 526 605 460.5 c 128,-1,2
 605 395 605 395 539 395 c 2,3,-1
 149 395 l 2,4,5
 85 395 85 395 85 460.5 c 128,-1,6
 85 526 85 526 149 526 c 2,7,-1
 539 526 l 2,0,1
EndSplineSet
Validated: 1
EndChar

StartChar: Parallelisme
Encoding: 446 446 183
Width: 690
Flags: W
HStem: 395 131<86.8906 280 410 603.05>
VStem: 280 130<201.891 395 526 718.05>
LayerCount: 2
Fore
SplineSet
539 526 m 2,0,1
 605 526 605 526 605 460.5 c 128,-1,2
 605 395 605 395 539 395 c 2,3,-1
 410 395 l 1,4,-1
 410 264 l 2,5,6
 410 200 410 200 345 200 c 128,-1,7
 280 200 280 200 280 264 c 2,8,-1
 280 395 l 1,9,-1
 149 395 l 2,10,11
 85 395 85 395 85 460.5 c 128,-1,12
 85 526 85 526 149 526 c 2,13,-1
 280 526 l 1,14,-1
 280 654 l 2,15,16
 280 720 280 720 345 720 c 128,-1,17
 410 720 410 720 410 654 c 2,18,-1
 410 526 l 1,19,-1
 539 526 l 2,0,1
EndSplineSet
Validated: 1
EndChar

StartChar: Perpendicularite
Encoding: 447 447 184
Width: 749
Flags: W
HStem: 226 598<593 639>
VStem: 87 598<272 318 732 778>
LayerCount: 2
Fore
SplineSet
110 709 m 2,0,1
 87 732 87 732 87 755 c 128,-1,2
 87 778 87 778 110 801 c 256,3,4
 133 824 133 824 156 824 c 1,5,-1
 202 801 l 1,6,-1
 386 617 l 1,7,-1
 570 801 l 2,8,9
 593 824 593 824 616 824 c 128,-1,10
 639 824 639 824 662 801 c 256,11,12
 685 778 685 778 685 755 c 128,-1,13
 685 732 685 732 662 709 c 2,14,-1
 478 525 l 1,15,-1
 662 341 l 2,16,17
 685 318 685 318 685 295 c 128,-1,18
 685 272 685 272 662 249 c 128,-1,19
 639 226 639 226 616 226 c 128,-1,20
 593 226 593 226 570 250 c 2,21,-1
 386 433 l 1,22,-1
 202 250 l 2,23,24
 179 226 179 226 156 226 c 1,25,-1
 110 250 l 1,26,27
 87 272 87 272 87 295 c 128,-1,28
 87 318 87 318 110 341 c 2,29,-1
 294 525 l 1,30,-1
 110 709 l 2,0,1
EndSplineSet
Validated: 1
EndChar

StartChar: Symetrie
Encoding: 450 450 186
Width: 512
Flags: W
HStem: 105 319<211.652 272.435>
VStem: 161 178<176.25 359.092>
LayerCount: 2
Fore
SplineSet
210 375 m 0,0,1
 161 202 161 202 161 170.5 c 128,-1,2
 161 139 161 139 178 122 c 128,-1,3
 195 105 195 105 225 105 c 128,-1,4
 255 105 255 105 273 122 c 0,5,6
 285 135 285 135 289 154 c 0,7,8
 336 337 336 337 339 360 c 0,9,10
 339 390 339 390 322 407 c 128,-1,11
 305 424 305 424 274 424 c 0,12,13
 224 424 224 424 210 375 c 0,0,1
EndSplineSet
Validated: 9
EndChar

StartChar: Concentricite
Encoding: 451 451 187
Width: 512
Flags: W
HStem: 272 159<191.145 308.855>
VStem: 170 160<293.145 409.855>
LayerCount: 2
Fore
SplineSet
190.5 410.5 m 128,-1,1
 170 390 170 390 170 351.5 c 128,-1,2
 170 313 170 313 190.5 292.5 c 128,-1,3
 211 272 211 272 250 272 c 128,-1,4
 289 272 289 272 309.5 292.5 c 128,-1,5
 330 313 330 313 330 352 c 0,6,7
 330 390 330 390 309.5 410.5 c 128,-1,8
 289 431 289 431 250 431 c 128,-1,0
 211 431 211 431 190.5 410.5 c 128,-1,1
EndSplineSet
Validated: 9
EndChar

StartChar: BattementTotal
Encoding: 453 453 189
Width: 718
Flags: W
HStem: 203 131<296.813 411.052> 1052 131<307.529 421.523>
VStem: 105 131<410.966 971.956> 482 131<411.038 975.186>
LayerCount: 2
Fore
SplineSet
613 693 m 128,-1,1
 613 864 613 864 571 991 c 0,2,3
 541 1080 541 1080 493 1127 c 0,4,5
 437 1183 437 1183 358.5 1183 c 128,-1,6
 280 1183 280 1183 224 1128 c 0,7,8
 177 1080 177 1080 147 991 c 0,9,10
 105 865 105 865 105 692.5 c 128,-1,11
 105 520 105 520 148 395 c 0,12,13
 177 306 177 306 225 258 c 0,14,15
 280 203 280 203 358.5 203 c 128,-1,16
 437 203 437 203 493 258 c 0,17,18
 541 306 541 306 570 395 c 0,19,0
 613 522 613 522 613 693 c 128,-1,1
482 693.5 m 128,-1,21
 482 576 482 576 458 477 c 0,22,23
 436 387 436 387 402 353 c 0,24,25
 382 334 382 334 359 334 c 0,26,27
 294 334 294 334 260 477 c 0,28,29
 236 576 236 576 236 690 c 128,-1,30
 236 804 236 804 260 909 c 0,31,32
 283 999 283 999 316 1033 c 1,33,34
 336 1052 336 1052 359 1052 c 0,35,36
 424 1052 424 1052 458 910 c 0,37,20
 482 811 482 811 482 693.5 c 128,-1,21
EndSplineSet
Validated: 9
EndChar

StartChar: Oslashacute
Encoding: 510 510 190
Width: 1500
Flags: W
VStem: -2 130<-779 1980>
LayerCount: 2
Fore
SplineSet
1500 1980 m 1,0,-1
 130 634 l 1,1,-1
 1500 -779 l 1,2,-1
 1500 -617 l 1,3,-1
 262 634 l 1,4,-1
 1500 1848 l 1,5,-1
 1500 1980 l 1,0,-1
1498 -779 m 1024,6,-1
130 655 m 1024,7,-1
-2 1980 m 1,8,-1
 128 1980 l 1,9,-1
 128 -779 l 1,10,-1
 -2 -779 l 1,11,-1
 -2 1980 l 1,8,-1
EndSplineSet
Validated: 9
EndChar

StartChar: oslashacute
Encoding: 511 511 191
Width: 1500
Flags: W
LayerCount: 2
Fore
SplineSet
-2 1980 m 1,0,-1
 1369 634 l 1,1,-1
 -2 -779 l 1,2,-1
 -2 -617 l 1,3,-1
 1220 634 l 1,4,-1
 -2 1848 l 1,5,-1
 -2 1980 l 1,0,-1
0 -779 m 1024,6,-1
1368 655 m 1024,7,-1
1500 1980 m 1,8,-1
 1370 1980 l 1,9,-1
 1370 -779 l 1,10,-1
 1500 -779 l 1,11,-1
 1500 1980 l 1,8,-1
EndSplineSet
Validated: 9
EndChar

StartChar: uni0220
Encoding: 544 544 192
Width: 468
Flags: W
HStem: -779 130<-64 534> 1160 392<192.191 249.633> 1850 130<-64 534>
VStem: -64 598<-779 -649 1850 1980> 122 198
LayerCount: 2
Fore
SplineSet
-64 1980 m 1,0,-1
 534 1980 l 1,1,-1
 534 1850 l 1,2,-1
 -64 1850 l 1,3,-1
 -64 1980 l 1,0,-1
-64 -649 m 1,4,-1
 534 -649 l 1,5,-1
 534 -779 l 1,6,-1
 -64 -779 l 1,7,-1
 -64 -649 l 1,4,-1
EndSplineSet
Refer: 10 39 S 1 0 0 1 -35 60 2
Validated: 1
EndChar

StartChar: uni0221
Encoding: 545 545 193
Width: 650
Flags: W
HStem: -779 130<-64 715> 1100 392<188.191 245.633 388.767 444.539> 1850 130<-64 715>
VStem: 118 129<1105.5 1206.12> 187 128<1386.31 1486.72>
LayerCount: 2
Fore
SplineSet
-64 1980 m 1,0,-1
 715 1980 l 1,1,-1
 715 1850 l 1,2,-1
 -64 1850 l 1,3,-1
 -64 1980 l 1,0,-1
-64 -649 m 1,4,-1
 715 -649 l 1,5,-1
 715 -779 l 1,6,-1
 -64 -779 l 1,7,-1
 -64 -649 l 1,4,-1
EndSplineSet
Refer: 5 34 S 1 0 0 1 60 0 2
Validated: 1
EndChar

StartChar: uni0225
Encoding: 549 549 195
Width: 520
Flags: W
HStem: -779 130<-64 585> -77 130<260 387.109> 1247 131<260 387.109> 1850 130<-64 585>
VStem: -64 649<-779 -649 1850 1980> 130 259<-54.828 51.0798 1248.93 1358.34>
LayerCount: 2
Fore
SplineSet
-64 1980 m 1,0,-1
 585 1980 l 1,1,-1
 585 1850 l 1,2,-1
 -64 1850 l 1,3,-1
 -64 1980 l 1,0,-1
-64 -649 m 1,4,-1
 585 -649 l 1,5,-1
 585 -779 l 1,6,-1
 -64 -779 l 1,7,-1
 -64 -649 l 1,4,-1
EndSplineSet
Refer: 62 91 S 1 0 0 1 0 0 2
Validated: 1
EndChar

StartChar: uni0226
Encoding: 550 550 196
Width: 520
Flags: W
HStem: -779 130<-64 585> -77 130<88.8906 217> 1247 131<88.8906 217> 1850 130<-64 585>
VStem: -64 649<-779 -649 1850 1980> 87 259<-74.3181 51.0798 1248.93 1358.92> 217 129<53 1247>
LayerCount: 2
Fore
SplineSet
-64 1980 m 1,0,-1
 585 1980 l 1,1,-1
 585 1850 l 1,2,-1
 -64 1850 l 1,3,-1
 -64 1980 l 1,0,-1
-64 -649 m 1,4,-1
 585 -649 l 1,5,-1
 585 -779 l 1,6,-1
 -64 -779 l 1,7,-1
 -64 -649 l 1,4,-1
EndSplineSet
Refer: 64 93 S 1 0 0 1 0 0 2
Validated: 1
EndChar

StartChar: uni0227
Encoding: 551 551 197
Width: 520
Flags: W
HStem: -779 130<-64 585> 1850 130<-64 585>
VStem: -64 649<-779 -649 1850 1980> 125 130<260.209 1046.48> 267 120<-61.6084 73.0771 1236.32 1371.52>
LayerCount: 2
Fore
SplineSet
-64 1980 m 1,0,-1
 585 1980 l 1,1,-1
 585 1850 l 1,2,-1
 -64 1850 l 1,3,-1
 -64 1980 l 1,0,-1
-64 -649 m 1,4,-1
 585 -649 l 1,5,-1
 585 -779 l 1,6,-1
 -64 -779 l 1,7,-1
 -64 -649 l 1,4,-1
EndSplineSet
Refer: 11 40 S 1 0 0 1 0 0 2
Validated: 1
EndChar

StartChar: uni0228
Encoding: 552 552 198
Width: 520
Flags: W
HStem: -779 130<-64 585> 1850 130<-64 585>
VStem: -64 649<-779 -649 1850 1980> 126 120<-59.4604 76.9766 1236.81 1365.51> 258 128<261.392 1042.01>
LayerCount: 2
Fore
SplineSet
-64 1980 m 1,0,-1
 585 1980 l 1,1,-1
 585 1850 l 1,2,-1
 -64 1850 l 1,3,-1
 -64 1980 l 1,0,-1
-64 -649 m 1,4,-1
 585 -649 l 1,5,-1
 585 -779 l 1,6,-1
 -64 -779 l 1,7,-1
 -64 -649 l 1,4,-1
EndSplineSet
Refer: 12 41 S 1 0 0 1 0 0 2
Validated: 1
EndChar

StartChar: uni0229
Encoding: 553 553 199
Width: 520
Flags: W
HStem: -779 130<-64 585> -83 128<340.655 448.566> 581 128<63.7742 176.011> 1245 129<340.657 448.359> 1850 130<-64 585>
VStem: -64 649<-779 -649 1850 1980> 192 128<63.6572 577.781 734.172 1226.31>
LayerCount: 2
Fore
SplineSet
-64 1980 m 1,0,-1
 585 1980 l 1,1,-1
 585 1850 l 1,2,-1
 -64 1850 l 1,3,-1
 -64 1980 l 1,0,-1
-64 -649 m 1,4,-1
 585 -649 l 1,5,-1
 585 -779 l 1,6,-1
 -64 -779 l 1,7,-1
 -64 -649 l 1,4,-1
EndSplineSet
Refer: 94 123 S 1 0 0 1 0 0 2
Validated: 1
EndChar

StartChar: uni022A
Encoding: 554 554 200
Width: 520
Flags: W
HStem: -779 130<-64 585> -83 128<63.4343 171.343> 581 128<335.474 446.712> 1245 129<63.6406 171.345> 1850 130<-64 585>
VStem: -64 649<-779 -649 1850 1980> 191 129<63.6572 578.637 734.172 1226.31>
LayerCount: 2
Fore
SplineSet
-64 1980 m 1,0,-1
 585 1980 l 1,1,-1
 585 1850 l 1,2,-1
 -64 1850 l 1,3,-1
 -64 1980 l 1,0,-1
-64 -649 m 1,4,-1
 585 -649 l 1,5,-1
 585 -779 l 1,6,-1
 -64 -779 l 1,7,-1
 -64 -649 l 1,4,-1
EndSplineSet
Refer: 96 125 S 1 0 0 1 0 0 2
Validated: 1
EndChar

StartChar: uni022C
Encoding: 556 556 202
Width: 2404
Flags: W
HStem: -779 130<-65 2469> 1850 130<-65 2469>
LayerCount: 2
Fore
SplineSet
-65 -649 m 1,0,-1
 2469 -649 l 1,1,-1
 2469 -779 l 1,2,-1
 -65 -779 l 1,3,-1
 -65 -649 l 1,0,-1
-65 1980 m 1,4,-1
 2469 1980 l 1,5,-1
 2469 1850 l 1,6,-1
 -65 1850 l 1,7,-1
 -65 1980 l 1,4,-1
EndSplineSet
Validated: 1
EndChar

StartChar: uni022D
Encoding: 557 557 203
Width: 684
Flags: W
HStem: -779 130<-65 2469> -384 130<885.622 1453.45> 1565 130<885.622 1453.45> 1850 130<-65 2469>
VStem: 130 130<370.692 938.449> 2080 130<370.692 938.449>
LayerCount: 2
Fore
SplineSet
435 1389.5 m 128,-1,1
 740 1695 740 1695 1169.5 1695 c 128,-1,2
 1599 1695 1599 1695 1904.5 1389.5 c 128,-1,3
 2210 1084 2210 1084 2210 654.5 c 128,-1,4
 2210 225 2210 225 1904.5 -79.5 c 128,-1,5
 1599 -384 1599 -384 1169.5 -384 c 128,-1,6
 740 -384 740 -384 435 -79.5 c 128,-1,7
 130 225 130 225 130 654.5 c 128,-1,0
 130 1084 130 1084 435 1389.5 c 128,-1,1
1812.5 1297.5 m 128,-1,9
 1545 1565 1545 1565 1169.5 1565 c 128,-1,10
 794 1565 794 1565 527 1297.5 c 128,-1,11
 260 1030 260 1030 260 654.5 c 128,-1,12
 260 279 260 279 527 12.5 c 128,-1,13
 794 -254 794 -254 1169.5 -254 c 128,-1,14
 1545 -254 1545 -254 1812.5 12.5 c 128,-1,15
 2080 279 2080 279 2080 654.5 c 128,-1,8
 2080 1030 2080 1030 1812.5 1297.5 c 128,-1,9
-65 -649 m 1,16,-1
 2469 -649 l 1,17,-1
 2469 -779 l 1,18,-1
 -65 -779 l 1,19,-1
 -65 -649 l 1,16,-1
-65 1980 m 1,20,-1
 2469 1980 l 1,21,-1
 2469 1850 l 1,22,-1
 -65 1850 l 1,23,-1
 -65 1980 l 1,20,-1
EndSplineSet
Validated: 1
EndChar

StartChar: uni0248
Encoding: 584 584 220
Width: 2340
Flags: W
HStem: -779 130<-65 2430> -384 130<885.622 1453.45> 1565 130<885.622 1453.45> 1850 130<-65 2430>
VStem: 130 130<370.692 938.449> 2080 130<370.692 938.449>
LayerCount: 2
Fore
SplineSet
-65 -649 m 1,0,-1
 2430 -649 l 1,1,-1
 2430 -779 l 1,2,-1
 -65 -779 l 1,3,-1
 -65 -649 l 1,0,-1
-65 1980 m 1,4,-1
 2430 1980 l 1,5,-1
 2430 1850 l 1,6,-1
 -65 1850 l 1,7,-1
 -65 1980 l 1,4,-1
435 1389.5 m 128,-1,9
 740 1695 740 1695 1169.5 1695 c 128,-1,10
 1599 1695 1599 1695 1904.5 1389.5 c 128,-1,11
 2210 1084 2210 1084 2210 654.5 c 128,-1,12
 2210 225 2210 225 1904.5 -79.5 c 128,-1,13
 1599 -384 1599 -384 1169.5 -384 c 128,-1,14
 740 -384 740 -384 435 -79.5 c 128,-1,15
 130 225 130 225 130 654.5 c 128,-1,8
 130 1084 130 1084 435 1389.5 c 128,-1,9
1812.5 1297.5 m 128,-1,17
 1545 1565 1545 1565 1169.5 1565 c 128,-1,18
 794 1565 794 1565 527 1297.5 c 128,-1,19
 260 1030 260 1030 260 654.5 c 128,-1,20
 260 279 260 279 527 12.5 c 128,-1,21
 794 -254 794 -254 1169.5 -254 c 128,-1,22
 1545 -254 1545 -254 1812.5 12.5 c 128,-1,23
 2080 279 2080 279 2080 654.5 c 128,-1,16
 2080 1030 2080 1030 1812.5 1297.5 c 128,-1,17
EndSplineSet
Validated: 1
EndChar

StartChar: uni0250
Encoding: 592 592 221
Width: 1040
Flags: W
HStem: -779 130<-64 1105> 1850 130<-64 1105>
LayerCount: 2
Fore
SplineSet
-64 -649 m 1,0,-1
 1105 -649 l 1,1,-1
 1105 -779 l 1,2,-1
 -64 -779 l 1,3,-1
 -64 -649 l 1,0,-1
-64 1980 m 1,4,-1
 1105 1980 l 1,5,-1
 1105 1850 l 1,6,-1
 -64 1850 l 1,7,-1
 -64 1980 l 1,4,-1
EndSplineSet
Validated: 1
EndChar

StartChar: uni0251
Encoding: 593 593 222
Width: 2341
Flags: W
HStem: -779 130<-64 2405> 1850 130<-64 2405>
LayerCount: 2
Fore
SplineSet
-64 1980 m 1,0,-1
 2405 1980 l 1,1,-1
 2405 1850 l 1,2,-1
 -64 1850 l 1,3,-1
 -64 1980 l 1,0,-1
-64 -649 m 1,4,-1
 2405 -649 l 1,5,-1
 2405 -779 l 1,6,-1
 -64 -779 l 1,7,-1
 -64 -649 l 1,4,-1
EndSplineSet
Validated: 1
EndChar

StartChar: uni0254
Encoding: 596 596 225
Width: 2341
Flags: W
HStem: -779 130<-64 2405> -5 131<1030.35 1482.11> 1149 130<1034.19 1482.11> 1850 130<-64 2405>
VStem: 835 131<191.267 1082.19>
LayerCount: 2
Fore
SplineSet
-64 1980 m 1,0,-1
 2405 1980 l 1,1,-1
 2405 1850 l 1,2,-1
 -64 1850 l 1,3,-1
 -64 1980 l 1,0,-1
-64 -649 m 1,4,-1
 2405 -649 l 1,5,-1
 2405 -779 l 1,6,-1
 -64 -779 l 1,7,-1
 -64 -649 l 1,4,-1
EndSplineSet
Refer: 38 67 S 1 0 0 1 705 -5 2
Validated: 1
EndChar

StartChar: uni026C
Encoding: 620 620 249
Width: 2341
Flags: W
HStem: -779 130<-64 2405> 1850 130<-64 2405>
LayerCount: 2
Fore
SplineSet
-64 1980 m 1,0,-1
 2405 1980 l 1,1,-1
 2405 1850 l 1,2,-1
 -64 1850 l 1,3,-1
 -64 1980 l 1,0,-1
-64 -649 m 1,4,-1
 2405 -649 l 1,5,-1
 2405 -779 l 1,6,-1
 -64 -779 l 1,7,-1
 -64 -649 l 1,4,-1
EndSplineSet
Validated: 1
EndChar

StartChar: uni026D
Encoding: 621 621 250
Width: 2341
Flags: W
HStem: -779 130<-64 2405> 4 131<1392 1997.82> 5 131<520.351 972.109> 1158 130<1221.92 1824> 1159 130<524.191 972.109> 1850 130<-64 2405>
VStem: 325 131<201.267 1092.19>
LayerCount: 2
Fore
SplineSet
-64 1980 m 1,0,-1
 2405 1980 l 1,1,-1
 2405 1850 l 1,2,-1
 -64 1850 l 1,3,-1
 -64 1980 l 1,0,-1
-64 -649 m 1,4,-1
 2405 -649 l 1,5,-1
 2405 -779 l 1,6,-1
 -64 -779 l 1,7,-1
 -64 -649 l 1,4,-1
EndSplineSet
Refer: 61 90 S 1 0 0 1 1090 4 2
Refer: 38 67 N 1 0 0 1 195 5 2
Validated: 1
EndChar

StartChar: uni026E
Encoding: 622 622 251
Width: 2341
Flags: W
HStem: -779 130<-64 2405> 4 131<1399 2004.82> 7 130<422.548 847.944> 79 118<317.329 471.703> 1157 130<509.706 897.766> 1158 130<1228.92 1831> 1850 130<-64 2405>
VStem: 290 130<851.086 1076.62> 937 130<217.426 441.922>
LayerCount: 2
Fore
SplineSet
-64 1980 m 1,0,-1
 2405 1980 l 1,1,-1
 2405 1850 l 1,2,-1
 -64 1850 l 1,3,-1
 -64 1980 l 1,0,-1
-64 -649 m 1,4,-1
 2405 -649 l 1,5,-1
 2405 -779 l 1,6,-1
 -64 -779 l 1,7,-1
 -64 -649 l 1,4,-1
EndSplineSet
Refer: 54 83 S 1 0 0 1 160 4 2
Refer: 61 90 N 1 0 0 1 1097 4 2
Validated: 1
EndChar

StartChar: uni026F
Encoding: 623 623 252
Width: 2341
Flags: W
HStem: -779 130<-64 2405> -6 131<1331 1936.82> 0 130<501.999 799.687> 1148 130<1160.92 1763> 1151 130<504.375 795.94> 1850 130<-64 2405>
VStem: 254 129<252.427 1037.25> 920 127<249.483 1034.71>
LayerCount: 2
Fore
SplineSet
-64 1980 m 1,0,-1
 2405 1980 l 1,1,-1
 2405 1850 l 1,2,-1
 -64 1850 l 1,3,-1
 -64 1980 l 1,0,-1
-64 -649 m 1,4,-1
 2405 -649 l 1,5,-1
 2405 -779 l 1,6,-1
 -64 -779 l 1,7,-1
 -64 -649 l 1,4,-1
EndSplineSet
Refer: 50 79 S 1 0 0 1 134 0 2
Refer: 61 90 N 1 0 0 1 1029 -6 2
Validated: 1
EndChar

StartChar: uni0270
Encoding: 624 624 253
Width: 2341
Flags: W
HStem: -779 130<-64 2405> -11 21G<1367.75 1433.25> 4 131<563.84 854.571> 623 131<1466 1982.11> 1144 130<1466 1982.11> 1269 20G<352.75 418.25 1001.75 1067.25> 1850 130<-64 2405>
VStem: 320 131<248.941 1287.05> 969 131<248.941 1287.05> 1335 131<-9.07983 623 754 1144>
LayerCount: 2
Fore
SplineSet
-64 1980 m 1,0,-1
 2405 1980 l 1,1,-1
 2405 1850 l 1,2,-1
 -64 1850 l 1,3,-1
 -64 1980 l 1,0,-1
-64 -649 m 1,4,-1
 2405 -649 l 1,5,-1
 2405 -779 l 1,6,-1
 -64 -779 l 1,7,-1
 -64 -649 l 1,4,-1
EndSplineSet
Refer: 41 70 S 1 0 0 1 1205 -11 2
Refer: 56 85 N 1 0 0 1 190 4 2
Validated: 1
EndChar

StartChar: uni0271
Encoding: 625 625 254
Width: 2341
Flags: W
HStem: -779 130<-64 2405> -1 131<463.84 754.571 1347 1952.82> 1153 130<1176.92 1779> 1264 20G<252.75 318.25 901.75 967.25> 1850 130<-64 2405>
VStem: 220 131<243.941 1282.05> 869 131<243.941 1282.05>
LayerCount: 2
Fore
SplineSet
-64 1980 m 1,0,-1
 2405 1980 l 1,1,-1
 2405 1850 l 1,2,-1
 -64 1850 l 1,3,-1
 -64 1980 l 1,0,-1
-64 -649 m 1,4,-1
 2405 -649 l 1,5,-1
 2405 -779 l 1,6,-1
 -64 -779 l 1,7,-1
 -64 -649 l 1,4,-1
EndSplineSet
Refer: 56 85 S 1 0 0 1 90 -1 2
Refer: 61 90 N 1 0 0 1 1045 -1 2
Validated: 1
EndChar

StartChar: uni0272
Encoding: 626 626 255
Width: 2341
Flags: W
HStem: -779 130<-64 2405> 3 21G<1096 1137.5 1868.5 1906.5> 5 21G<709.5 756> 393 130<1332 1673> 1267 20G<1480.5 1527.5> 1269 20G<350.5 376 1105.5 1150> 1850 130<-64 2405>
VStem: 285 127<1241 1284.31> 1829 126<5.24902 50>
LayerCount: 2
Fore
SplineSet
-64 1980 m 1,0,-1
 2405 1980 l 1,1,-1
 2405 1850 l 1,2,-1
 -64 1850 l 1,3,-1
 -64 1980 l 1,0,-1
-64 -649 m 1,4,-1
 2405 -649 l 1,5,-1
 2405 -779 l 1,6,-1
 -64 -779 l 1,7,-1
 -64 -649 l 1,4,-1
EndSplineSet
Refer: 57 86 S 1 0 0 1 155 5 2
Refer: 36 65 N 1 0 0 1 917 3 2
Validated: 1
EndChar

StartChar: uni0274
Encoding: 628 628 256
Width: 3376
Flags: W
HStem: -779 130<-64 3502> -4 131<1398 2003.82> -1 131<510.351 962.109> 5 21G<2239.75 2305.25 2903.75 2937.25> 526 113<2338 2597> 1150 130<1227.92 1830> 1153 130<514.191 962.109> 1160 130<2338 2741.21> 1850 130<-64 3502>
VStem: 315 131<195.267 1086.19> 2207 131<6.92017 526 639 1160> 2856 131<758.771 1044.21>
LayerCount: 2
Fore
SplineSet
-64 1980 m 1,0,-1
 3502 1980 l 1,1,-1
 3502 1850 l 1,2,-1
 -64 1850 l 1,3,-1
 -64 1980 l 1,0,-1
-64 -649 m 1,4,-1
 3502 -649 l 1,5,-1
 3502 -779 l 1,6,-1
 -64 -779 l 1,7,-1
 -64 -649 l 1,4,-1
EndSplineSet
Refer: 53 82 S 1 0 0 1 2077 5 2
Refer: 38 67 N 1 0 0 1 185 -1 2
Refer: 61 90 N 1 0 0 1 1096 -4 2
Validated: 1
EndChar

StartChar: uni0278
Encoding: 632 632 258
Width: 3726
Flags: W
HStem: -779 130<-64 3781> -384 130<805 2921> 0 21G<2267.25 2331.75> 3 130<1197.55 1622.94> 75 118<1092.33 1246.7> 1153 130<1284.71 1672.77> 1155 130<1911.89 2235 2364 2688.08> 1565 130<805 2921> 1850 130<-64 3781>
VStem: 1065 130<847.086 1072.62> 1712 130<213.426 437.922> 2235 129<1.92017 1155>
LayerCount: 2
Fore
SplineSet
-64 1980 m 1,0,-1
 3781 1984 l 1,1,-1
 3781 1854 l 1,2,-1
 -64 1850 l 1,3,-1
 -64 1980 l 1,0,-1
-64 -649 m 1,4,-1
 3781 -645 l 1,5,-1
 3781 -775 l 1,6,-1
 -64 -779 l 1,7,-1
 -64 -649 l 1,4,-1
3596 655 m 1,8,-1
 2996 -384 l 1,9,-1
 730 -384 l 1,10,-1
 130 655 l 1,11,-1
 730 1695 l 1,12,-1
 2996 1695 l 1,13,-1
 3596 655 l 1,8,-1
805 -254 m 1,14,-1
 2921 -254 l 1,15,-1
 3446 655 l 1,16,-1
 2921 1565 l 1,17,-1
 805 1565 l 1,18,-1
 280 655 l 1,19,-1
 805 -254 l 1,14,-1
EndSplineSet
Refer: 54 83 S 1 0 0 1 935 0 2
Refer: 55 84 N 1 0 0 1 1780 0 2
Validated: 1
EndChar

StartChar: uni0279
Encoding: 633 633 259
Width: 3626
Flags: W
HStem: -779 130<-64 3709> -384 130<780 2896> 4 21G<2092.75 2158.25> 9 131<1335.35 1787.11> 638 131<2191 2707.11> 1159 130<2191 2707.11> 1163 130<1339.19 1787.11> 1565 130<780 2896> 1850 130<-64 3709>
VStem: 1140 131<205.267 1096.19> 2060 131<5.92017 638 769 1159>
LayerCount: 2
Fore
SplineSet
-64 1980 m 1,0,-1
 3709 1982 l 1,1,-1
 3709 1852 l 1,2,-1
 -64 1850 l 1,3,-1
 -64 1980 l 1,0,-1
-64 -649 m 1,4,-1
 3709 -647 l 1,5,-1
 3709 -777 l 1,6,-1
 -64 -779 l 1,7,-1
 -64 -649 l 1,4,-1
3046 -254 m 1,8,-1
 2996 -384 l 1,9,-1
 730 -384 l 1,10,-1
 105 655 l 1,11,-1
 705 1695 l 1,12,-1
 2971 1695 l 1,13,-1
 3571 655 l 1,14,-1
 3046 -254 l 1,8,-1
780 -254 m 1,15,-1
 2896 -254 l 1,16,-1
 3421 655 l 1,17,-1
 2896 1565 l 1,18,-1
 780 1565 l 1,19,-1
 255 655 l 1,20,-1
 780 -254 l 1,15,-1
EndSplineSet
Refer: 38 67 S 1 0 0 1 1010 9 2
Refer: 41 70 N 1 0 0 1 1930 4 2
Validated: 1
EndChar

StartChar: uni027A
Encoding: 634 634 260
Width: 909
Flags: W
HStem: -779 130<-64 970> 524 114<133.587 780.413> 1850 130<-64 970>
LayerCount: 2
Fore
SplineSet
-64 1980 m 1,0,-1
 970 1980 l 1,1,-1
 970 1850 l 1,2,-1
 -64 1850 l 1,3,-1
 -64 1980 l 1,0,-1
-64 -649 m 1,4,-1
 970 -649 l 1,5,-1
 970 -779 l 1,6,-1
 -64 -779 l 1,7,-1
 -64 -649 l 1,4,-1
197 638 m 2,8,-1
 717 638 l 2,9,10
 782 638 782 638 782 586 c 0,11,12
 782 524 782 524 719 524 c 2,13,-1
 196 524 l 2,14,15
 132 524 132 524 132 586 c 0,16,17
 132 638 132 638 197 638 c 2,8,-1
EndSplineSet
Validated: 1
EndChar

StartChar: uni027B
Encoding: 635 635 261
Width: 848
Flags: W
HStem: -779 130<-64 909> 0 132<235.098 613> 390 132<235.142 613> 764 130<159.32 573.809> 1850 130<-64 909>
VStem: 93 130<135.159 386.652> 613 129<132 390 522 724.809>
LayerCount: 2
Fore
SplineSet
-64 1980 m 1,0,-1
 909 1980 l 1,1,-1
 909 1850 l 1,2,-1
 -64 1850 l 1,3,-1
 -64 1980 l 1,0,-1
-64 -649 m 1,4,-1
 909 -649 l 1,5,-1
 909 -779 l 1,6,-1
 -64 -779 l 1,7,-1
 -64 -649 l 1,4,-1
EndSplineSet
Refer: 68 97 S 1 0 0 1 -37 0 2
Validated: 1
EndChar

StartChar: uni027C
Encoding: 636 636 262
Width: 899
Flags: W
HStem: -779 130<-64 948> 0 131<260 611.869> 763 130<260 610.839> 1265 20G<162.5 227.5> 1850 130<-64 948>
VStem: 130 130<131 763 893 1283.02> 649 131<169.13 725.839>
LayerCount: 2
Fore
SplineSet
-64 1980 m 1,0,-1
 948 1978 l 1,1,-1
 948 1848 l 1,2,-1
 -64 1850 l 1,3,-1
 -64 1980 l 1,0,-1
-64 -649 m 1,4,-1
 948 -651 l 1,5,-1
 948 -781 l 1,6,-1
 -64 -779 l 1,7,-1
 -64 -649 l 1,4,-1
EndSplineSet
Refer: 69 98 S 1 0 0 1 0 0 2
Validated: 1
EndChar

StartChar: uni027D
Encoding: 637 637 263
Width: 719
Flags: W
HStem: -779 130<-64 796> 0 131<297.645 648.05> 763 130<298.676 648.05> 1850 130<-64 796>
VStem: 130 130<168.13 724.839>
LayerCount: 2
Fore
SplineSet
-64 1980 m 1,0,-1
 796 1982 l 1,1,-1
 796 1852 l 1,2,-1
 -64 1850 l 1,3,-1
 -64 1980 l 1,0,-1
-64 -649 m 1,4,-1
 796 -647 l 1,5,-1
 796 -777 l 1,6,-1
 -64 -779 l 1,7,-1
 -64 -649 l 1,4,-1
EndSplineSet
Refer: 70 99 S 1 0 0 1 0 0 2
Validated: 1
EndChar

StartChar: uni027E
Encoding: 638 638 264
Width: 897
Flags: W
HStem: -779 130<-64 909> -5 131<297.161 656> 763 130<298.191 656> 1265 20G<688.25 752.75> 1850 130<-64 909>
VStem: 130 129<163.13 724.324> 656 129<126 763 893 1283.02>
LayerCount: 2
Fore
SplineSet
-64 1980 m 1,0,-1
 909 1980 l 1,1,-1
 909 1850 l 1,2,-1
 -64 1850 l 1,3,-1
 -64 1980 l 1,0,-1
-64 -649 m 1,4,-1
 909 -649 l 1,5,-1
 909 -779 l 1,6,-1
 -64 -779 l 1,7,-1
 -64 -649 l 1,4,-1
EndSplineSet
Refer: 71 100 S 1 0 0 1 0 0 2
Validated: 1
EndChar

StartChar: uni027F
Encoding: 639 639 265
Width: 873
Flags: W
HStem: -779 130<-64 909> 0 131<297.645 777.08> 390 131<260 650> 762 129<331.008 576.694> 1850 130<-64 909>
VStem: 130 130<167.615 390 521 691.25> 650 129<521 688.194>
LayerCount: 2
Fore
SplineSet
-64 1980 m 1,0,-1
 909 1980 l 1,1,-1
 909 1850 l 1,2,-1
 -64 1850 l 1,3,-1
 -64 1980 l 1,0,-1
-64 -649 m 1,4,-1
 909 -649 l 1,5,-1
 909 -779 l 1,6,-1
 -64 -779 l 1,7,-1
 -64 -649 l 1,4,-1
EndSplineSet
Refer: 72 101 S 1 0 0 1 0 0 2
Validated: 1
EndChar

StartChar: uni0280
Encoding: 640 640 266
Width: 780
Flags: W
HStem: -779 130<-64 909> 763 130<131.891 260 389 648.05> 1154 131<426.131 648.05> 1850 130<-64 909>
VStem: 260 129<-3.07983 763 893 1115.84>
LayerCount: 2
Fore
SplineSet
-64 1980 m 1,0,-1
 909 1980 l 1,1,-1
 909 1850 l 1,2,-1
 -64 1850 l 1,3,-1
 -64 1980 l 1,0,-1
-64 -649 m 1,4,-1
 909 -649 l 1,5,-1
 909 -779 l 1,6,-1
 -64 -779 l 1,7,-1
 -64 -649 l 1,4,-1
EndSplineSet
Refer: 73 102 S 1 0 0 1 0 0 2
Validated: 1
EndChar

StartChar: uni0281
Encoding: 641 641 267
Width: 891
Flags: W
HStem: -779 130<-64 909> -389 131<165.95 581.839> 0 131<266.098 620> 763 130<267.644 620> 1850 130<-64 909>
VStem: 100 130<169.16 725.869> 620 129<-219.84 0 131 763>
LayerCount: 2
Fore
SplineSet
-64 1980 m 1,0,-1
 909 1980 l 1,1,-1
 909 1850 l 1,2,-1
 -64 1850 l 1,3,-1
 -64 1980 l 1,0,-1
-64 -649 m 1,4,-1
 909 -649 l 1,5,-1
 909 -779 l 1,6,-1
 -64 -779 l 1,7,-1
 -64 -649 l 1,4,-1
EndSplineSet
Refer: 74 103 S 1 0 0 1 -30 0 2
Validated: 1
EndChar

StartChar: uni0282
Encoding: 642 642 268
Width: 845
Flags: W
HStem: -779 130<-64 909> 758 130<215 569.717> 1850 130<-64 909>
VStem: 85 130<-3.07983 758 888 1278.02> 605 129<-3.07983 721.329>
LayerCount: 2
Fore
SplineSet
-64 1980 m 1,0,-1
 909 1980 l 1,1,-1
 909 1850 l 1,2,-1
 -64 1850 l 1,3,-1
 -64 1980 l 1,0,-1
-64 -649 m 1,4,-1
 909 -649 l 1,5,-1
 909 -779 l 1,6,-1
 -64 -779 l 1,7,-1
 -64 -649 l 1,4,-1
EndSplineSet
Refer: 75 104 S 1 0 0 1 -45 0 2
Validated: 1
EndChar

StartChar: uni0283
Encoding: 643 643 269
Width: 357
Flags: W
HStem: -779 130<-64 424> 880 20G<140.5 205.5> 1142 164<95.7856 248.214> 1850 130<-64 424>
VStem: -64 488<-779 -649 1850 1980> 90 164<1147.79 1300.21> 108 130<6.92017 898.05>
LayerCount: 2
Fore
SplineSet
-64 1980 m 1,0,-1
 424 1980 l 1,1,-1
 424 1850 l 1,2,-1
 -64 1850 l 1,3,-1
 -64 1980 l 1,0,-1
-64 -649 m 1,4,-1
 424 -649 l 1,5,-1
 424 -779 l 1,6,-1
 -64 -779 l 1,7,-1
 -64 -649 l 1,4,-1
EndSplineSet
Refer: 76 105 S 1 0 0 1 -40 10 2
Validated: 1
EndChar

StartChar: uni0284
Encoding: 644 644 270
Width: 598
Flags: W
HStem: -779 130<-64 667> -388 131<76.3518 264.547> 876 20G<358.25 422.75> 1030 165<314.715 465.285> 1850 130<-64 667>
VStem: 309 162<1035.82 1189.18> 326 129<-199.493 894.05>
LayerCount: 2
Fore
SplineSet
-64 1980 m 1,0,-1
 667 1980 l 1,1,-1
 667 1850 l 1,2,-1
 -64 1850 l 1,3,-1
 -64 1980 l 1,0,-1
-64 -649 m 1,4,-1
 667 -649 l 1,5,-1
 667 -779 l 1,6,-1
 -64 -779 l 1,7,-1
 -64 -649 l 1,4,-1
EndSplineSet
Refer: 77 106 S 1 0 0 1 195 6 2
Validated: 1
EndChar

StartChar: uni0285
Encoding: 645 645 271
Width: 870
Flags: W
HStem: -779 130<-64 918> 887 20G<663.5 686.5> 1850 130<-64 918>
VStem: 85 130<6.89062 413 576 1288.02> 609 126<9.32617 46>
LayerCount: 2
Fore
SplineSet
-64 1980 m 1,0,-1
 918 1980 l 1,1,-1
 918 1850 l 1,2,-1
 -64 1850 l 1,3,-1
 -64 1980 l 1,0,-1
-64 -649 m 1,4,-1
 918 -649 l 1,5,-1
 918 -779 l 1,6,-1
 -64 -779 l 1,7,-1
 -64 -649 l 1,4,-1
EndSplineSet
Refer: 78 107 S 1 0 0 1 -45 0 2
Validated: 1
EndChar

StartChar: uni0286
Encoding: 646 646 272
Width: 455
Flags: W
HStem: -779 130<-64 525> 1262 20G<112.5 177.5> 1850 130<-64 525>
VStem: -64 589<-779 -649 1850 1980> 80 130<157.307 1280.08>
LayerCount: 2
Fore
SplineSet
-64 -649 m 1,0,-1
 525 -649 l 1,1,-1
 525 -779 l 1,2,-1
 -64 -779 l 1,3,-1
 -64 -649 l 1,0,-1
-64 1980 m 1,4,-1
 525 1980 l 1,5,-1
 525 1850 l 1,6,-1
 -64 1850 l 1,7,-1
 -64 1980 l 1,4,-1
EndSplineSet
Refer: 79 108 S 1 0 0 1 -50 0 2
Validated: 1
EndChar

StartChar: uni0287
Encoding: 647 647 273
Width: 1105
Flags: W
HStem: -779 130<-64 1170> 1 21G<104.5 169.5 494.5 559.5 883.75 949.25> 764 130<202 462 592 812.839> 1850 130<-64 1170>
VStem: 72 130<2.92017 764> 462 130<2.92017 764> 851 131<2.92017 725.839>
LayerCount: 2
Fore
SplineSet
-64 1980 m 1,0,-1
 1170 1980 l 1,1,-1
 1170 1850 l 1,2,-1
 -64 1850 l 1,3,-1
 -64 1980 l 1,0,-1
-64 -649 m 1,4,-1
 1170 -649 l 1,5,-1
 1170 -779 l 1,6,-1
 -64 -779 l 1,7,-1
 -64 -649 l 1,4,-1
EndSplineSet
Refer: 80 109 S 1 0 0 1 -40 1 2
Validated: 1
EndChar

StartChar: uni0288
Encoding: 648 648 274
Width: 845
Flags: W
HStem: -779 130<-64 909> -5 21G<117.5 182.5 637.25 701.75> 758 130<215 570.933> 1850 130<-64 909>
VStem: 85 130<-3.07983 758> 605 129<-3.07983 724.162>
LayerCount: 2
Fore
SplineSet
-64 1980 m 1,0,-1
 909 1980 l 1,1,-1
 909 1850 l 1,2,-1
 -64 1850 l 1,3,-1
 -64 1980 l 1,0,-1
-64 -649 m 1,4,-1
 909 -649 l 1,5,-1
 909 -779 l 1,6,-1
 -64 -779 l 1,7,-1
 -64 -649 l 1,4,-1
EndSplineSet
Refer: 81 110 S 1 0 0 1 -45 -5 2
Validated: 1
EndChar

StartChar: uni0289
Encoding: 649 649 275
Width: 845
Flags: W
HStem: -779 130<-64 909> 5 131<266.5 514.25> 768 129<268.008 514.758> 1850 130<-64 909>
VStem: 67 130<208.338 696.75> 587 129<206.992 696.391>
LayerCount: 2
Fore
SplineSet
-64 1980 m 1,0,-1
 909 1980 l 1,1,-1
 909 1850 l 1,2,-1
 -64 1850 l 1,3,-1
 -64 1980 l 1,0,-1
-64 -649 m 1,4,-1
 909 -649 l 1,5,-1
 909 -779 l 1,6,-1
 -64 -779 l 1,7,-1
 -64 -649 l 1,4,-1
EndSplineSet
Refer: 82 111 S 1 0 0 1 -45 5 2
Validated: 1
EndChar

StartChar: uni028A
Encoding: 650 650 276
Width: 845
Flags: W
HStem: -779 130<-64 917> -394 21G<112.75 178.25> -5 131<211 567.84> 758 130<211 568.87> 1850 130<-64 917>
VStem: 80 131<-392.021 -5 126 758> 606 131<163.13 721.385>
LayerCount: 2
Fore
SplineSet
-64 1980 m 1,0,-1
 917 1980 l 1,1,-1
 917 1850 l 1,2,-1
 -64 1850 l 1,3,-1
 -64 1980 l 1,0,-1
-64 -649 m 1,4,-1
 917 -649 l 1,5,-1
 917 -779 l 1,6,-1
 -64 -779 l 1,7,-1
 -64 -649 l 1,4,-1
EndSplineSet
Refer: 83 112 S 1 0 0 1 -50 -5 2
Validated: 1
EndChar

StartChar: uni028B
Encoding: 651 651 277
Width: 845
Flags: W
HStem: -779 130<-64 917> 5 130<233.191 591> 769 130<232.161 591> 1850 130<-64 917>
VStem: 65 129<173.161 730.839> 591 129<-387.021 5 135 769>
LayerCount: 2
Fore
SplineSet
-64 1980 m 1,0,-1
 917 1980 l 1,1,-1
 917 1850 l 1,2,-1
 -64 1850 l 1,3,-1
 -64 1980 l 1,0,-1
-64 -649 m 1,4,-1
 917 -649 l 1,5,-1
 917 -779 l 1,6,-1
 -64 -779 l 1,7,-1
 -64 -649 l 1,4,-1
EndSplineSet
Refer: 84 113 S 1 0 0 1 -65 5 2
Validated: 1
EndChar

StartChar: uni028C
Encoding: 652 652 278
Width: 715
Flags: W
HStem: -779 130<-64 786> 0 21G<160.5 225.5> 765 129<260 520> 1850 130<-64 786>
VStem: 130 130<2.80566 765> 520 128<634.012 765>
LayerCount: 2
Fore
SplineSet
-64 1980 m 1,0,-1
 786 1980 l 1,1,-1
 786 1850 l 1,2,-1
 -64 1850 l 1,3,-1
 -64 1980 l 1,0,-1
-64 -649 m 1,4,-1
 786 -649 l 1,5,-1
 786 -779 l 1,6,-1
 -64 -779 l 1,7,-1
 -64 -649 l 1,4,-1
EndSplineSet
Refer: 85 114 S 1 0 0 1 0 0 2
Validated: 1
EndChar

StartChar: uni028D
Encoding: 653 653 279
Width: 715
Flags: W
HStem: -779 130<-64 786> -3 131<115.783 457.485> 764 130<237.768 533.535> 1850 130<-64 786>
VStem: 87 131<611.298 739.846> 477 130<151.653 289.5>
LayerCount: 2
Fore
SplineSet
-64 1980 m 1,0,-1
 786 1980 l 1,1,-1
 786 1850 l 1,2,-1
 -64 1850 l 1,3,-1
 -64 1980 l 1,0,-1
-64 -649 m 1,4,-1
 786 -649 l 1,5,-1
 786 -779 l 1,6,-1
 -64 -779 l 1,7,-1
 -64 -649 l 1,4,-1
EndSplineSet
Refer: 86 115 S 1 0 0 1 0 0 2
Validated: 1
EndChar

StartChar: uni028E
Encoding: 654 654 280
Width: 615
Flags: W
HStem: -779 130<-64 688> 758 130<53.9202 183 311 570.05> 1850 130<-64 687>
VStem: 183 128<-3.07983 758 888 1278.02>
LayerCount: 2
Fore
SplineSet
-64 1980 m 1,0,-1
 687 1975 l 1,1,-1
 687 1845 l 1,2,-1
 -64 1850 l 1,3,-1
 -64 1980 l 1,0,-1
-64 -649 m 1,4,-1
 688 -649 l 1,5,-1
 688 -779 l 1,6,-1
 -64 -779 l 1,7,-1
 -64 -649 l 1,4,-1
EndSplineSet
Refer: 87 116 S 1 0 0 1 0 0 2
Validated: 1
EndChar

StartChar: uni028F
Encoding: 655 655 281
Width: 873
Flags: W
HStem: -779 130<-64 909> -5 131<278.615 632> 870 20G<144.5 209.5 664.25 728.75> 1850 130<-64 909>
VStem: 112 130<161.584 888.05> 632 129<126 888.05>
LayerCount: 2
Fore
SplineSet
-64 1980 m 1,0,-1
 909 1980 l 1,1,-1
 909 1850 l 1,2,-1
 -64 1850 l 1,3,-1
 -64 1980 l 1,0,-1
-64 -649 m 1,4,-1
 909 -649 l 1,5,-1
 909 -779 l 1,6,-1
 -64 -779 l 1,7,-1
 -64 -649 l 1,4,-1
EndSplineSet
Refer: 88 117 S 1 0 0 1 0 0 2
Validated: 1
EndChar

StartChar: uni0290
Encoding: 656 656 282
Width: 825
Flags: W
HStem: -779 130<-64 909> 872 19G<137.5 180 645.5 691> 1850 130<-64 909>
VStem: 90 645
LayerCount: 2
Fore
SplineSet
-64 1980 m 1,0,-1
 909 1980 l 1,1,-1
 909 1850 l 1,2,-1
 -64 1850 l 1,3,-1
 -64 1980 l 1,0,-1
-64 -649 m 1,4,-1
 909 -649 l 1,5,-1
 909 -779 l 1,6,-1
 -64 -779 l 1,7,-1
 -64 -649 l 1,4,-1
EndSplineSet
Refer: 89 118 S 1 0 0 1 0 0 2
Validated: 1
EndChar

StartChar: uni0291
Encoding: 657 657 283
Width: 1082
Flags: W
HStem: -781 131<-64 1128> 870 20G<116.75 176.25 905 964.5> 1847 130<-64 1116>
LayerCount: 2
Fore
SplineSet
-64 1977 m 1,0,-1
 1116 1977 l 1,1,-1
 1116 1847 l 1,2,-1
 -64 1847 l 1,3,-1
 -64 1977 l 1,0,-1
-64 -650 m 1,4,-1
 1128 -650 l 1,5,-1
 1128 -781 l 1,6,-1
 -64 -781 l 1,7,-1
 -64 -650 l 1,4,-1
EndSplineSet
Refer: 90 119 S 1 0 0 1 0 0 2
Validated: 1
EndChar

StartChar: uni0292
Encoding: 658 658 284
Width: 761
Flags: W
HStem: -779 130<-64 909> 0 21G<117.5 169.5 590.5 641.5> 870 20G<121 172.5 589 640> 1850 130<-64 909>
VStem: 87 587<0 83 806 890>
LayerCount: 2
Fore
SplineSet
-64 1980 m 1,0,-1
 909 1980 l 1,1,-1
 909 1850 l 1,2,-1
 -64 1850 l 1,3,-1
 -64 1980 l 1,0,-1
-64 -649 m 1,4,-1
 909 -649 l 1,5,-1
 909 -779 l 1,6,-1
 -64 -779 l 1,7,-1
 -64 -649 l 1,4,-1
EndSplineSet
Refer: 91 120 S 1 0 0 1 0 0 2
Validated: 1
EndChar

StartChar: uni0293
Encoding: 659 659 285
Width: 824
Flags: W
HStem: -779 130<-64 909> -396 129<89.6819 254.856> 874 20G<134 172 647 684.5> 1850 130<-64 909>
VStem: 87 649
LayerCount: 2
Fore
SplineSet
-64 1980 m 1,0,-1
 909 1980 l 1,1,-1
 909 1850 l 1,2,-1
 -64 1850 l 1,3,-1
 -64 1980 l 1,0,-1
-64 -649 m 1,4,-1
 909 -649 l 1,5,-1
 909 -779 l 1,6,-1
 -64 -779 l 1,7,-1
 -64 -649 l 1,4,-1
EndSplineSet
Refer: 92 121 S 1 0 0 1 0 0 2
Validated: 1
EndChar

StartChar: uni0294
Encoding: 660 660 286
Width: 830
Flags: W
HStem: -779 130<-64 909> 0 131<250 712.75> 763 130<71.3535 531> 1850 130<-64 909>
VStem: 65 656
LayerCount: 2
Fore
SplineSet
-64 1980 m 1,0,-1
 909 1980 l 1,1,-1
 909 1850 l 1,2,-1
 -64 1850 l 1,3,-1
 -64 1980 l 1,0,-1
-64 -649 m 1,4,-1
 909 -649 l 1,5,-1
 909 -779 l 1,6,-1
 -64 -779 l 1,7,-1
 -64 -649 l 1,4,-1
EndSplineSet
Refer: 93 122 S 1 0 0 1 -65 0 2
Validated: 1
EndChar

StartChar: uni0295
Encoding: 661 661 287
Width: 1040
Flags: W
HStem: -779 130<-64 1104> 0 21G<139 180.5 911.5 949.5> 390 130<375 716> 1264 20G<523.5 570.5> 1850 130<-64 1104>
VStem: 872 126<2.24902 47>
LayerCount: 2
Fore
SplineSet
-64 1980 m 1,0,-1
 1104 1980 l 1,1,-1
 1104 1850 l 1,2,-1
 -64 1850 l 1,3,-1
 -64 1980 l 1,0,-1
-64 -649 m 1,4,-1
 1104 -649 l 1,5,-1
 1104 -779 l 1,6,-1
 -64 -779 l 1,7,-1
 -64 -649 l 1,4,-1
EndSplineSet
Refer: 36 65 S 1 0 0 1 -40 0 2
Validated: 1
EndChar

StartChar: uni0296
Encoding: 662 662 288
Width: 1040
Flags: W
HStem: -779 130<-64 1104> 0 131<261 697.886> 633 131<261 672.876> 1154 130<261 671.854> 1850 130<-64 1104>
VStem: 130 131<131 633 764 1154> 715 130<805.865 1111.78> 779 132<221.297 542.949>
LayerCount: 2
Fore
SplineSet
-64 1980 m 1,0,-1
 1104 1980 l 1,1,-1
 1104 1850 l 1,2,-1
 -64 1850 l 1,3,-1
 -64 1980 l 1,0,-1
-64 -649 m 1,4,-1
 1104 -649 l 1,5,-1
 1104 -779 l 1,6,-1
 -64 -779 l 1,7,-1
 -64 -649 l 1,4,-1
EndSplineSet
Refer: 37 66 S 1 0 0 1 0 0 2
Validated: 1
EndChar

StartChar: uni0297
Encoding: 663 663 289
Width: 910
Flags: W
HStem: -779 130<-64 975> 0 131<325.351 777.109> 1154 130<329.191 777.109> 1850 130<-64 975>
VStem: 130 131<196.267 1087.19>
LayerCount: 2
Fore
SplineSet
-64 -649 m 1,0,-1
 975 -649 l 1,1,-1
 975 -779 l 1,2,-1
 -64 -779 l 1,3,-1
 -64 -649 l 1,0,-1
-64 1980 m 1,4,-1
 975 1980 l 1,5,-1
 975 1850 l 1,6,-1
 -64 1850 l 1,7,-1
 -64 1980 l 1,4,-1
EndSplineSet
Refer: 38 67 S 1 0 0 1 0 0 2
Validated: 1
EndChar

StartChar: uni0298
Encoding: 664 664 290
Width: 1040
Flags: W
HStem: -779 130<-64 1105> 1 130<261 713.932> 1155 130<261 708.559> 1850 130<-64 1105>
VStem: 130 131<131 1155> 779 130<195.769 1084.89>
LayerCount: 2
Fore
SplineSet
-64 -649 m 1,0,-1
 1105 -649 l 1,1,-1
 1105 -779 l 1,2,-1
 -64 -779 l 1,3,-1
 -64 -649 l 1,0,-1
-64 1980 m 1,4,-1
 1105 1980 l 1,5,-1
 1105 1850 l 1,6,-1
 -64 1850 l 1,7,-1
 -64 1980 l 1,4,-1
EndSplineSet
Refer: 39 68 S 1 0 0 1 0 0 2
Validated: 1
EndChar

StartChar: uni0299
Encoding: 665 665 291
Width: 910
Flags: W
HStem: -779 130<-64 975> 0 131<261 776.961> 634 131<261 647.75> 1155 130<261 777.109> 1850 130<-64 975>
VStem: 130 131<131 634 765 1155>
LayerCount: 2
Fore
SplineSet
-64 1980 m 1,0,-1
 975 1980 l 1,1,-1
 975 1850 l 1,2,-1
 -64 1850 l 1,3,-1
 -64 1980 l 1,0,-1
-64 -649 m 1,4,-1
 975 -649 l 1,5,-1
 975 -779 l 1,6,-1
 -64 -779 l 1,7,-1
 -64 -649 l 1,4,-1
EndSplineSet
Refer: 40 69 S 1 0 0 1 0 0 2
Validated: 1
EndChar

StartChar: uni029A
Encoding: 666 666 292
Width: 910
Flags: W
HStem: -779 130<-64 975> 0 21G<162.75 228.25> 634 131<261 777.109> 1155 130<261 777.109> 1850 130<-64 975>
VStem: 130 131<1.92017 634 765 1155>
LayerCount: 2
Fore
SplineSet
-64 -649 m 1,0,-1
 975 -649 l 1,1,-1
 975 -779 l 1,2,-1
 -64 -779 l 1,3,-1
 -64 -649 l 1,0,-1
-64 1980 m 1,4,-1
 975 1980 l 1,5,-1
 975 1850 l 1,6,-1
 -64 1850 l 1,7,-1
 -64 1980 l 1,4,-1
EndSplineSet
Refer: 41 70 S 1 0 0 1 0 0 2
Validated: 1
EndChar

StartChar: uni029B
Encoding: 667 667 293
Width: 1040
Flags: W
HStem: -779 130<-64 1105> 0 131<323.266 781> 634 131<576.891 781> 1155 130<329.172 910.08> 1850 130<-64 1105>
VStem: 132 131<192.298 1087.29> 575 337<635.772 761.44> 781 131<131 634>
LayerCount: 2
Fore
SplineSet
-64 -649 m 1,0,-1
 1105 -649 l 1,1,-1
 1105 -779 l 1,2,-1
 -64 -779 l 1,3,-1
 -64 -649 l 1,0,-1
-64 1980 m 1,4,-1
 1105 1980 l 1,5,-1
 1105 1850 l 1,6,-1
 -64 1850 l 1,7,-1
 -64 1980 l 1,4,-1
EndSplineSet
Refer: 42 71 S 1 0 0 1 0 0 2
Validated: 1
EndChar

StartChar: uni029C
Encoding: 668 668 294
Width: 1040
Flags: W
HStem: -779 130<-78 1118> 0 21G<162.75 228.25 811.75 877.25> 634 131<261 779> 1265 20G<162.75 228.25 811.75 877.25> 1850 130<-78 1118>
VStem: 130 131<1.92017 634 765 1283.05> 779 131<1.92017 634 765 1283.05>
LayerCount: 2
Fore
SplineSet
-78 1980 m 1,0,-1
 1118 1980 l 1,1,-1
 1118 1850 l 1,2,-1
 -78 1850 l 1,3,-1
 -78 1980 l 1,0,-1
-78 -649 m 1,4,-1
 1118 -649 l 1,5,-1
 1118 -779 l 1,6,-1
 -78 -779 l 1,7,-1
 -78 -649 l 1,4,-1
EndSplineSet
Refer: 43 72 S 1 0 0 1 0 0 2
Validated: 1
EndChar

StartChar: uni029D
Encoding: 669 669 295
Width: 390
Flags: W
HStem: -779 130<-64 455> 0 21G<162.75 228.25> 1265 20G<162.75 228.25> 1850 130<-64 455>
VStem: -64 519<-779 -649 1850 1980> 130 131<1.92017 1283.05>
LayerCount: 2
Fore
SplineSet
-64 -649 m 1,0,-1
 455 -649 l 1,1,-1
 455 -779 l 1,2,-1
 -64 -779 l 1,3,-1
 -64 -649 l 1,0,-1
-64 1980 m 1,4,-1
 455 1980 l 1,5,-1
 455 1850 l 1,6,-1
 -64 1850 l 1,7,-1
 -64 1980 l 1,4,-1
EndSplineSet
Refer: 44 73 S 1 0 0 1 0 0 2
Validated: 1
EndChar

StartChar: uni029E
Encoding: 670 670 296
Width: 780
Flags: W
HStem: -779 130<-64 845> 1850 130<-64 845>
VStem: 518 130<249.424 1277.86>
LayerCount: 2
Fore
SplineSet
-64 -649 m 1,0,-1
 845 -649 l 1,1,-1
 845 -779 l 1,2,-1
 -64 -779 l 1,3,-1
 -64 -649 l 1,0,-1
-64 1980 m 1,4,-1
 845 1980 l 1,5,-1
 845 1850 l 1,6,-1
 -64 1850 l 1,7,-1
 -64 1980 l 1,4,-1
EndSplineSet
Refer: 45 74 S 1 0 0 1 0 0 2
Validated: 1
EndChar

StartChar: uni029F
Encoding: 671 671 297
Width: 1040
Flags: W
HStem: -779 130<-64 1105> 0 21G<162.75 228.25 825.5 878.5> 1265 20G<162.75 228.25> 1850 130<-64 1105>
VStem: 130 131<1.92017 545 732 1283.05>
LayerCount: 2
Fore
SplineSet
-64 -649 m 1,0,-1
 1105 -649 l 1,1,-1
 1105 -779 l 1,2,-1
 -64 -779 l 1,3,-1
 -64 -649 l 1,0,-1
-64 1980 m 1,4,-1
 1105 1980 l 1,5,-1
 1105 1850 l 1,6,-1
 -64 1850 l 1,7,-1
 -64 1980 l 1,4,-1
EndSplineSet
Refer: 46 75 S 1 0 0 1 0 0 2
Validated: 1
EndChar

StartChar: uni02A0
Encoding: 672 672 298
Width: 910
Flags: W
HStem: -779 130<-64 975> 0 131<261 777.109> 1265 20G<162.75 228.25> 1850 130<-64 975>
VStem: 130 131<131 1283.05>
LayerCount: 2
Fore
SplineSet
-64 -649 m 1,0,-1
 975 -649 l 1,1,-1
 975 -779 l 1,2,-1
 -64 -779 l 1,3,-1
 -64 -649 l 1,0,-1
-64 1980 m 1,4,-1
 975 1980 l 1,5,-1
 975 1850 l 1,6,-1
 -64 1850 l 1,7,-1
 -64 1980 l 1,4,-1
EndSplineSet
Refer: 47 76 S 1 0 0 1 0 0 2
Validated: 1
EndChar

StartChar: uni02A1
Encoding: 673 673 299
Width: 1170
Flags: W
HStem: -779 130<-64 1235> 0 21G<942.5 1007.5> 1265 20G<162 211> 1850 130<-64 1235>
VStem: 130 130<3.86108 1024> 910 130<1.92017 1024>
LayerCount: 2
Fore
SplineSet
-64 -649 m 1,0,-1
 1235 -649 l 1,1,-1
 1235 -779 l 1,2,-1
 -64 -779 l 1,3,-1
 -64 -649 l 1,0,-1
-64 1980 m 1,4,-1
 1235 1980 l 1,5,-1
 1235 1850 l 1,6,-1
 -64 1850 l 1,7,-1
 -64 1980 l 1,4,-1
EndSplineSet
Refer: 48 77 S 1 0 0 1 0 0 2
Validated: 1
EndChar

StartChar: uni02A2
Encoding: 674 674 300
Width: 1040
Flags: W
HStem: -779 130<-64 1105> 1264 20G<159 209 812 878> 1850 130<-64 1105>
VStem: 130 131<-3.07983 961> 780 130<307 1282.11>
LayerCount: 2
Fore
SplineSet
-64 -649 m 1,0,-1
 1105 -649 l 1,1,-1
 1105 -779 l 1,2,-1
 -64 -779 l 1,3,-1
 -64 -649 l 1,0,-1
-64 1980 m 1,4,-1
 1105 1980 l 1,5,-1
 1105 1850 l 1,6,-1
 -64 1850 l 1,7,-1
 -64 1980 l 1,4,-1
EndSplineSet
Refer: 49 78 S 1 0 0 1 0 0 2
Validated: 1
EndChar

StartChar: uni02A3
Encoding: 675 675 301
Width: 1040
Flags: W
HStem: -779 130<-71 1098> 0 130<367.999 665.687> 1151 130<370.375 661.94> 1850 130<-71 1098>
VStem: 120 129<252.427 1037.25> 786 127<249.483 1034.71>
LayerCount: 2
Fore
SplineSet
-71 -649 m 1,0,-1
 1098 -649 l 1,1,-1
 1098 -779 l 1,2,-1
 -71 -779 l 1,3,-1
 -71 -649 l 1,0,-1
-71 1980 m 1,4,-1
 1098 1980 l 1,5,-1
 1098 1850 l 1,6,-1
 -71 1850 l 1,7,-1
 -71 1980 l 1,4,-1
EndSplineSet
Refer: 50 79 S 1 0 0 1 0 0 2
Validated: 1
EndChar

StartChar: uni02A4
Encoding: 676 676 302
Width: 1040
Flags: W
HStem: -779 130<-64 1105> 0 21G<162.75 228.25> 521 113<261 664.442> 1155 130<261 664.442> 1850 130<-64 1105>
VStem: 130 131<1.92017 521 634 1155> 779 131<749.94 1040.5>
LayerCount: 2
Fore
SplineSet
-64 -649 m 1,0,-1
 1105 -649 l 1,1,-1
 1105 -779 l 1,2,-1
 -64 -779 l 1,3,-1
 -64 -649 l 1,0,-1
-64 1980 m 1,4,-1
 1105 1980 l 1,5,-1
 1105 1850 l 1,6,-1
 -64 1850 l 1,7,-1
 -64 1980 l 1,4,-1
EndSplineSet
Refer: 51 80 S 1 0 0 1 0 0 2
Validated: 1
EndChar

StartChar: uni02A5
Encoding: 677 677 303
Width: 1170
Flags: W
HStem: -779 130<-64 1235> 0 130<367.999 665.687> 1151 130<370.375 661.94> 1850 130<-64 1235>
VStem: 120 129<252.427 1037.25> 786 127<314.094 1034.71>
LayerCount: 2
Fore
SplineSet
-64 1980 m 1,0,-1
 1235 1980 l 1,1,-1
 1235 1850 l 1,2,-1
 -64 1850 l 1,3,-1
 -64 1980 l 1,0,-1
-64 -649 m 1,4,-1
 1235 -649 l 1,5,-1
 1235 -779 l 1,6,-1
 -64 -779 l 1,7,-1
 -64 -649 l 1,4,-1
EndSplineSet
Refer: 52 81 S 1 0 0 1 0 0 2
Validated: 1
EndChar

StartChar: uni02A6
Encoding: 678 678 304
Width: 1040
Flags: W
HStem: -779 130<-64 1105> 0 21G<162.75 228.25 826.75 860.25> 521 113<261 520> 1155 130<261 664.208> 1850 130<-64 1105>
VStem: 130 131<1.92017 521 634 1155> 779 131<753.771 1039.21>
LayerCount: 2
Fore
SplineSet
-64 -649 m 1,0,-1
 1105 -649 l 1,1,-1
 1105 -779 l 1,2,-1
 -64 -779 l 1,3,-1
 -64 -649 l 1,0,-1
-64 1980 m 1,4,-1
 1105 1980 l 1,5,-1
 1105 1850 l 1,6,-1
 -64 1850 l 1,7,-1
 -64 1980 l 1,4,-1
EndSplineSet
Refer: 53 82 S 1 0 0 1 0 0 2
Validated: 1
EndChar

StartChar: uni02A7
Encoding: 679 679 305
Width: 1040
Flags: W
HStem: -779 130<-64 1105> 3 130<262.548 687.944> 75 118<157.329 311.703> 1153 130<349.706 737.766> 1850 130<-64 1105>
VStem: 130 130<847.086 1072.62> 777 130<213.426 437.922>
LayerCount: 2
Fore
SplineSet
-64 -649 m 1,0,-1
 1105 -649 l 1,1,-1
 1105 -779 l 1,2,-1
 -64 -779 l 1,3,-1
 -64 -649 l 1,0,-1
-64 1980 m 1,4,-1
 1105 1980 l 1,5,-1
 1105 1850 l 1,6,-1
 -64 1850 l 1,7,-1
 -64 1980 l 1,4,-1
EndSplineSet
Refer: 54 83 S 1 0 0 1 0 0 2
Validated: 1
EndChar

StartChar: uni02A8
Encoding: 680 680 306
Width: 1040
Flags: W
HStem: -779 130<-64 1105> 0 21G<487.25 551.75> 1155 130<131.891 455 584 908.08> 1850 130<-64 1105>
VStem: 455 129<1.92017 1155>
LayerCount: 2
Fore
SplineSet
-64 -649 m 1,0,-1
 1105 -649 l 1,1,-1
 1105 -779 l 1,2,-1
 -64 -779 l 1,3,-1
 -64 -649 l 1,0,-1
-64 1980 m 1,4,-1
 1105 1980 l 1,5,-1
 1105 1850 l 1,6,-1
 -64 1850 l 1,7,-1
 -64 1980 l 1,4,-1
EndSplineSet
Refer: 55 84 S 1 0 0 1 0 0 2
Validated: 1
EndChar

StartChar: uni02A9
Encoding: 681 681 307
Width: 1040
Flags: W
HStem: -779 130<-64 1105> 0 131<373.84 664.571> 1265 20G<162.75 228.25 811.75 877.25> 1850 130<-64 1105>
VStem: 130 131<244.941 1283.05> 779 131<244.941 1283.05>
LayerCount: 2
Fore
SplineSet
-64 -649 m 1,0,-1
 1105 -649 l 1,1,-1
 1105 -779 l 1,2,-1
 -64 -779 l 1,3,-1
 -64 -649 l 1,0,-1
-64 1980 m 1,4,-1
 1105 1980 l 1,5,-1
 1105 1850 l 1,6,-1
 -64 1850 l 1,7,-1
 -64 1980 l 1,4,-1
EndSplineSet
Refer: 56 85 S 1 0 0 1 0 0 2
Validated: 1
EndChar

StartChar: uni02AA
Encoding: 682 682 308
Width: 1190
Flags: W
HStem: -779 130<-54 1244> 0 21G<554.5 601> 1264 20G<195.5 221 950.5 995> 1850 130<-54 1244>
VStem: 130 127<1236 1279.31>
LayerCount: 2
Fore
SplineSet
-54 -649 m 1,0,-1
 1244 -649 l 1,1,-1
 1244 -779 l 1,2,-1
 -54 -779 l 1,3,-1
 -54 -649 l 1,0,-1
-54 1980 m 1,4,-1
 1244 1980 l 1,5,-1
 1244 1850 l 1,6,-1
 -54 1850 l 1,7,-1
 -54 1980 l 1,4,-1
EndSplineSet
Refer: 57 86 S 1 0 0 1 0 0 2
Validated: 1
EndChar

StartChar: uni02AB
Encoding: 683 683 309
Width: 1430
Flags: W
HStem: -779 130<-64 1495> 0 21G<426.5 474.5> 948 20G<690.5 741> 1264 20G<1204.5 1274.5> 1850 130<-64 1495>
LayerCount: 2
Fore
SplineSet
-64 -649 m 1,0,-1
 1495 -649 l 1,1,-1
 1495 -779 l 1,2,-1
 -64 -779 l 1,3,-1
 -64 -649 l 1,0,-1
-64 1980 m 1,4,-1
 1495 1980 l 1,5,-1
 1495 1850 l 1,6,-1
 -64 1850 l 1,7,-1
 -64 1980 l 1,4,-1
EndSplineSet
Refer: 58 87 S 1 0 0 1 0 0 2
Validated: 1
EndChar

StartChar: uni02AC
Encoding: 684 684 310
Width: 1170
Flags: W
HStem: -779 130<-64 1235> 1850 130<-64 1235>
LayerCount: 2
Fore
SplineSet
-64 -649 m 1,0,-1
 1235 -649 l 1,1,-1
 1235 -779 l 1,2,-1
 -64 -779 l 1,3,-1
 -64 -649 l 1,0,-1
-64 1980 m 1,4,-1
 1235 1980 l 1,5,-1
 1235 1850 l 1,6,-1
 -64 1850 l 1,7,-1
 -64 1980 l 1,4,-1
EndSplineSet
Refer: 59 88 S 1 0 0 1 0 0 2
Validated: 1
EndChar

StartChar: uni02AD
Encoding: 685 685 311
Width: 1170
Flags: W
HStem: -779 130<-64 1235> 0 21G<555.5 620.5> 1850 130<-64 1235>
VStem: 523 130<1.89062 634>
LayerCount: 2
Fore
SplineSet
-64 -649 m 1,0,-1
 1235 -649 l 1,1,-1
 1235 -779 l 1,2,-1
 -64 -779 l 1,3,-1
 -64 -649 l 1,0,-1
-64 1980 m 1,4,-1
 1235 1980 l 1,5,-1
 1235 1850 l 1,6,-1
 -64 1850 l 1,7,-1
 -64 1980 l 1,4,-1
EndSplineSet
Refer: 60 89 S 1 0 0 1 0 0 2
Validated: 1
EndChar

StartChar: uni02AE
Encoding: 686 686 312
Width: 1040
Flags: W
HStem: -779 130<-64 1105> 0 131<302 907.82> 1154 130<131.92 734> 1850 130<-64 1105>
LayerCount: 2
Fore
SplineSet
-64 -649 m 1,0,-1
 1105 -649 l 1,1,-1
 1105 -779 l 1,2,-1
 -64 -779 l 1,3,-1
 -64 -649 l 1,0,-1
-64 1980 m 1,4,-1
 1105 1980 l 1,5,-1
 1105 1850 l 1,6,-1
 -64 1850 l 1,7,-1
 -64 1980 l 1,4,-1
EndSplineSet
Refer: 61 90 S 1 0 0 1 0 0 2
Validated: 1
EndChar

StartChar: uni02CD
Encoding: 717 717 337
Width: 3726
Flags: W
HStem: -384 130<805 2921> -4 21G<1970.75 2036.25> -4 131<1312.35 1764.11> 630 131<2069 2585.11> 1150 130<1316.19 1764.11> 1151 130<2069 2585.11> 1565 130<805 2921>
VStem: 1117 131<192.267 1083.19> 1938 131<-2.07983 630 761 1151>
LayerCount: 2
Fore
SplineSet
3596 655 m 1,0,-1
 2996 -384 l 1,1,-1
 730 -384 l 1,2,-1
 130 655 l 1,3,-1
 730 1695 l 1,4,-1
 2996 1695 l 1,5,-1
 3596 655 l 1,0,-1
805 -254 m 1,6,-1
 2921 -254 l 1,7,-1
 3446 655 l 1,8,-1
 2921 1565 l 1,9,-1
 805 1565 l 1,10,-1
 280 655 l 1,11,-1
 805 -254 l 1,6,-1
EndSplineSet
Refer: 41 70 S 1 0 0 1 1808 -4 2
Refer: 38 67 N 1 0 0 1 987 -4 2
Validated: 1
EndChar

StartChar: uni02D2
Encoding: 722 722 339
Width: 1024
Flags: W
LayerCount: 2
Fore
SplineSet
130 1980 m 1,0,-1
 130 -787 l 1,1,-1
 1154 -787 l 1,2,-1
 1154 -645 l 1,3,-1
 258 -645 l 1,4,-1
 258 1850 l 1,5,-1
 1154 1850 l 1,6,-1
 1154 1980 l 1,7,-1
 130 1980 l 1,0,-1
EndSplineSet
Validated: 9
EndChar

StartChar: uni02D3
Encoding: 723 723 340
Width: 1228
Flags: W
HStem: -787 142<-56 970> 1850 130<-56 970>
VStem: 970 128<-645 1850>
LayerCount: 2
Fore
SplineSet
1098 1980 m 1,0,-1
 1098 -787 l 1,1,-1
 -56 -787 l 1,2,-1
 -56 -645 l 1,3,-1
 970 -645 l 1,4,-1
 970 1850 l 1,5,-1
 -56 1850 l 1,6,-1
 -56 1980 l 1,7,-1
 1098 1980 l 1,0,-1
EndSplineSet
Validated: 1
EndChar

StartChar: uni02D5
Encoding: 725 725 341
Width: 1430
Flags: W
HStem: -779 130<-64 318.141> 1850 130<-64 318.141>
VStem: 1170 130<208.389 990.827>
LayerCount: 2
Fore
SplineSet
0 1980 m 2,0,1
 268 1980 268 1980 504.5 1877.5 c 128,-1,2
 741 1775 741 1775 918 1598 c 128,-1,3
 1095 1421 1095 1421 1197.5 1184.5 c 128,-1,4
 1300 948 1300 948 1300 599.5 c 128,-1,5
 1300 251 1300 251 1197.5 15 c 128,-1,6
 1095 -221 1095 -221 918 -397.5 c 128,-1,7
 741 -574 741 -574 504.5 -676.5 c 128,-1,8
 268 -779 268 -779 0 -779 c 2,9,-1
 -64 -779 l 1,10,-1
 -64 -649 l 1,11,-1
 0 -649 l 2,12,13
 241 -649 241 -649 454 -556.5 c 128,-1,14
 667 -464 667 -464 826 -305.5 c 128,-1,15
 985 -147 985 -147 1077.5 65.5 c 128,-1,16
 1170 278 1170 278 1170 599.5 c 128,-1,17
 1170 921 1170 921 1077.5 1134 c 128,-1,18
 985 1347 985 1347 826 1506 c 128,-1,19
 667 1665 667 1665 454 1757.5 c 128,-1,20
 241 1850 241 1850 0 1850 c 2,21,-1
 -64 1850 l 1,22,-1
 -64 1980 l 1,23,-1
 0 1980 l 2,0,1
EndSplineSet
Validated: 1
EndChar

StartChar: uni02D6
Encoding: 726 726 342
Width: 1041
Flags: W
HStem: -779 130<955 1161> 1850 130<955 1161>
LayerCount: 2
Fore
SplineSet
880 1980 m 1,0,-1
 1161 1980 l 1,1,-1
 1161 1850 l 1,2,-1
 955 1850 l 1,3,-1
 280 655 l 1,4,-1
 955 -649 l 1,5,-1
 1161 -649 l 1,6,-1
 1161 -779 l 1,7,-1
 880 -779 l 1,8,-1
 130 655 l 1,9,-1
 880 1980 l 1,0,-1
EndSplineSet
Validated: 1
EndChar

StartChar: uni02D7
Encoding: 727 727 343
Width: 1095
Flags: W
HStem: -779 130<-64 140> 1850 130<-64 140>
LayerCount: 2
Fore
SplineSet
-64 1980 m 1,0,-1
 215 1980 l 1,1,-1
 965 655 l 1,2,-1
 215 -779 l 1,3,-1
 -64 -779 l 1,4,-1
 -64 -649 l 1,5,-1
 140 -649 l 1,6,-1
 815 655 l 1,7,-1
 140 1850 l 1,8,-1
 -64 1850 l 1,9,-1
 -64 1980 l 1,0,-1
EndSplineSet
Validated: 1
EndChar

StartChar: ogonek
Encoding: 731 731 345
Width: 648
Flags: W
HStem: -405 130<879.595 1459.48> 1515 130<890.813 1448.25>
VStem: 130 130<330.076 880.189> 2080 130<330.076 880.189>
LayerCount: 2
Fore
SplineSet
435 1332 m 128,-1,1
 740 1645 740 1645 1169.5 1645 c 128,-1,2
 1599 1645 1599 1645 1904.5 1332 c 128,-1,3
 2210 1019 2210 1019 2210 604 c 128,-1,4
 2210 189 2210 189 1904.5 -108 c 128,-1,5
 1599 -405 1599 -405 1169.5 -405 c 128,-1,6
 740 -405 740 -405 435 -108 c 128,-1,7
 130 189 130 189 130 604 c 128,-1,0
 130 1019 130 1019 435 1332 c 128,-1,1
1812.5 1240 m 128,-1,9
 1545 1515 1545 1515 1169.5 1515 c 128,-1,10
 794 1515 794 1515 527 1240 c 128,-1,11
 260 965 260 965 260 604 c 128,-1,12
 260 243 260 243 527 -16 c 128,-1,13
 794 -275 794 -275 1169.5 -275 c 128,-1,14
 1545 -275 1545 -275 1812.5 -16 c 128,-1,15
 2080 243 2080 243 2080 604 c 128,-1,8
 2080 965 2080 965 1812.5 1240 c 128,-1,9
EndSplineSet
Validated: 1
EndChar

StartChar: tilde
Encoding: 732 732 346
Width: 784
Flags: W
HStem: -405 130<882.489 2756.95> 1515 130<892.882 2746.57>
VStem: 130 130<330.076 880.189> 3380 130<330.076 880.189>
LayerCount: 2
Fore
SplineSet
1170 1645 m 2,0,-1
 2470 1645 l 2,1,2
 2899 1645 2899 1645 3204.5 1332 c 128,-1,3
 3510 1019 3510 1019 3510 604 c 128,-1,4
 3510 189 3510 189 3204.5 -108 c 128,-1,5
 2899 -405 2899 -405 2470 -405 c 2,6,-1
 1170 -405 l 2,7,8
 740 -405 740 -405 435 -108 c 128,-1,9
 130 189 130 189 130 604 c 128,-1,10
 130 1019 130 1019 435 1332 c 128,-1,11
 740 1645 740 1645 1170 1645 c 2,0,-1
1170 1515 m 2,12,13
 794 1515 794 1515 527 1240 c 128,-1,14
 260 965 260 965 260 604 c 128,-1,15
 260 243 260 243 527 -16 c 128,-1,16
 794 -275 794 -275 1170 -275 c 2,17,-1
 2470 -275 l 2,18,19
 2845 -275 2845 -275 3112.5 -16 c 128,-1,20
 3380 243 3380 243 3380 604 c 128,-1,21
 3380 965 3380 965 3112.5 1240 c 128,-1,22
 2845 1515 2845 1515 2470 1515 c 2,23,-1
 1170 1515 l 2,12,13
EndSplineSet
Validated: 1
EndChar

StartChar: hungarumlaut
Encoding: 733 733 347
Width: 934
Flags: W
HStem: -405 130<805 1882> 1515 130<805 1882>
LayerCount: 2
Fore
SplineSet
2557 636 m 1,0,-1
 1957 -404 l 1,1,-1
 1807 -404 l 1,2,-1
 880 -405 l 1,3,-1
 730 -405 l 1,4,-1
 130 635 l 1,5,-1
 730 1644 l 1,6,-1
 779 1644 l 1,7,-1
 1807 1645 l 1,8,-1
 1957 1645 l 1,9,-1
 2557 636 l 1,0,-1
805 -275 m 1,10,-1
 1882 -274 l 1,11,-1
 2407 636 l 1,12,-1
 1882 1515 l 1,13,-1
 805 1514 l 1,14,-1
 280 635 l 1,15,-1
 805 -275 l 1,10,-1
EndSplineSet
Validated: 1
EndChar

StartChar: uni02DE
Encoding: 734 734 348
Width: 882
Flags: W
HStem: -405 130<805 2921> 1515 130<805 2921>
LayerCount: 2
Fore
SplineSet
3596 635 m 1,0,-1
 2996 -405 l 1,1,-1
 730 -405 l 1,2,-1
 130 635 l 1,3,-1
 730 1645 l 1,4,-1
 2996 1645 l 1,5,-1
 3596 635 l 1,0,-1
805 -275 m 1,6,-1
 2921 -275 l 1,7,-1
 3446 635 l 1,8,-1
 2921 1515 l 1,9,-1
 805 1515 l 1,10,-1
 280 635 l 1,11,-1
 805 -275 l 1,6,-1
EndSplineSet
Validated: 1
EndChar

StartChar: uni02DF
Encoding: 735 735 349
Width: 882
Flags: W
HStem: -405 130<805 3821> 1515 130<805 3821>
LayerCount: 2
Fore
SplineSet
4496 635 m 1,0,-1
 3896 -405 l 1,1,-1
 730 -405 l 1,2,-1
 130 635 l 1,3,-1
 730 1645 l 1,4,-1
 3896 1645 l 1,5,-1
 4496 635 l 1,0,-1
805 -275 m 1,6,-1
 3821 -275 l 1,7,-1
 4346 635 l 1,8,-1
 3821 1515 l 1,9,-1
 805 1515 l 1,10,-1
 280 635 l 1,11,-1
 805 -275 l 1,6,-1
EndSplineSet
Validated: 1
EndChar

StartChar: uni02E0
Encoding: 736 736 350
Width: 390
Flags: W
HStem: -404 131<260 1820> 1516 122<260 1820>
VStem: 133 127<-273 1516>
LayerCount: 2
Fore
SplineSet
2657 628 m 1,0,-1
 1907 -404 l 1,1,-1
 133 -404 l 1,2,-1
 133 627 l 1,3,-1
 133 1638 l 1,4,-1
 1907 1638 l 1,5,-1
 2657 628 l 1,0,-1
260 -273 m 1,6,-1
 1820 -276 l 1,7,-1
 2485 628 l 1,8,-1
 1820 1508 l 1,9,-1
 260 1516 l 1,10,-1
 260 640 l 1,11,-1
 260 -273 l 1,6,-1
EndSplineSet
Validated: 1
EndChar

StartChar: uni02E1
Encoding: 737 737 351
Width: 398
Flags: W
HStem: -404 131<260 2332> 1516 122<260 2332>
VStem: 133 127<-273 1516>
LayerCount: 2
Fore
SplineSet
3169 628 m 1,0,-1
 2419 -404 l 1,1,-1
 133 -404 l 1,2,-1
 133 627 l 1,3,-1
 133 1638 l 1,4,-1
 2419 1638 l 1,5,-1
 3169 628 l 1,0,-1
260 -273 m 1,6,-1
 2332 -276 l 1,7,-1
 2997 628 l 1,8,-1
 2332 1508 l 1,9,-1
 260 1516 l 1,10,-1
 260 640 l 1,11,-1
 260 -273 l 1,6,-1
EndSplineSet
Validated: 1
EndChar

StartChar: uni02E2
Encoding: 738 738 352
Width: 262
Flags: W
VStem: 130 130<-260 1505>
LayerCount: 2
Fore
SplineSet
1956 634 m 1,0,-1
 284 -410 l 1,1,-1
 130 -410 l 1,2,-1
 133 628 l 1,3,-1
 130 1639 l 1,4,-1
 292 1639 l 1,5,-1
 1956 634 l 1,0,-1
1758 634 m 1,6,-1
 260 1505 l 1,7,-1
 260 628 l 1,8,-1
 260 -260 l 1,9,-1
 1758 634 l 1,6,-1
EndSplineSet
Validated: 1
EndChar

StartChar: uni02E3
Encoding: 739 739 353
Width: 261
Flags: W
VStem: 133 127<-273 1516>
LayerCount: 2
Fore
SplineSet
3297 628 m 1,0,-1
 260 -410 l 1,1,-1
 133 -404 l 1,2,-1
 133 628 l 1,3,-1
 133 1638 l 1,4,-1
 260 1644 l 1,5,-1
 3297 628 l 1,0,-1
2965 628 m 1,6,-1
 260 1516 l 1,7,-1
 260 628 l 1,8,-1
 260 -273 l 1,9,-1
 2965 628 l 1,6,-1
EndSplineSet
Validated: 1
EndChar

StartChar: uni02E6
Encoding: 742 742 355
Width: 512
Flags: W
HStem: 1526 119<329.741 643.436>
VStem: 112 120<-719.169 1418.76>
LayerCount: 2
Fore
SplineSet
214 -728 m 0,0,1
 172 -744 172 -744 172 -745 c 128,-1,2
 172 -746 172 -746 151.5 -738 c 128,-1,3
 131 -730 131 -730 121.5 -719.5 c 128,-1,4
 112 -709 112 -709 112 -686 c 2,5,-1
 115 260 l 1,6,-1
 116 1232 l 2,7,8
 116 1439 116 1439 225 1548 c 0,9,10
 304 1627 304 1627 414 1645 c 0,11,12
 421 1646 421 1646 467.5 1645 c 128,-1,13
 514 1644 514 1644 603 1644 c 0,14,15
 628 1644 628 1644 645 1626 c 128,-1,16
 662 1608 662 1608 662 1583 c 128,-1,17
 662 1558 662 1558 644 1541 c 128,-1,18
 626 1524 626 1524 602 1524 c 0,19,20
 517 1525 517 1525 432 1526 c 1,21,22
 355 1509 355 1509 310 1464 c 0,23,24
 236 1390 236 1390 236 1232 c 2,25,-1
 235 261 l 1,26,-1
 232 -686 l 2,27,28
 232 -721 232 -721 214 -728 c 0,0,1
EndSplineSet
Validated: 1
EndChar

StartChar: uni02E7
Encoding: 743 743 356
Width: 512
Flags: W
HStem: -418 120<330.249 445 602 643.436>
VStem: 116 120<-197.063 -5 1913 1971.58>
LayerCount: 2
Fore
SplineSet
218 1955 m 128,-1,1
 200 1973 200 1973 188 1973 c 2,2,-1
 174 1973 l 2,3,4
 150 1973 150 1973 133 1955 c 128,-1,5
 116 1937 116 1937 116 1913 c 2,6,-1
 115 966 l 1,7,-1
 116 -5 l 2,8,9
 116 -211 116 -211 225 -322 c 0,10,11
 302 -400 302 -400 414 -419 c 0,12,13
 421 -420 421 -420 445 -419 c 128,-1,14
 469 -418 469 -418 603 -418 c 0,15,16
 628 -418 628 -418 645 -400 c 128,-1,17
 662 -382 662 -382 662 -357 c 128,-1,18
 662 -332 662 -332 644 -315 c 128,-1,19
 626 -298 626 -298 602 -298 c 0,20,21
 517 -299 517 -299 432 -300 c 1,22,23
 357 -282 357 -282 310 -237 c 0,24,25
 236 -165 236 -165 236 -5 c 2,26,-1
 235 966 l 1,27,-1
 236 1913 l 2,28,0
 236 1937 236 1937 218 1955 c 128,-1,1
EndSplineSet
Validated: 9
EndChar

StartChar: uni02E8
Encoding: 744 744 357
Width: 512
Flags: W
HStem: 1524 119<-192.952 -152 18 121.259>
VStem: 216 119<-797.836 -756 1230 1422.34>
LayerCount: 2
Fore
SplineSet
231 -798 m 0,0,1
 273 -810 273 -810 273 -813 c 128,-1,2
 273 -816 273 -816 290 -812 c 128,-1,3
 307 -808 307 -808 320 -793.5 c 128,-1,4
 333 -779 333 -779 333 -756 c 2,5,-1
 335 258 l 1,6,-1
 335 1230 l 2,7,8
 334 1438 334 1438 226 1546 c 0,9,10
 147 1625 147 1625 37 1643 c 0,11,12
 30 1644 30 1644 -17 1643 c 128,-1,13
 -64 1642 -64 1642 -152 1642 c 0,14,15
 -178 1642 -178 1642 -194.5 1624 c 128,-1,16
 -211 1606 -211 1606 -211 1581 c 128,-1,17
 -211 1556 -211 1556 -193.5 1539 c 128,-1,18
 -176 1522 -176 1522 -152 1522 c 0,19,20
 -67 1523 -67 1523 18 1524 c 1,21,22
 98 1507 98 1507 141 1462 c 0,23,24
 214 1387 214 1387 215 1230 c 2,25,-1
 216 259 l 1,26,-1
 213 -756 l 2,27,28
 213 -793 213 -793 231 -798 c 0,0,1
EndSplineSet
Validated: 9
EndChar

StartChar: uni02E9
Encoding: 745 745 358
Width: 512
Flags: W
HStem: -417 119<-193.436 117.731>
VStem: 216 119<-192.677 1994.73>
LayerCount: 2
Fore
SplineSet
234 1978 m 128,-1,1
 252 1996 252 1996 264 1996 c 2,2,-1
 278 1996 l 2,3,4
 302 1996 302 1996 319 1978 c 128,-1,5
 336 1960 336 1960 336 1936 c 2,6,-1
 335 968 l 1,7,-1
 335 -3 l 2,8,9
 334 -214 334 -214 226 -320 c 0,10,11
 146 -399 146 -399 37 -417 c 0,12,13
 30 -418 30 -418 3.5 -417 c 128,-1,14
 -23 -416 -23 -416 -152 -416 c 0,15,16
 -179 -416 -179 -416 -194.5 -398.5 c 128,-1,17
 -210 -381 -210 -381 -211 -356.5 c 128,-1,18
 -212 -332 -212 -332 -194 -314 c 128,-1,19
 -176 -296 -176 -296 -152 -296 c 0,20,21
 -67 -297 -67 -297 18 -298 c 1,22,23
 96 -280 96 -280 141 -235 c 0,24,25
 214 -162 214 -162 215 -3 c 2,26,-1
 216 968 l 1,27,-1
 216 1936 l 2,28,0
 216 1960 216 1960 234 1978 c 128,-1,1
EndSplineSet
Validated: 1
EndChar

StartChar: uni02EC
Encoding: 748 748 359
Width: 512
Flags: W
HStem: -472 120<313 2064> 1576 120<313 2064>
VStem: 200 113<-352 1576>
LayerCount: 2
Fore
SplineSet
2064 -472 m 1,0,-1
 200 -472 l 1,1,-1
 200 1696 l 1,2,-1
 2064 1696 l 1,3,-1
 2064 1576 l 1,4,-1
 313 1576 l 1,5,-1
 313 -352 l 1,6,-1
 2064 -352 l 1,7,-1
 2064 -472 l 1,0,-1
EndSplineSet
Validated: 1
EndChar

StartChar: uni02ED
Encoding: 749 749 360
Width: 768
Flags: W
HStem: -472 120<-16 327 446 784> 1576 120<-16 327 446 784>
VStem: 327 119<-352 1576>
LayerCount: 2
Fore
SplineSet
446 1576 m 1,0,-1
 446 -352 l 1,1,-1
 784 -352 l 1,2,-1
 784 -472 l 1,3,-1
 -16 -472 l 1,4,-1
 -16 -352 l 1,5,-1
 327 -352 l 1,6,-1
 327 1576 l 1,7,-1
 -16 1576 l 1,8,-1
 -16 1696 l 1,9,-1
 784 1696 l 1,10,-1
 784 1576 l 1,11,-1
 446 1576 l 1,0,-1
EndSplineSet
Validated: 1
EndChar

StartChar: uni02EE
Encoding: 750 750 361
Width: 512
Flags: W
HStem: -472 120<-1552 327> 1576 120<-1552 327>
VStem: 327 120<-352 1576>
LayerCount: 2
Fore
SplineSet
447 -472 m 1,0,1
 447 -472 447 -472 -1552 -472 c 1,2,-1
 -1552 -352 l 1,3,-1
 327 -352 l 1,4,-1
 327 1576 l 1,5,-1
 -1552 1576 l 1,6,-1
 -1552 1696 l 1,7,-1
 447 1696 l 1,8,-1
 447 -472 l 1,0,1
EndSplineSet
Validated: 1
EndChar

StartChar: uni02EF
Encoding: 751 751 362
Width: 0
Flags: W
HStem: -472 120<-1820 128> 1576 120<-1820 128>
LayerCount: 2
Fore
SplineSet
128 -352 m 1,0,-1
 128 -472 l 1,1,-1
 -1820 -472 l 1,2,-1
 -1820 -352 l 1,3,-1
 128 -352 l 1,0,-1
128 1696 m 1,4,-1
 128 1576 l 1,5,-1
 -1820 1576 l 1,6,-1
 -1820 1696 l 1,7,-1
 128 1696 l 1,4,-1
EndSplineSet
Validated: 1
EndChar

